<?xml version="1.0" encoding="UTF-8" standalone="no" ?>
<!DOCTYPE svg PUBLIC "-//W3C//DTD SVG 1.1//EN" "http://www.w3.org/Graphics/SVG/1.1/DTD/svg11.dtd">
<svg xmlns="http://www.w3.org/2000/svg" xmlns:xlink="http://www.w3.org/1999/xlink" version="1.1" width="1080" height="1920" viewBox="30 -255 1080 1920" xml:space="preserve">
<desc>Created with Fabric.js 5.2.4</desc>
<defs>
</defs>
<rect x="0" y="0" width="100%" height="100%" fill="transparent"></rect>
<g transform="matrix(0 0 0 0 0 0)" id="3b3a0fd7-6c77-4d6d-8212-3e116d6e2035"  >
</g>
<g transform="matrix(1 0 0 1 540 960)" id="c7ad04d0-e5db-46e6-b508-d1d743174c1e"  >
<rect style="stroke: none; stroke-width: 1; stroke-dasharray: none; stroke-linecap: butt; stroke-dashoffset: 0; stroke-linejoin: miter; stroke-miterlimit: 4; fill: rgb(182,18,18); fill-rule: nonzero; opacity: 1; visibility: hidden;" vector-effect="non-scaling-stroke"  x="-540" y="-960" rx="0" ry="0" width="1080" height="1920" />
</g>
<g transform="matrix(-2.42 3.02 -3.02 -2.42 596.67 689.36)"  >
<path style="stroke: rgb(0,0,0); stroke-width: 0; stroke-dasharray: none; stroke-linecap: butt; stroke-dashoffset: 0; stroke-linejoin: miter; stroke-miterlimit: 4; fill: rgb(128,237,153); fill-rule: nonzero; opacity: 1;" vector-effect="non-scaling-stroke"  transform=" translate(-61, -68)" d="M 24.7219 107.666 C 48.2285 92.6289 71.9469 77.5917 95.4536 62.5546 C 95.2418 61.9192 94.8183 61.0721 94.6065 60.4367 C 84.865 62.131 74.9117 63.8254 65.1702 65.3079 C 59.4524 66.1551 53.7346 66.7904 48.0168 66.5786 C 36.1575 66.155 31.9221 57.8952 38.0635 47.7293 C 40.1812 44.3406 42.7225 40.7402 45.6873 38.1987 C 60.2995 25.9148 75.1235 14.0546 89.7357 1.98249 C 90.7946 1.13533 92.0652 0.288181 93.3359 0.0763904 C 94.3947 -0.1354 96.3007 0.0763774 96.936 0.92354 C 97.7831 2.19428 98.4184 4.52399 97.5713 5.37115 C 95.2418 8.33622 92.7005 10.8777 89.9475 13.4192 C 78.5118 23.3734 66.6526 33.3275 55.217 43.4934 C 51.8286 46.4585 49.0756 50.4826 44.6284 55.7773 C 50.3462 55.7773 53.7346 56.2009 57.1229 55.7773 C 72.1587 53.2359 87.1945 50.2707 102.23 47.7293 C 105.619 47.0939 109.007 46.2467 112.395 46.8821 C 115.36 47.3057 119.172 48.7882 120.866 51.1179 C 123.407 54.5066 121.29 58.3188 118.325 61.0721 C 115.572 63.6136 112.819 66.1551 109.642 68.273 C 90.7946 80.5568 72.1587 92.6289 53.311 104.913 C 50.3462 106.819 47.3814 108.937 42.5107 112.114 C 55.217 112.325 64.7467 105.125 77.6648 109.36 C 74.2764 112.537 72.3705 114.867 70.041 116.138 C 51.4051 125.245 31.4986 131.387 11.1685 135.622 C 2.69764 137.528 -1.96134 132.022 0.791693 123.55 C 2.06232 119.738 3.7565 115.926 6.29775 112.749 C 13.0744 103.854 20.0629 95.1704 27.2631 86.487 C 28.5338 85.0044 31.4986 83.7337 32.981 84.1573 C 36.1575 85.428 35.734 88.6048 34.2516 91.1463 C 31.075 96.6529 27.4749 102.159 24.0866 107.454 C 24.0866 107.031 24.5101 107.454 24.7219 107.666 Z" stroke-linecap="round" />
</g>
<g transform="matrix(NaN NaN NaN NaN 0 0)"  >
<g style=""   >
</g>
</g>
</svg>