<?xml version="1.0" encoding="UTF-8" standalone="no" ?>
<!DOCTYPE svg PUBLIC "-//W3C//DTD SVG 1.1//EN" "http://www.w3.org/Graphics/SVG/1.1/DTD/svg11.dtd">
<svg xmlns="http://www.w3.org/2000/svg" xmlns:xlink="http://www.w3.org/1999/xlink" version="1.1" width="1200" height="900" viewBox="0 0 1200 900" xml:space="preserve">
<desc>Created with Fabric.js 5.2.4</desc>
<defs>
</defs>
<g transform="matrix(0 0 0 0 0 0)" id="758df034-4c15-4705-9851-c8a090da0210"  >
</g>
<g transform="matrix(1 0 0 1 600 450)" id="0707273d-fd2e-466d-8c44-d73b46202798"  >
<rect style="stroke: none; stroke-width: 1; stroke-dasharray: none; stroke-linecap: butt; stroke-dashoffset: 0; stroke-linejoin: miter; stroke-miterlimit: 4; fill: rgb(255,255,255); fill-rule: nonzero; opacity: 1; visibility: hidden;" vector-effect="non-scaling-stroke"  x="-600" y="-450" rx="0" ry="0" width="1200" height="900" />
</g>
<g transform="matrix(1.12 0 0 1.12 600.18 450.14)"  >
<g style="" vector-effect="non-scaling-stroke"   >
		<g transform="matrix(1 0 0 1 -550 -400)"  >
<rect style="stroke: none; stroke-width: 1; stroke-dasharray: none; stroke-linecap: butt; stroke-dashoffset: 0; stroke-linejoin: miter; stroke-miterlimit: 4; fill: rgb(255,255,255); fill-opacity: 0; fill-rule: nonzero; opacity: 1;" vector-effect="non-scaling-stroke"  x="-50" y="-50" rx="0" ry="0" width="100" height="100" />
</g>
		<g transform="matrix(1 0 0 1 0 0)"  >
<rect style="stroke: none; stroke-width: 1; stroke-dasharray: none; stroke-linecap: butt; stroke-dashoffset: 0; stroke-linejoin: miter; stroke-miterlimit: 4; fill: rgb(255,255,255); fill-rule: nonzero; opacity: 1; visibility: hidden;" vector-effect="non-scaling-stroke"  x="-600" y="-450" rx="0" ry="0" width="1200" height="900" />
</g>
		<g transform="matrix(1.06 0 0 0.81 0 0)"  >
<rect style="stroke: none; stroke-width: 1; stroke-dasharray: none; stroke-linecap: butt; stroke-dashoffset: 0; stroke-linejoin: miter; stroke-miterlimit: 4; fill: rgb(255,255,255); fill-rule: nonzero; opacity: 1; visibility: hidden;" vector-effect="non-scaling-stroke"  x="-540" y="-540" rx="0" ry="0" width="1080" height="1080" />
</g>
		<g transform="matrix(3.19 0 0 2.44 -0.06 -35.71)"  >
<path style="stroke: rgb(0,0,0); stroke-width: 0; stroke-dasharray: none; stroke-linecap: butt; stroke-dashoffset: 0; stroke-linejoin: miter; stroke-miterlimit: 4; fill: rgb(128,237,153); fill-rule: nonzero; opacity: 1;" vector-effect="non-scaling-stroke"  transform=" translate(-93, -70.5)" d="M 97.434 112.265 C 100.403 109.095 104.434 105.715 107.191 101.7 C 112.918 93.2488 118.221 84.586 123.523 75.9232 C 133.492 59.4427 143.461 42.7509 154.279 24.7914 C 140.28 29.4397 129.886 41.2719 113.342 38.5251 C 114.827 35.9897 115.251 33.8768 116.312 33.4542 C 132.856 26.693 147.279 16.5511 160.854 5.35286 C 172.096 -3.73254 177.823 -1.19707 179.308 12.5367 C 180.792 26.9043 183.762 41.2719 185.883 55.6395 C 186.307 57.9637 185.459 60.4991 185.247 63.4572 C 176.126 59.2314 176.126 59.2314 168.49 27.7494 C 166.793 30.4962 165.308 32.6091 164.036 34.7219 C 151.521 56.4846 139.219 78.2473 126.281 99.7988 C 122.038 106.771 116.948 113.321 111.221 119.026 C 101.04 129.168 89.7981 128.745 80.2532 117.97 C 75.3748 112.476 71.7689 105.715 68.5873 98.9536 C 64.9815 91.3472 62.6483 83.107 59.4667 75.2893 C 57.1335 69.7958 54.164 64.5136 51.4066 58.8088 C 44.8312 61.3443 42.2859 66.2039 39.3164 70.641 C 26.8021 89.4456 17.4694 109.518 10.4698 131.069 C 9.62137 133.605 9.19715 136.352 7.71239 138.676 C 6.86396 139.944 4.53077 141 2.83391 141 C 1.98548 141 0.288608 138.676 0.0765002 137.408 C -0.135607 133.816 0.0765196 129.802 0.924951 126.421 C 6.86397 102.123 16.833 79.5151 31.0442 59.0201 C 33.8016 54.7943 37.4075 50.9911 41.2254 47.8218 C 48.225 42.117 55.2245 42.3283 60.9514 49.3008 C 65.6178 55.0056 69.0115 61.7668 71.981 68.5281 C 76.4353 78.4586 79.6169 88.8118 84.0712 98.7423 C 86.6165 104.025 89.586 109.518 97.434 112.265 Z" stroke-linecap="round" />
</g>
</g>
</g>
<g transform="matrix(0.08 0 0 0.08 330.17 616.13)"  >
<g style="" vector-effect="non-scaling-stroke"   >
		<g transform="matrix(0.78 0 0 0.78 -0.46 0.34)"  >
<path style="stroke: none; stroke-width: 1; stroke-dasharray: none; stroke-linecap: butt; stroke-dashoffset: 0; stroke-linejoin: miter; stroke-miterlimit: 4; fill: rgb(244,202,92); fill-rule: nonzero; opacity: 1;" vector-effect="non-scaling-stroke"  transform=" translate(-511.6, -512.8)" d="M 496 740.8 L 496 688.8 C 460.8 684.8 423.2 669.5999999999999 396.8 648 L 393.6 645.6 L 419.20000000000005 612.8000000000001 L 422.40000000000003 615.2 C 452.00000000000006 638.4000000000001 481.6 649.6 512 649.6 C 554.4 649.6 577.6 631.2 577.6 596.8000000000001 C 577.6 556.0000000000001 540 539.2 500.8 521.6 C 456 501.6 410.4 480.8 410.4 424.8 C 410.4 379.2 444.8 344 496 336 L 496 283.2 L 536.8 283.2 L 536.8 335.2 C 576.8 340 601.5999999999999 358.4 618.4 375.2 L 621.6 378.4 L 592.8000000000001 407.2 L 590.4000000000001 404.8 C 568.8000000000001 385.6 551.2 376 519.2 376 C 484.80000000000007 376 461.6 395.2 461.6 424.8 C 461.6 458.40000000000003 494.40000000000003 472.8 532 488.8 C 577.6 508.8 629.6 530.4 629.6 596 C 629.6 646.4 594.4 681.6 537.6 689.6 L 537.6 742.4 L 496 742.4 z" stroke-linecap="round" />
</g>
		<g transform="matrix(0.78 0 0 0.78 -0.52 -0.53)"  >
<path style="stroke: none; stroke-width: 1; stroke-dasharray: none; stroke-linecap: butt; stroke-dashoffset: 0; stroke-linejoin: miter; stroke-miterlimit: 4; fill: rgb(244,202,92); fill-rule: nonzero; opacity: 1;" vector-effect="non-scaling-stroke"  transform=" translate(-512, -512)" d="M 512 928.8 C 282.4 928.8 95.19999999999999 741.5999999999999 95.19999999999999 511.99999999999994 C 95.19999999999999 282.4 282.4 95.19999999999993 512 95.19999999999993 C 741.6 95.19999999999993 928.8 282.3999999999999 928.8 511.99999999999994 C 928.8 741.5999999999999 741.5999999999999 928.8 511.99999999999994 928.8 z M 512 137.5999999999999 C 305.6 137.5999999999999 137.60000000000002 305.5999999999999 137.60000000000002 511.9999999999999 C 137.60000000000002 718.3999999999999 305.6 886.3999999999999 512 886.3999999999999 C 718.4 886.3999999999999 886.4 718.3999999999999 886.4 511.9999999999999 C 886.4 305.5999999999999 718.4 137.5999999999999 512 137.5999999999999 z" stroke-linecap="round" />
</g>
		<g transform="matrix(0.78 0 0 0.78 -0.73 -0.42)"  >
<path style="stroke: none; stroke-width: 1; stroke-dasharray: none; stroke-linecap: butt; stroke-dashoffset: 0; stroke-linejoin: miter; stroke-miterlimit: 4; fill: rgb(244,202,92); fill-rule: nonzero; opacity: 1;" vector-effect="non-scaling-stroke"  transform=" translate(-511.6, -512)" d="M 512 853.6 C 500 853.6 490.4 844 490.4 832 C 490.4 820 500 810.4 512 810.4 C 676 810.4 809.6 676.8 809.6 512.8 C 809.6 467.19999999999993 799.2 423.19999999999993 779.2 382.4 C 776.8000000000001 376.79999999999995 776 371.2 778.4000000000001 365.59999999999997 C 780.0000000000001 359.99999999999994 784.0000000000001 355.99999999999994 789.6000000000001 352.79999999999995 C 792.8000000000002 351.19999999999993 796.0000000000001 350.4 799.2000000000002 350.4 C 808.0000000000001 350.4 815.2000000000002 355.2 818.4000000000002 362.4 C 841.6000000000003 409.59999999999997 852.8000000000002 459.2 852.8000000000002 512 C 853.6000000000001 700 700.0000000000002 853.6 512.0000000000002 853.6 z M 735.2 304.8 C 729.6 304.8 724 302.40000000000003 720 298.40000000000003 C 664 244.00000000000003 590.4 213.60000000000002 512 213.60000000000002 C 500 213.60000000000002 490.4 204.00000000000003 490.4 192.00000000000003 C 490.4 180.00000000000003 500 170.40000000000003 512 170.40000000000003 C 601.6 170.40000000000003 686.4 204.80000000000004 750.4 267.20000000000005 C 754.4 271.20000000000005 756.8 276.80000000000007 756.8 282.40000000000003 C 756.8 288 754.4 293.6 750.4 297.6 C 746.4 302.40000000000003 740.8 304.8 735.1999999999999 304.8 z M 388 828 C 384.8 828 382.4 827.2 379.2 826.4 C 252.8 772.8 170.4 649.6 170.4 512 C 170.4 379.2 248.8 256.8 369.6 201.60000000000002 C 372.8 200.00000000000003 375.20000000000005 200.00000000000003 378.40000000000003 200.00000000000003 C 387.20000000000005 200.00000000000003 394.40000000000003 204.80000000000004 398.40000000000003 212.80000000000004 C 403.20000000000005 224.00000000000003 398.40000000000003 236.80000000000004 388.00000000000006 241.60000000000005 C 282.4000000000001 289.6 214.40000000000006 396.00000000000006 214.40000000000006 512 C 214.40000000000006 632 285.6000000000001 740 396.80000000000007 786.4 C 402.4000000000001 788.8 406.4000000000001 792.8 408.80000000000007 798.4 C 411.20000000000005 804 411.20000000000005 809.6 408.80000000000007 815.1999999999999 C 404.00000000000006 823.1999999999999 396.80000000000007 827.9999999999999 388.00000000000006 827.9999999999999 z" stroke-linecap="round" />
</g>
</g>
</g>
<g transform="matrix(0.08 0 0 0.08 356.52 370)"  >
<g style="" vector-effect="non-scaling-stroke"   >
		<g transform="matrix(0.78 0 0 0.78 -0.46 0.34)"  >
<path style="stroke: none; stroke-width: 1; stroke-dasharray: none; stroke-linecap: butt; stroke-dashoffset: 0; stroke-linejoin: miter; stroke-miterlimit: 4; fill: rgb(245,203,92); fill-opacity: 0.99; fill-rule: nonzero; opacity: 1;" vector-effect="non-scaling-stroke"  transform=" translate(-511.6, -512.8)" d="M 496 740.8 L 496 688.8 C 460.8 684.8 423.2 669.5999999999999 396.8 648 L 393.6 645.6 L 419.20000000000005 612.8000000000001 L 422.40000000000003 615.2 C 452.00000000000006 638.4000000000001 481.6 649.6 512 649.6 C 554.4 649.6 577.6 631.2 577.6 596.8000000000001 C 577.6 556.0000000000001 540 539.2 500.8 521.6 C 456 501.6 410.4 480.8 410.4 424.8 C 410.4 379.2 444.8 344 496 336 L 496 283.2 L 536.8 283.2 L 536.8 335.2 C 576.8 340 601.5999999999999 358.4 618.4 375.2 L 621.6 378.4 L 592.8000000000001 407.2 L 590.4000000000001 404.8 C 568.8000000000001 385.6 551.2 376 519.2 376 C 484.80000000000007 376 461.6 395.2 461.6 424.8 C 461.6 458.40000000000003 494.40000000000003 472.8 532 488.8 C 577.6 508.8 629.6 530.4 629.6 596 C 629.6 646.4 594.4 681.6 537.6 689.6 L 537.6 742.4 L 496 742.4 z" stroke-linecap="round" />
</g>
		<g transform="matrix(0.78 0 0 0.78 -0.52 -0.53)"  >
<path style="stroke: none; stroke-width: 1; stroke-dasharray: none; stroke-linecap: butt; stroke-dashoffset: 0; stroke-linejoin: miter; stroke-miterlimit: 4; fill: rgb(245,203,92); fill-opacity: 0.99; fill-rule: nonzero; opacity: 1;" vector-effect="non-scaling-stroke"  transform=" translate(-512, -512)" d="M 512 928.8 C 282.4 928.8 95.19999999999999 741.5999999999999 95.19999999999999 511.99999999999994 C 95.19999999999999 282.4 282.4 95.19999999999993 512 95.19999999999993 C 741.6 95.19999999999993 928.8 282.3999999999999 928.8 511.99999999999994 C 928.8 741.5999999999999 741.5999999999999 928.8 511.99999999999994 928.8 z M 512 137.5999999999999 C 305.6 137.5999999999999 137.60000000000002 305.5999999999999 137.60000000000002 511.9999999999999 C 137.60000000000002 718.3999999999999 305.6 886.3999999999999 512 886.3999999999999 C 718.4 886.3999999999999 886.4 718.3999999999999 886.4 511.9999999999999 C 886.4 305.5999999999999 718.4 137.5999999999999 512 137.5999999999999 z" stroke-linecap="round" />
</g>
		<g transform="matrix(0.78 0 0 0.78 -0.73 -0.42)"  >
<path style="stroke: none; stroke-width: 1; stroke-dasharray: none; stroke-linecap: butt; stroke-dashoffset: 0; stroke-linejoin: miter; stroke-miterlimit: 4; fill: rgb(245,203,92); fill-opacity: 0.99; fill-rule: nonzero; opacity: 1;" vector-effect="non-scaling-stroke"  transform=" translate(-511.6, -512)" d="M 512 853.6 C 500 853.6 490.4 844 490.4 832 C 490.4 820 500 810.4 512 810.4 C 676 810.4 809.6 676.8 809.6 512.8 C 809.6 467.19999999999993 799.2 423.19999999999993 779.2 382.4 C 776.8000000000001 376.79999999999995 776 371.2 778.4000000000001 365.59999999999997 C 780.0000000000001 359.99999999999994 784.0000000000001 355.99999999999994 789.6000000000001 352.79999999999995 C 792.8000000000002 351.19999999999993 796.0000000000001 350.4 799.2000000000002 350.4 C 808.0000000000001 350.4 815.2000000000002 355.2 818.4000000000002 362.4 C 841.6000000000003 409.59999999999997 852.8000000000002 459.2 852.8000000000002 512 C 853.6000000000001 700 700.0000000000002 853.6 512.0000000000002 853.6 z M 735.2 304.8 C 729.6 304.8 724 302.40000000000003 720 298.40000000000003 C 664 244.00000000000003 590.4 213.60000000000002 512 213.60000000000002 C 500 213.60000000000002 490.4 204.00000000000003 490.4 192.00000000000003 C 490.4 180.00000000000003 500 170.40000000000003 512 170.40000000000003 C 601.6 170.40000000000003 686.4 204.80000000000004 750.4 267.20000000000005 C 754.4 271.20000000000005 756.8 276.80000000000007 756.8 282.40000000000003 C 756.8 288 754.4 293.6 750.4 297.6 C 746.4 302.40000000000003 740.8 304.8 735.1999999999999 304.8 z M 388 828 C 384.8 828 382.4 827.2 379.2 826.4 C 252.8 772.8 170.4 649.6 170.4 512 C 170.4 379.2 248.8 256.8 369.6 201.60000000000002 C 372.8 200.00000000000003 375.20000000000005 200.00000000000003 378.40000000000003 200.00000000000003 C 387.20000000000005 200.00000000000003 394.40000000000003 204.80000000000004 398.40000000000003 212.80000000000004 C 403.20000000000005 224.00000000000003 398.40000000000003 236.80000000000004 388.00000000000006 241.60000000000005 C 282.4000000000001 289.6 214.40000000000006 396.00000000000006 214.40000000000006 512 C 214.40000000000006 632 285.6000000000001 740 396.80000000000007 786.4 C 402.4000000000001 788.8 406.4000000000001 792.8 408.80000000000007 798.4 C 411.20000000000005 804 411.20000000000005 809.6 408.80000000000007 815.1999999999999 C 404.00000000000006 823.1999999999999 396.80000000000007 827.9999999999999 388.00000000000006 827.9999999999999 z" stroke-linecap="round" />
</g>
</g>
</g>
<g transform="matrix(0.12 0 0 0.12 583.92 451)"  >
<g style="" vector-effect="non-scaling-stroke"   >
		<g transform="matrix(0.78 0 0 0.78 -0.46 0.34)"  >
<path style="stroke: none; stroke-width: 1; stroke-dasharray: none; stroke-linecap: butt; stroke-dashoffset: 0; stroke-linejoin: miter; stroke-miterlimit: 4; fill: rgb(244,203,91); fill-opacity: 0.87; fill-rule: nonzero; opacity: 1;" vector-effect="non-scaling-stroke"  transform=" translate(-511.6, -512.8)" d="M 496 740.8 L 496 688.8 C 460.8 684.8 423.2 669.5999999999999 396.8 648 L 393.6 645.6 L 419.20000000000005 612.8000000000001 L 422.40000000000003 615.2 C 452.00000000000006 638.4000000000001 481.6 649.6 512 649.6 C 554.4 649.6 577.6 631.2 577.6 596.8000000000001 C 577.6 556.0000000000001 540 539.2 500.8 521.6 C 456 501.6 410.4 480.8 410.4 424.8 C 410.4 379.2 444.8 344 496 336 L 496 283.2 L 536.8 283.2 L 536.8 335.2 C 576.8 340 601.5999999999999 358.4 618.4 375.2 L 621.6 378.4 L 592.8000000000001 407.2 L 590.4000000000001 404.8 C 568.8000000000001 385.6 551.2 376 519.2 376 C 484.80000000000007 376 461.6 395.2 461.6 424.8 C 461.6 458.40000000000003 494.40000000000003 472.8 532 488.8 C 577.6 508.8 629.6 530.4 629.6 596 C 629.6 646.4 594.4 681.6 537.6 689.6 L 537.6 742.4 L 496 742.4 z" stroke-linecap="round" />
</g>
		<g transform="matrix(0.78 0 0 0.78 -0.52 -0.53)"  >
<path style="stroke: none; stroke-width: 1; stroke-dasharray: none; stroke-linecap: butt; stroke-dashoffset: 0; stroke-linejoin: miter; stroke-miterlimit: 4; fill: rgb(244,203,91); fill-opacity: 0.87; fill-rule: nonzero; opacity: 1;" vector-effect="non-scaling-stroke"  transform=" translate(-512, -512)" d="M 512 928.8 C 282.4 928.8 95.19999999999999 741.5999999999999 95.19999999999999 511.99999999999994 C 95.19999999999999 282.4 282.4 95.19999999999993 512 95.19999999999993 C 741.6 95.19999999999993 928.8 282.3999999999999 928.8 511.99999999999994 C 928.8 741.5999999999999 741.5999999999999 928.8 511.99999999999994 928.8 z M 512 137.5999999999999 C 305.6 137.5999999999999 137.60000000000002 305.5999999999999 137.60000000000002 511.9999999999999 C 137.60000000000002 718.3999999999999 305.6 886.3999999999999 512 886.3999999999999 C 718.4 886.3999999999999 886.4 718.3999999999999 886.4 511.9999999999999 C 886.4 305.5999999999999 718.4 137.5999999999999 512 137.5999999999999 z" stroke-linecap="round" />
</g>
		<g transform="matrix(0.78 0 0 0.78 -0.73 -0.42)"  >
<path style="stroke: none; stroke-width: 1; stroke-dasharray: none; stroke-linecap: butt; stroke-dashoffset: 0; stroke-linejoin: miter; stroke-miterlimit: 4; fill: rgb(244,203,91); fill-opacity: 0.87; fill-rule: nonzero; opacity: 1;" vector-effect="non-scaling-stroke"  transform=" translate(-511.6, -512)" d="M 512 853.6 C 500 853.6 490.4 844 490.4 832 C 490.4 820 500 810.4 512 810.4 C 676 810.4 809.6 676.8 809.6 512.8 C 809.6 467.19999999999993 799.2 423.19999999999993 779.2 382.4 C 776.8000000000001 376.79999999999995 776 371.2 778.4000000000001 365.59999999999997 C 780.0000000000001 359.99999999999994 784.0000000000001 355.99999999999994 789.6000000000001 352.79999999999995 C 792.8000000000002 351.19999999999993 796.0000000000001 350.4 799.2000000000002 350.4 C 808.0000000000001 350.4 815.2000000000002 355.2 818.4000000000002 362.4 C 841.6000000000003 409.59999999999997 852.8000000000002 459.2 852.8000000000002 512 C 853.6000000000001 700 700.0000000000002 853.6 512.0000000000002 853.6 z M 735.2 304.8 C 729.6 304.8 724 302.40000000000003 720 298.40000000000003 C 664 244.00000000000003 590.4 213.60000000000002 512 213.60000000000002 C 500 213.60000000000002 490.4 204.00000000000003 490.4 192.00000000000003 C 490.4 180.00000000000003 500 170.40000000000003 512 170.40000000000003 C 601.6 170.40000000000003 686.4 204.80000000000004 750.4 267.20000000000005 C 754.4 271.20000000000005 756.8 276.80000000000007 756.8 282.40000000000003 C 756.8 288 754.4 293.6 750.4 297.6 C 746.4 302.40000000000003 740.8 304.8 735.1999999999999 304.8 z M 388 828 C 384.8 828 382.4 827.2 379.2 826.4 C 252.8 772.8 170.4 649.6 170.4 512 C 170.4 379.2 248.8 256.8 369.6 201.60000000000002 C 372.8 200.00000000000003 375.20000000000005 200.00000000000003 378.40000000000003 200.00000000000003 C 387.20000000000005 200.00000000000003 394.40000000000003 204.80000000000004 398.40000000000003 212.80000000000004 C 403.20000000000005 224.00000000000003 398.40000000000003 236.80000000000004 388.00000000000006 241.60000000000005 C 282.4000000000001 289.6 214.40000000000006 396.00000000000006 214.40000000000006 512 C 214.40000000000006 632 285.6000000000001 740 396.80000000000007 786.4 C 402.4000000000001 788.8 406.4000000000001 792.8 408.80000000000007 798.4 C 411.20000000000005 804 411.20000000000005 809.6 408.80000000000007 815.1999999999999 C 404.00000000000006 823.1999999999999 396.80000000000007 827.9999999999999 388.00000000000006 827.9999999999999 z" stroke-linecap="round" />
</g>
</g>
</g>
<g transform="matrix(0.16 0 0 0.16 848.11 377.1)"  >
<g style="" vector-effect="non-scaling-stroke"   >
		<g transform="matrix(0.78 0 0 0.78 -0.46 0.34)"  >
<path style="stroke: none; stroke-width: 1; stroke-dasharray: none; stroke-linecap: butt; stroke-dashoffset: 0; stroke-linejoin: miter; stroke-miterlimit: 4; fill: rgb(245,203,92); fill-rule: nonzero; opacity: 1;" vector-effect="non-scaling-stroke"  transform=" translate(-511.6, -512.8)" d="M 496 740.8 L 496 688.8 C 460.8 684.8 423.2 669.5999999999999 396.8 648 L 393.6 645.6 L 419.20000000000005 612.8000000000001 L 422.40000000000003 615.2 C 452.00000000000006 638.4000000000001 481.6 649.6 512 649.6 C 554.4 649.6 577.6 631.2 577.6 596.8000000000001 C 577.6 556.0000000000001 540 539.2 500.8 521.6 C 456 501.6 410.4 480.8 410.4 424.8 C 410.4 379.2 444.8 344 496 336 L 496 283.2 L 536.8 283.2 L 536.8 335.2 C 576.8 340 601.5999999999999 358.4 618.4 375.2 L 621.6 378.4 L 592.8000000000001 407.2 L 590.4000000000001 404.8 C 568.8000000000001 385.6 551.2 376 519.2 376 C 484.80000000000007 376 461.6 395.2 461.6 424.8 C 461.6 458.40000000000003 494.40000000000003 472.8 532 488.8 C 577.6 508.8 629.6 530.4 629.6 596 C 629.6 646.4 594.4 681.6 537.6 689.6 L 537.6 742.4 L 496 742.4 z" stroke-linecap="round" />
</g>
		<g transform="matrix(0.78 0 0 0.78 -0.52 -0.53)"  >
<path style="stroke: none; stroke-width: 1; stroke-dasharray: none; stroke-linecap: butt; stroke-dashoffset: 0; stroke-linejoin: miter; stroke-miterlimit: 4; fill: rgb(245,203,92); fill-rule: nonzero; opacity: 1;" vector-effect="non-scaling-stroke"  transform=" translate(-512, -512)" d="M 512 928.8 C 282.4 928.8 95.19999999999999 741.5999999999999 95.19999999999999 511.99999999999994 C 95.19999999999999 282.4 282.4 95.19999999999993 512 95.19999999999993 C 741.6 95.19999999999993 928.8 282.3999999999999 928.8 511.99999999999994 C 928.8 741.5999999999999 741.5999999999999 928.8 511.99999999999994 928.8 z M 512 137.5999999999999 C 305.6 137.5999999999999 137.60000000000002 305.5999999999999 137.60000000000002 511.9999999999999 C 137.60000000000002 718.3999999999999 305.6 886.3999999999999 512 886.3999999999999 C 718.4 886.3999999999999 886.4 718.3999999999999 886.4 511.9999999999999 C 886.4 305.5999999999999 718.4 137.5999999999999 512 137.5999999999999 z" stroke-linecap="round" />
</g>
		<g transform="matrix(0.78 0 0 0.78 -0.73 -0.42)"  >
<path style="stroke: none; stroke-width: 1; stroke-dasharray: none; stroke-linecap: butt; stroke-dashoffset: 0; stroke-linejoin: miter; stroke-miterlimit: 4; fill: rgb(245,203,92); fill-rule: nonzero; opacity: 1;" vector-effect="non-scaling-stroke"  transform=" translate(-511.6, -512)" d="M 512 853.6 C 500 853.6 490.4 844 490.4 832 C 490.4 820 500 810.4 512 810.4 C 676 810.4 809.6 676.8 809.6 512.8 C 809.6 467.19999999999993 799.2 423.19999999999993 779.2 382.4 C 776.8000000000001 376.79999999999995 776 371.2 778.4000000000001 365.59999999999997 C 780.0000000000001 359.99999999999994 784.0000000000001 355.99999999999994 789.6000000000001 352.79999999999995 C 792.8000000000002 351.19999999999993 796.0000000000001 350.4 799.2000000000002 350.4 C 808.0000000000001 350.4 815.2000000000002 355.2 818.4000000000002 362.4 C 841.6000000000003 409.59999999999997 852.8000000000002 459.2 852.8000000000002 512 C 853.6000000000001 700 700.0000000000002 853.6 512.0000000000002 853.6 z M 735.2 304.8 C 729.6 304.8 724 302.40000000000003 720 298.40000000000003 C 664 244.00000000000003 590.4 213.60000000000002 512 213.60000000000002 C 500 213.60000000000002 490.4 204.00000000000003 490.4 192.00000000000003 C 490.4 180.00000000000003 500 170.40000000000003 512 170.40000000000003 C 601.6 170.40000000000003 686.4 204.80000000000004 750.4 267.20000000000005 C 754.4 271.20000000000005 756.8 276.80000000000007 756.8 282.40000000000003 C 756.8 288 754.4 293.6 750.4 297.6 C 746.4 302.40000000000003 740.8 304.8 735.1999999999999 304.8 z M 388 828 C 384.8 828 382.4 827.2 379.2 826.4 C 252.8 772.8 170.4 649.6 170.4 512 C 170.4 379.2 248.8 256.8 369.6 201.60000000000002 C 372.8 200.00000000000003 375.20000000000005 200.00000000000003 378.40000000000003 200.00000000000003 C 387.20000000000005 200.00000000000003 394.40000000000003 204.80000000000004 398.40000000000003 212.80000000000004 C 403.20000000000005 224.00000000000003 398.40000000000003 236.80000000000004 388.00000000000006 241.60000000000005 C 282.4000000000001 289.6 214.40000000000006 396.00000000000006 214.40000000000006 512 C 214.40000000000006 632 285.6000000000001 740 396.80000000000007 786.4 C 402.4000000000001 788.8 406.4000000000001 792.8 408.80000000000007 798.4 C 411.20000000000005 804 411.20000000000005 809.6 408.80000000000007 815.1999999999999 C 404.00000000000006 823.1999999999999 396.80000000000007 827.9999999999999 388.00000000000006 827.9999999999999 z" stroke-linecap="round" />
</g>
</g>
</g>
<g transform="matrix(NaN NaN NaN NaN 0 0)"  >
<g style=""   >
</g>
</g>
</svg>