<?xml version="1.0" encoding="UTF-8" standalone="no" ?>
<!DOCTYPE svg PUBLIC "-//W3C//DTD SVG 1.1//EN" "http://www.w3.org/Graphics/SVG/1.1/DTD/svg11.dtd">
<svg xmlns="http://www.w3.org/2000/svg" xmlns:xlink="http://www.w3.org/1999/xlink" version="1.1" width="1080" height="1920" viewBox="30 -255 1080 1920" xml:space="preserve">
<desc>Created with Fabric.js 5.2.4</desc>
<defs>
</defs>
<rect x="0" y="0" width="100%" height="100%" fill="transparent"></rect>
<g transform="matrix(0 0 0 0 0 0)" id="3b3a0fd7-6c77-4d6d-8212-3e116d6e2035"  >
</g>
<g transform="matrix(1 0 0 1 540 960)" id="c7ad04d0-e5db-46e6-b508-d1d743174c1e"  >
<rect style="stroke: none; stroke-width: 1; stroke-dasharray: none; stroke-linecap: butt; stroke-dashoffset: 0; stroke-linejoin: miter; stroke-miterlimit: 4; fill: rgb(182,18,18); fill-rule: nonzero; opacity: 1; visibility: hidden;" vector-effect="non-scaling-stroke"  x="-540" y="-960" rx="0" ry="0" width="1080" height="1920" />
</g>
<g transform="matrix(0 0 0 0 0 0)"  >
<g style=""   >
</g>
</g>
<g transform="matrix(3.92 -2.12 2.12 3.92 641.82 719.15)"  >
<path style="stroke: rgb(0,0,0); stroke-width: 0; stroke-dasharray: none; stroke-linecap: butt; stroke-dashoffset: 0; stroke-linejoin: miter; stroke-miterlimit: 4; fill: rgb(128,237,153); fill-rule: nonzero; opacity: 1;" vector-effect="non-scaling-stroke"  transform=" translate(-37.5, -87.5)" d="M 20.1871 175 C 15.7485 172.891 13.0008 172.469 12.1553 170.992 C 8.98489 165.508 5.39173 160.024 3.70083 153.908 C -1.37187 137.666 -0.737781 121.214 2.64402 104.762 C 8.35081 76.7092 21.0325 51.8201 36.8847 28.1966 C 38.5756 25.6655 40.0552 23.1344 41.7461 20.3924 C 41.7461 20.1814 41.5347 19.7596 41.112 19.1268 C 36.462 20.3923 31.6007 21.6579 26.9507 22.7125 C 24.4144 23.1344 21.4552 23.1344 18.9189 22.2907 C 17.4394 21.8688 15.3258 19.5486 15.3258 18.0722 C 15.3258 16.1739 16.8053 13.8537 18.0735 12.1663 C 19.1303 11.1117 21.0326 10.9008 22.7235 10.4789 C 35.4052 7.31508 48.087 3.72935 60.9801 0.776411 C 71.9709 -1.75468 75.564 1.83105 74.9299 12.5882 C 74.2959 23.7672 74.0845 34.9462 73.6618 45.9142 C 73.4505 49.289 72.8164 52.8747 72.3936 56.6714 C 63.5164 52.6638 63.5164 52.6638 60.346 18.494 C 47.0301 33.2588 38.1529 49.289 29.9098 65.7411 C 21.6666 82.1932 16.1712 99.489 13.2121 117.839 C 10.2531 136.823 13.8462 154.751 20.1871 175 Z" stroke-linecap="round" />
</g>
<g transform="matrix(0 0 0 0 0 0)"  >
<g style=""   >
</g>
</g>
<g transform="matrix(0.1 0 0 0.1 594.29 1058.23)"  >
<g style="" vector-effect="non-scaling-stroke"   >
		<g transform="matrix(0.78 0 0 0.78 -0.46 0.34)"  >
<path style="stroke: none; stroke-width: 1; stroke-dasharray: none; stroke-linecap: butt; stroke-dashoffset: 0; stroke-linejoin: miter; stroke-miterlimit: 4; fill: rgb(244,202,92); fill-rule: nonzero; opacity: 1;" vector-effect="non-scaling-stroke"  transform=" translate(-511.6, -512.8)" d="M 496 740.8 L 496 688.8 C 460.8 684.8 423.2 669.5999999999999 396.8 648 L 393.6 645.6 L 419.20000000000005 612.8000000000001 L 422.40000000000003 615.2 C 452.00000000000006 638.4000000000001 481.6 649.6 512 649.6 C 554.4 649.6 577.6 631.2 577.6 596.8000000000001 C 577.6 556.0000000000001 540 539.2 500.8 521.6 C 456 501.6 410.4 480.8 410.4 424.8 C 410.4 379.2 444.8 344 496 336 L 496 283.2 L 536.8 283.2 L 536.8 335.2 C 576.8 340 601.5999999999999 358.4 618.4 375.2 L 621.6 378.4 L 592.8000000000001 407.2 L 590.4000000000001 404.8 C 568.8000000000001 385.6 551.2 376 519.2 376 C 484.80000000000007 376 461.6 395.2 461.6 424.8 C 461.6 458.40000000000003 494.40000000000003 472.8 532 488.8 C 577.6 508.8 629.6 530.4 629.6 596 C 629.6 646.4 594.4 681.6 537.6 689.6 L 537.6 742.4 L 496 742.4 z" stroke-linecap="round" />
</g>
		<g transform="matrix(0.78 0 0 0.78 -0.52 -0.53)"  >
<path style="stroke: none; stroke-width: 1; stroke-dasharray: none; stroke-linecap: butt; stroke-dashoffset: 0; stroke-linejoin: miter; stroke-miterlimit: 4; fill: rgb(244,202,92); fill-rule: nonzero; opacity: 1;" vector-effect="non-scaling-stroke"  transform=" translate(-512, -512)" d="M 512 928.8 C 282.4 928.8 95.19999999999999 741.5999999999999 95.19999999999999 511.99999999999994 C 95.19999999999999 282.4 282.4 95.19999999999993 512 95.19999999999993 C 741.6 95.19999999999993 928.8 282.3999999999999 928.8 511.99999999999994 C 928.8 741.5999999999999 741.5999999999999 928.8 511.99999999999994 928.8 z M 512 137.5999999999999 C 305.6 137.5999999999999 137.60000000000002 305.5999999999999 137.60000000000002 511.9999999999999 C 137.60000000000002 718.3999999999999 305.6 886.3999999999999 512 886.3999999999999 C 718.4 886.3999999999999 886.4 718.3999999999999 886.4 511.9999999999999 C 886.4 305.5999999999999 718.4 137.5999999999999 512 137.5999999999999 z" stroke-linecap="round" />
</g>
		<g transform="matrix(0.78 0 0 0.78 -0.73 -0.42)"  >
<path style="stroke: none; stroke-width: 1; stroke-dasharray: none; stroke-linecap: butt; stroke-dashoffset: 0; stroke-linejoin: miter; stroke-miterlimit: 4; fill: rgb(244,202,92); fill-rule: nonzero; opacity: 1;" vector-effect="non-scaling-stroke"  transform=" translate(-511.6, -512)" d="M 512 853.6 C 500 853.6 490.4 844 490.4 832 C 490.4 820 500 810.4 512 810.4 C 676 810.4 809.6 676.8 809.6 512.8 C 809.6 467.19999999999993 799.2 423.19999999999993 779.2 382.4 C 776.8000000000001 376.79999999999995 776 371.2 778.4000000000001 365.59999999999997 C 780.0000000000001 359.99999999999994 784.0000000000001 355.99999999999994 789.6000000000001 352.79999999999995 C 792.8000000000002 351.19999999999993 796.0000000000001 350.4 799.2000000000002 350.4 C 808.0000000000001 350.4 815.2000000000002 355.2 818.4000000000002 362.4 C 841.6000000000003 409.59999999999997 852.8000000000002 459.2 852.8000000000002 512 C 853.6000000000001 700 700.0000000000002 853.6 512.0000000000002 853.6 z M 735.2 304.8 C 729.6 304.8 724 302.40000000000003 720 298.40000000000003 C 664 244.00000000000003 590.4 213.60000000000002 512 213.60000000000002 C 500 213.60000000000002 490.4 204.00000000000003 490.4 192.00000000000003 C 490.4 180.00000000000003 500 170.40000000000003 512 170.40000000000003 C 601.6 170.40000000000003 686.4 204.80000000000004 750.4 267.20000000000005 C 754.4 271.20000000000005 756.8 276.80000000000007 756.8 282.40000000000003 C 756.8 288 754.4 293.6 750.4 297.6 C 746.4 302.40000000000003 740.8 304.8 735.1999999999999 304.8 z M 388 828 C 384.8 828 382.4 827.2 379.2 826.4 C 252.8 772.8 170.4 649.6 170.4 512 C 170.4 379.2 248.8 256.8 369.6 201.60000000000002 C 372.8 200.00000000000003 375.20000000000005 200.00000000000003 378.40000000000003 200.00000000000003 C 387.20000000000005 200.00000000000003 394.40000000000003 204.80000000000004 398.40000000000003 212.80000000000004 C 403.20000000000005 224.00000000000003 398.40000000000003 236.80000000000004 388.00000000000006 241.60000000000005 C 282.4000000000001 289.6 214.40000000000006 396.00000000000006 214.40000000000006 512 C 214.40000000000006 632 285.6000000000001 740 396.80000000000007 786.4 C 402.4000000000001 788.8 406.4000000000001 792.8 408.80000000000007 798.4 C 411.20000000000005 804 411.20000000000005 809.6 408.80000000000007 815.1999999999999 C 404.00000000000006 823.1999999999999 396.80000000000007 827.9999999999999 388.00000000000006 827.9999999999999 z" stroke-linecap="round" />
</g>
</g>
</g>
<g transform="matrix(0.1 0 0 0.1 684.42 920.89)"  >
<g style="" vector-effect="non-scaling-stroke"   >
		<g transform="matrix(0.78 0 0 0.78 -0.46 0.34)"  >
<path style="stroke: none; stroke-width: 1; stroke-dasharray: none; stroke-linecap: butt; stroke-dashoffset: 0; stroke-linejoin: miter; stroke-miterlimit: 4; fill: rgb(244,202,92); fill-rule: nonzero; opacity: 1;" vector-effect="non-scaling-stroke"  transform=" translate(-511.6, -512.8)" d="M 496 740.8 L 496 688.8 C 460.8 684.8 423.2 669.5999999999999 396.8 648 L 393.6 645.6 L 419.20000000000005 612.8000000000001 L 422.40000000000003 615.2 C 452.00000000000006 638.4000000000001 481.6 649.6 512 649.6 C 554.4 649.6 577.6 631.2 577.6 596.8000000000001 C 577.6 556.0000000000001 540 539.2 500.8 521.6 C 456 501.6 410.4 480.8 410.4 424.8 C 410.4 379.2 444.8 344 496 336 L 496 283.2 L 536.8 283.2 L 536.8 335.2 C 576.8 340 601.5999999999999 358.4 618.4 375.2 L 621.6 378.4 L 592.8000000000001 407.2 L 590.4000000000001 404.8 C 568.8000000000001 385.6 551.2 376 519.2 376 C 484.80000000000007 376 461.6 395.2 461.6 424.8 C 461.6 458.40000000000003 494.40000000000003 472.8 532 488.8 C 577.6 508.8 629.6 530.4 629.6 596 C 629.6 646.4 594.4 681.6 537.6 689.6 L 537.6 742.4 L 496 742.4 z" stroke-linecap="round" />
</g>
		<g transform="matrix(0.78 0 0 0.78 -0.52 -0.53)"  >
<path style="stroke: none; stroke-width: 1; stroke-dasharray: none; stroke-linecap: butt; stroke-dashoffset: 0; stroke-linejoin: miter; stroke-miterlimit: 4; fill: rgb(244,202,92); fill-rule: nonzero; opacity: 1;" vector-effect="non-scaling-stroke"  transform=" translate(-512, -512)" d="M 512 928.8 C 282.4 928.8 95.19999999999999 741.5999999999999 95.19999999999999 511.99999999999994 C 95.19999999999999 282.4 282.4 95.19999999999993 512 95.19999999999993 C 741.6 95.19999999999993 928.8 282.3999999999999 928.8 511.99999999999994 C 928.8 741.5999999999999 741.5999999999999 928.8 511.99999999999994 928.8 z M 512 137.5999999999999 C 305.6 137.5999999999999 137.60000000000002 305.5999999999999 137.60000000000002 511.9999999999999 C 137.60000000000002 718.3999999999999 305.6 886.3999999999999 512 886.3999999999999 C 718.4 886.3999999999999 886.4 718.3999999999999 886.4 511.9999999999999 C 886.4 305.5999999999999 718.4 137.5999999999999 512 137.5999999999999 z" stroke-linecap="round" />
</g>
		<g transform="matrix(0.78 0 0 0.78 -0.73 -0.42)"  >
<path style="stroke: none; stroke-width: 1; stroke-dasharray: none; stroke-linecap: butt; stroke-dashoffset: 0; stroke-linejoin: miter; stroke-miterlimit: 4; fill: rgb(244,202,92); fill-rule: nonzero; opacity: 1;" vector-effect="non-scaling-stroke"  transform=" translate(-511.6, -512)" d="M 512 853.6 C 500 853.6 490.4 844 490.4 832 C 490.4 820 500 810.4 512 810.4 C 676 810.4 809.6 676.8 809.6 512.8 C 809.6 467.19999999999993 799.2 423.19999999999993 779.2 382.4 C 776.8000000000001 376.79999999999995 776 371.2 778.4000000000001 365.59999999999997 C 780.0000000000001 359.99999999999994 784.0000000000001 355.99999999999994 789.6000000000001 352.79999999999995 C 792.8000000000002 351.19999999999993 796.0000000000001 350.4 799.2000000000002 350.4 C 808.0000000000001 350.4 815.2000000000002 355.2 818.4000000000002 362.4 C 841.6000000000003 409.59999999999997 852.8000000000002 459.2 852.8000000000002 512 C 853.6000000000001 700 700.0000000000002 853.6 512.0000000000002 853.6 z M 735.2 304.8 C 729.6 304.8 724 302.40000000000003 720 298.40000000000003 C 664 244.00000000000003 590.4 213.60000000000002 512 213.60000000000002 C 500 213.60000000000002 490.4 204.00000000000003 490.4 192.00000000000003 C 490.4 180.00000000000003 500 170.40000000000003 512 170.40000000000003 C 601.6 170.40000000000003 686.4 204.80000000000004 750.4 267.20000000000005 C 754.4 271.20000000000005 756.8 276.80000000000007 756.8 282.40000000000003 C 756.8 288 754.4 293.6 750.4 297.6 C 746.4 302.40000000000003 740.8 304.8 735.1999999999999 304.8 z M 388 828 C 384.8 828 382.4 827.2 379.2 826.4 C 252.8 772.8 170.4 649.6 170.4 512 C 170.4 379.2 248.8 256.8 369.6 201.60000000000002 C 372.8 200.00000000000003 375.20000000000005 200.00000000000003 378.40000000000003 200.00000000000003 C 387.20000000000005 200.00000000000003 394.40000000000003 204.80000000000004 398.40000000000003 212.80000000000004 C 403.20000000000005 224.00000000000003 398.40000000000003 236.80000000000004 388.00000000000006 241.60000000000005 C 282.4000000000001 289.6 214.40000000000006 396.00000000000006 214.40000000000006 512 C 214.40000000000006 632 285.6000000000001 740 396.80000000000007 786.4 C 402.4000000000001 788.8 406.4000000000001 792.8 408.80000000000007 798.4 C 411.20000000000005 804 411.20000000000005 809.6 408.80000000000007 815.1999999999999 C 404.00000000000006 823.1999999999999 396.80000000000007 827.9999999999999 388.00000000000006 827.9999999999999 z" stroke-linecap="round" />
</g>
</g>
</g>
<g transform="matrix(0.17 0 0 0.17 495.96 770.54)"  >
<g style="" vector-effect="non-scaling-stroke"   >
		<g transform="matrix(0.78 0 0 0.78 -0.46 0.34)"  >
<path style="stroke: none; stroke-width: 1; stroke-dasharray: none; stroke-linecap: butt; stroke-dashoffset: 0; stroke-linejoin: miter; stroke-miterlimit: 4; fill: rgb(245,203,92); fill-rule: nonzero; opacity: 1;" vector-effect="non-scaling-stroke"  transform=" translate(-511.6, -512.8)" d="M 496 740.8 L 496 688.8 C 460.8 684.8 423.2 669.5999999999999 396.8 648 L 393.6 645.6 L 419.20000000000005 612.8000000000001 L 422.40000000000003 615.2 C 452.00000000000006 638.4000000000001 481.6 649.6 512 649.6 C 554.4 649.6 577.6 631.2 577.6 596.8000000000001 C 577.6 556.0000000000001 540 539.2 500.8 521.6 C 456 501.6 410.4 480.8 410.4 424.8 C 410.4 379.2 444.8 344 496 336 L 496 283.2 L 536.8 283.2 L 536.8 335.2 C 576.8 340 601.5999999999999 358.4 618.4 375.2 L 621.6 378.4 L 592.8000000000001 407.2 L 590.4000000000001 404.8 C 568.8000000000001 385.6 551.2 376 519.2 376 C 484.80000000000007 376 461.6 395.2 461.6 424.8 C 461.6 458.40000000000003 494.40000000000003 472.8 532 488.8 C 577.6 508.8 629.6 530.4 629.6 596 C 629.6 646.4 594.4 681.6 537.6 689.6 L 537.6 742.4 L 496 742.4 z" stroke-linecap="round" />
</g>
		<g transform="matrix(0.78 0 0 0.78 -0.52 -0.53)"  >
<path style="stroke: none; stroke-width: 1; stroke-dasharray: none; stroke-linecap: butt; stroke-dashoffset: 0; stroke-linejoin: miter; stroke-miterlimit: 4; fill: rgb(245,203,92); fill-rule: nonzero; opacity: 1;" vector-effect="non-scaling-stroke"  transform=" translate(-512, -512)" d="M 512 928.8 C 282.4 928.8 95.19999999999999 741.5999999999999 95.19999999999999 511.99999999999994 C 95.19999999999999 282.4 282.4 95.19999999999993 512 95.19999999999993 C 741.6 95.19999999999993 928.8 282.3999999999999 928.8 511.99999999999994 C 928.8 741.5999999999999 741.5999999999999 928.8 511.99999999999994 928.8 z M 512 137.5999999999999 C 305.6 137.5999999999999 137.60000000000002 305.5999999999999 137.60000000000002 511.9999999999999 C 137.60000000000002 718.3999999999999 305.6 886.3999999999999 512 886.3999999999999 C 718.4 886.3999999999999 886.4 718.3999999999999 886.4 511.9999999999999 C 886.4 305.5999999999999 718.4 137.5999999999999 512 137.5999999999999 z" stroke-linecap="round" />
</g>
		<g transform="matrix(0.78 0 0 0.78 -0.73 -0.42)"  >
<path style="stroke: none; stroke-width: 1; stroke-dasharray: none; stroke-linecap: butt; stroke-dashoffset: 0; stroke-linejoin: miter; stroke-miterlimit: 4; fill: rgb(245,203,92); fill-rule: nonzero; opacity: 1;" vector-effect="non-scaling-stroke"  transform=" translate(-511.6, -512)" d="M 512 853.6 C 500 853.6 490.4 844 490.4 832 C 490.4 820 500 810.4 512 810.4 C 676 810.4 809.6 676.8 809.6 512.8 C 809.6 467.19999999999993 799.2 423.19999999999993 779.2 382.4 C 776.8000000000001 376.79999999999995 776 371.2 778.4000000000001 365.59999999999997 C 780.0000000000001 359.99999999999994 784.0000000000001 355.99999999999994 789.6000000000001 352.79999999999995 C 792.8000000000002 351.19999999999993 796.0000000000001 350.4 799.2000000000002 350.4 C 808.0000000000001 350.4 815.2000000000002 355.2 818.4000000000002 362.4 C 841.6000000000003 409.59999999999997 852.8000000000002 459.2 852.8000000000002 512 C 853.6000000000001 700 700.0000000000002 853.6 512.0000000000002 853.6 z M 735.2 304.8 C 729.6 304.8 724 302.40000000000003 720 298.40000000000003 C 664 244.00000000000003 590.4 213.60000000000002 512 213.60000000000002 C 500 213.60000000000002 490.4 204.00000000000003 490.4 192.00000000000003 C 490.4 180.00000000000003 500 170.40000000000003 512 170.40000000000003 C 601.6 170.40000000000003 686.4 204.80000000000004 750.4 267.20000000000005 C 754.4 271.20000000000005 756.8 276.80000000000007 756.8 282.40000000000003 C 756.8 288 754.4 293.6 750.4 297.6 C 746.4 302.40000000000003 740.8 304.8 735.1999999999999 304.8 z M 388 828 C 384.8 828 382.4 827.2 379.2 826.4 C 252.8 772.8 170.4 649.6 170.4 512 C 170.4 379.2 248.8 256.8 369.6 201.60000000000002 C 372.8 200.00000000000003 375.20000000000005 200.00000000000003 378.40000000000003 200.00000000000003 C 387.20000000000005 200.00000000000003 394.40000000000003 204.80000000000004 398.40000000000003 212.80000000000004 C 403.20000000000005 224.00000000000003 398.40000000000003 236.80000000000004 388.00000000000006 241.60000000000005 C 282.4000000000001 289.6 214.40000000000006 396.00000000000006 214.40000000000006 512 C 214.40000000000006 632 285.6000000000001 740 396.80000000000007 786.4 C 402.4000000000001 788.8 406.4000000000001 792.8 408.80000000000007 798.4 C 411.20000000000005 804 411.20000000000005 809.6 408.80000000000007 815.1999999999999 C 404.00000000000006 823.1999999999999 396.80000000000007 827.9999999999999 388.00000000000006 827.9999999999999 z" stroke-linecap="round" />
</g>
</g>
</g>
<g transform="matrix(0.22 0 0 0.22 604.99 502.16)"  >
<g style="" vector-effect="non-scaling-stroke"   >
		<g transform="matrix(0.78 0 0 0.78 -0.46 0.34)"  >
<path style="stroke: none; stroke-width: 1; stroke-dasharray: none; stroke-linecap: butt; stroke-dashoffset: 0; stroke-linejoin: miter; stroke-miterlimit: 4; fill: rgb(245,203,92); fill-rule: nonzero; opacity: 1;" vector-effect="non-scaling-stroke"  transform=" translate(-511.6, -512.8)" d="M 496 740.8 L 496 688.8 C 460.8 684.8 423.2 669.5999999999999 396.8 648 L 393.6 645.6 L 419.20000000000005 612.8000000000001 L 422.40000000000003 615.2 C 452.00000000000006 638.4000000000001 481.6 649.6 512 649.6 C 554.4 649.6 577.6 631.2 577.6 596.8000000000001 C 577.6 556.0000000000001 540 539.2 500.8 521.6 C 456 501.6 410.4 480.8 410.4 424.8 C 410.4 379.2 444.8 344 496 336 L 496 283.2 L 536.8 283.2 L 536.8 335.2 C 576.8 340 601.5999999999999 358.4 618.4 375.2 L 621.6 378.4 L 592.8000000000001 407.2 L 590.4000000000001 404.8 C 568.8000000000001 385.6 551.2 376 519.2 376 C 484.80000000000007 376 461.6 395.2 461.6 424.8 C 461.6 458.40000000000003 494.40000000000003 472.8 532 488.8 C 577.6 508.8 629.6 530.4 629.6 596 C 629.6 646.4 594.4 681.6 537.6 689.6 L 537.6 742.4 L 496 742.4 z" stroke-linecap="round" />
</g>
		<g transform="matrix(0.78 0 0 0.78 -0.52 -0.53)"  >
<path style="stroke: none; stroke-width: 1; stroke-dasharray: none; stroke-linecap: butt; stroke-dashoffset: 0; stroke-linejoin: miter; stroke-miterlimit: 4; fill: rgb(245,203,92); fill-rule: nonzero; opacity: 1;" vector-effect="non-scaling-stroke"  transform=" translate(-512, -512)" d="M 512 928.8 C 282.4 928.8 95.19999999999999 741.5999999999999 95.19999999999999 511.99999999999994 C 95.19999999999999 282.4 282.4 95.19999999999993 512 95.19999999999993 C 741.6 95.19999999999993 928.8 282.3999999999999 928.8 511.99999999999994 C 928.8 741.5999999999999 741.5999999999999 928.8 511.99999999999994 928.8 z M 512 137.5999999999999 C 305.6 137.5999999999999 137.60000000000002 305.5999999999999 137.60000000000002 511.9999999999999 C 137.60000000000002 718.3999999999999 305.6 886.3999999999999 512 886.3999999999999 C 718.4 886.3999999999999 886.4 718.3999999999999 886.4 511.9999999999999 C 886.4 305.5999999999999 718.4 137.5999999999999 512 137.5999999999999 z" stroke-linecap="round" />
</g>
		<g transform="matrix(0.78 0 0 0.78 -0.73 -0.42)"  >
<path style="stroke: none; stroke-width: 1; stroke-dasharray: none; stroke-linecap: butt; stroke-dashoffset: 0; stroke-linejoin: miter; stroke-miterlimit: 4; fill: rgb(245,203,92); fill-rule: nonzero; opacity: 1;" vector-effect="non-scaling-stroke"  transform=" translate(-511.6, -512)" d="M 512 853.6 C 500 853.6 490.4 844 490.4 832 C 490.4 820 500 810.4 512 810.4 C 676 810.4 809.6 676.8 809.6 512.8 C 809.6 467.19999999999993 799.2 423.19999999999993 779.2 382.4 C 776.8000000000001 376.79999999999995 776 371.2 778.4000000000001 365.59999999999997 C 780.0000000000001 359.99999999999994 784.0000000000001 355.99999999999994 789.6000000000001 352.79999999999995 C 792.8000000000002 351.19999999999993 796.0000000000001 350.4 799.2000000000002 350.4 C 808.0000000000001 350.4 815.2000000000002 355.2 818.4000000000002 362.4 C 841.6000000000003 409.59999999999997 852.8000000000002 459.2 852.8000000000002 512 C 853.6000000000001 700 700.0000000000002 853.6 512.0000000000002 853.6 z M 735.2 304.8 C 729.6 304.8 724 302.40000000000003 720 298.40000000000003 C 664 244.00000000000003 590.4 213.60000000000002 512 213.60000000000002 C 500 213.60000000000002 490.4 204.00000000000003 490.4 192.00000000000003 C 490.4 180.00000000000003 500 170.40000000000003 512 170.40000000000003 C 601.6 170.40000000000003 686.4 204.80000000000004 750.4 267.20000000000005 C 754.4 271.20000000000005 756.8 276.80000000000007 756.8 282.40000000000003 C 756.8 288 754.4 293.6 750.4 297.6 C 746.4 302.40000000000003 740.8 304.8 735.1999999999999 304.8 z M 388 828 C 384.8 828 382.4 827.2 379.2 826.4 C 252.8 772.8 170.4 649.6 170.4 512 C 170.4 379.2 248.8 256.8 369.6 201.60000000000002 C 372.8 200.00000000000003 375.20000000000005 200.00000000000003 378.40000000000003 200.00000000000003 C 387.20000000000005 200.00000000000003 394.40000000000003 204.80000000000004 398.40000000000003 212.80000000000004 C 403.20000000000005 224.00000000000003 398.40000000000003 236.80000000000004 388.00000000000006 241.60000000000005 C 282.4000000000001 289.6 214.40000000000006 396.00000000000006 214.40000000000006 512 C 214.40000000000006 632 285.6000000000001 740 396.80000000000007 786.4 C 402.4000000000001 788.8 406.4000000000001 792.8 408.80000000000007 798.4 C 411.20000000000005 804 411.20000000000005 809.6 408.80000000000007 815.1999999999999 C 404.00000000000006 823.1999999999999 396.80000000000007 827.9999999999999 388.00000000000006 827.9999999999999 z" stroke-linecap="round" />
</g>
</g>
</g>
<g transform="matrix(0 0 0 0 0 0)"  >
<g style=""   >
</g>
</g>
<g transform="matrix(NaN NaN NaN NaN 0 0)"  >
<g style=""   >
</g>
</g>
</svg>