<?xml version="1.0" encoding="UTF-8" standalone="no" ?>
<!DOCTYPE svg PUBLIC "-//W3C//DTD SVG 1.1//EN" "http://www.w3.org/Graphics/SVG/1.1/DTD/svg11.dtd">
<svg xmlns="http://www.w3.org/2000/svg" xmlns:xlink="http://www.w3.org/1999/xlink" version="1.1" width="1200" height="900" viewBox="0 0 1200 900" xml:space="preserve">
<desc>Created with Fabric.js 5.2.4</desc>
<defs>
</defs>
<rect x="0" y="0" width="100%" height="100%" fill="transparent"></rect>
<g transform="matrix(1 0 0 1 600 450)" id="c7ad04d0-e5db-46e6-b508-d1d743174c1e"  >
<rect style="stroke: none; stroke-width: 1; stroke-dasharray: none; stroke-linecap: butt; stroke-dashoffset: 0; stroke-linejoin: miter; stroke-miterlimit: 4; fill: rgb(255,255,255); fill-rule: nonzero; opacity: 1; visibility: hidden;" vector-effect="non-scaling-stroke"  x="-600" y="-450" rx="0" ry="0" width="1200" height="900" />
</g>
<g transform="matrix(Infinity NaN NaN Infinity 0 0)" id="3b3a0fd7-6c77-4d6d-8212-3e116d6e2035"  >
</g>
<g transform="matrix(1.06 0 0 0.81 600 450)"  >
<g style="" vector-effect="non-scaling-stroke"   >
		<g transform="matrix(1 0 0 1 0 0)"  >
<rect style="stroke: none; stroke-width: 1; stroke-dasharray: none; stroke-linecap: butt; stroke-dashoffset: 0; stroke-linejoin: miter; stroke-miterlimit: 4; fill: rgb(255,255,255); fill-rule: nonzero; opacity: 1; visibility: hidden;" vector-effect="non-scaling-stroke"  x="-540" y="-540" rx="0" ry="0" width="1080" height="1080" />
</g>
		<g transform="matrix(3.01 0 0 3.01 0 -44.25)"  >
<path style="stroke: rgb(0,0,0); stroke-width: 0; stroke-dasharray: none; stroke-linecap: butt; stroke-dashoffset: 0; stroke-linejoin: miter; stroke-miterlimit: 4; fill: rgb(128,237,153); fill-rule: nonzero; opacity: 1;" vector-effect="non-scaling-stroke"  transform=" translate(-93, -70.5)" d="M 97.434 112.265 C 100.403 109.095 104.434 105.715 107.191 101.7 C 112.918 93.2488 118.221 84.586 123.523 75.9232 C 133.492 59.4427 143.461 42.7509 154.279 24.7914 C 140.28 29.4397 129.886 41.2719 113.342 38.5251 C 114.827 35.9897 115.251 33.8768 116.312 33.4542 C 132.856 26.693 147.279 16.5511 160.854 5.35286 C 172.096 -3.73254 177.823 -1.19707 179.308 12.5367 C 180.792 26.9043 183.762 41.2719 185.883 55.6395 C 186.307 57.9637 185.459 60.4991 185.247 63.4572 C 176.126 59.2314 176.126 59.2314 168.49 27.7494 C 166.793 30.4962 165.308 32.6091 164.036 34.7219 C 151.521 56.4846 139.219 78.2473 126.281 99.7988 C 122.038 106.771 116.948 113.321 111.221 119.026 C 101.04 129.168 89.7981 128.745 80.2532 117.97 C 75.3748 112.476 71.7689 105.715 68.5873 98.9536 C 64.9815 91.3472 62.6483 83.107 59.4667 75.2893 C 57.1335 69.7958 54.164 64.5136 51.4066 58.8088 C 44.8312 61.3443 42.2859 66.2039 39.3164 70.641 C 26.8021 89.4456 17.4694 109.518 10.4698 131.069 C 9.62137 133.605 9.19715 136.352 7.71239 138.676 C 6.86396 139.944 4.53077 141 2.83391 141 C 1.98548 141 0.288608 138.676 0.0765002 137.408 C -0.135607 133.816 0.0765196 129.802 0.924951 126.421 C 6.86397 102.123 16.833 79.5151 31.0442 59.0201 C 33.8016 54.7943 37.4075 50.9911 41.2254 47.8218 C 48.225 42.117 55.2245 42.3283 60.9514 49.3008 C 65.6178 55.0056 69.0115 61.7668 71.981 68.5281 C 76.4353 78.4586 79.6169 88.8118 84.0712 98.7423 C 86.6165 104.025 89.586 109.518 97.434 112.265 Z" stroke-linecap="round" />
</g>
</g>
</g>
</svg>