<?xml version="1.0" encoding="UTF-8" standalone="no" ?>
<!DOCTYPE svg PUBLIC "-//W3C//DTD SVG 1.1//EN" "http://www.w3.org/Graphics/SVG/1.1/DTD/svg11.dtd">
<svg xmlns="http://www.w3.org/2000/svg" xmlns:xlink="http://www.w3.org/1999/xlink" version="1.1" width="900" height="900" viewBox="0 0 900 900" xml:space="preserve">
<desc>Created with Fabric.js 5.2.4</desc>
<defs>
</defs>
<rect x="0" y="0" width="100%" height="100%" fill="transparent"></rect>
<g transform="matrix(1 0 0 1 450 450)" id="89089623-730e-4f61-a449-9b2ec0b2a641"  >
<rect style="stroke: none; stroke-width: 1; stroke-dasharray: none; stroke-linecap: butt; stroke-dashoffset: 0; stroke-linejoin: miter; stroke-miterlimit: 4; fill: rgb(255,255,255); fill-rule: nonzero; opacity: 1; visibility: hidden;" vector-effect="non-scaling-stroke"  x="-450" y="-450" rx="0" ry="0" width="900" height="900" />
</g>
<g transform="matrix(0 0 0 0 0 0)" id="d4f351b7-3387-42d7-9771-fab92fd084c9"  >
</g>
<g transform="matrix(2.77 0 0 2.77 899.28 899.28)"  >
<rect style="stroke: none; stroke-width: 1; stroke-dasharray: none; stroke-linecap: butt; stroke-dashoffset: 0; stroke-linejoin: miter; stroke-miterlimit: 4; fill: rgb(255,255,255); fill-rule: nonzero; opacity: 1; visibility: hidden;" vector-effect="non-scaling-stroke"  x="-200" y="-200" rx="0" ry="0" width="400" height="400" />
</g>
<g transform="matrix(0 0 0 0 0 0)"  >
<g style=""   >
</g>
</g>
<g transform="matrix(0 0 0 0 0 0)"  >
<g style=""   >
</g>
</g>
<g transform="matrix(52.94 0 0 52.94 477.71 449.98)"  >
<path style="stroke: rgb(0,0,0); stroke-width: 0; stroke-dasharray: none; stroke-linecap: butt; stroke-dashoffset: 0; stroke-linejoin: miter; stroke-miterlimit: 4; fill: rgb(128,237,153); fill-rule: nonzero; opacity: 1;" vector-effect="non-scaling-stroke"  transform=" translate(-8, -8)" d="M 13.58 11.6 L 12.25 9.42 L 12.25 6.33 C 12.346534597621119 4.653202528608953 11.471324581050158 3.070044854189482 10 2.26 C 10.009837943301967 2.133524356613095 10.009837943301967 2.0064756433869047 10 1.8800000000000001 C 9.984330791628 1.3653969882427874 9.764751898193774 0.8781263537650554 9.389624126515644 0.5255062483876125 C 9.014496354837512 0.17288614301016958 8.5145877882555 -0.01616143492736355 8 0 C 7.4854122117444994 -0.01616143492736334 6.985503645162487 0.1728861430101699 6.610375873484356 0.525506248387613 C 6.235248101806225 0.878126353765056 6.015669208371999 1.3653969882427874 6 1.88 C 5.98527562845384 2.0062387578822665 5.98527562845384 2.133761242117733 6 2.26 C 4.5286754189498435 3.070044854189482 3.653465402378883 4.653202528608952 3.75 6.329999999999997 L 3.75 9.42 L 2.42 11.6 C 2.1857799149988457 11.984717127968844 2.1766429528089097 12.465692429496462 2.396082581256188 12.859027612562338 C 2.6155222097034656 13.252362795628212 3.0296016962131613 13.497227867881298 3.48 13.5 L 5.25 13.5 C 5.346139711341369 14.936818769112655 6.560547225597499 16.040825600254593 8 16 C 9.439452774402502 16.040825600254593 10.653860288658631 14.936818769112655 10.75 13.5 L 12.52 13.5 C 12.970398303786839 13.497227867881298 13.384477790296534 13.252362795628212 13.603917418743812 12.859027612562338 C 13.82335704719109 12.465692429496462 13.814220085001153 11.984717127968846 13.58 11.6 z M 7.25 1.88 C 7.286980511058637 1.5009345374836756 7.620240947770235 1.2209957706459333 8 1.25 C 8.379759052229765 1.2209957706459331 8.713019488941363 1.5009345374836758 8.75 1.8800000000000001 C 8.500244618629504 1.864359711335656 8.249755381370491 1.8643597113356556 7.999999999999996 1.88 C 7.750252998001238 1.8640940891100908 7.499747001998761 1.8640940891100906 7.249999999999998 1.88 z M 8 14.75 C 7.25072086379986 14.78769308495203 6.598040744279996 14.243792985352142 6.5 13.5 L 9.5 13.5 C 9.401959255720005 14.243792985352142 8.749279136200139 14.78769308495203 8 14.75 z M 3.4800000000000004 12.25 L 4.82 10.08 L 5 9.77 L 5 6.33 C 4.997596762015219 5.581099308745545 5.205483827934325 4.846565009164704 5.6 4.210000000000001 C 6.153688016439564 3.45116574809374 7.064258279481644 3.0376150869621297 8 3.12 C 8.935741720518358 3.0376150869621292 9.846311983560435 3.4511657480937394 10.4 4.209999999999999 C 10.794516172065675 4.846565009164703 11.002403237984781 5.581099308745544 11 6.329999999999998 L 11 9.77 L 11.18 10.08 L 12.52 12.25 z" stroke-linecap="round" />
</g>
<g transform="matrix(0 0 0 0 0 0)"  >
<g style=""   >
</g>
</g>
<g transform="matrix(NaN NaN NaN NaN 0 0)"  >
<g style=""   >
</g>
</g>
<g transform="matrix(NaN NaN NaN NaN 0 0)"  >
<g style=""   >
</g>
</g>
</svg>