<?xml version="1.0" encoding="UTF-8" standalone="no" ?>
<!DOCTYPE svg PUBLIC "-//W3C//DTD SVG 1.1//EN" "http://www.w3.org/Graphics/SVG/1.1/DTD/svg11.dtd">
<svg xmlns="http://www.w3.org/2000/svg" xmlns:xlink="http://www.w3.org/1999/xlink" version="1.1" width="900" height="900" viewBox="0 0 900 900" xml:space="preserve">
<desc>Created with Fabric.js 5.2.4</desc>
<defs>
</defs>
<rect x="0" y="0" width="100%" height="100%" fill="transparent"></rect>
<g transform="matrix(1 0 0 1 450 450)" id="89089623-730e-4f61-a449-9b2ec0b2a641"  >
<rect style="stroke: none; stroke-width: 1; stroke-dasharray: none; stroke-linecap: butt; stroke-dashoffset: 0; stroke-linejoin: miter; stroke-miterlimit: 4; fill: rgb(255,255,255); fill-rule: nonzero; opacity: 1; visibility: hidden;" vector-effect="non-scaling-stroke"  x="-450" y="-450" rx="0" ry="0" width="900" height="900" />
</g>
<g transform="matrix(0 0 0 0 0 0)" id="d4f351b7-3387-42d7-9771-fab92fd084c9"  >
</g>
<g transform="matrix(2.77 0 0 2.77 899.28 899.28)"  >
<rect style="stroke: none; stroke-width: 1; stroke-dasharray: none; stroke-linecap: butt; stroke-dashoffset: 0; stroke-linejoin: miter; stroke-miterlimit: 4; fill: rgb(255,255,255); fill-rule: nonzero; opacity: 1; visibility: hidden;" vector-effect="non-scaling-stroke"  x="-200" y="-200" rx="0" ry="0" width="400" height="400" />
</g>
<g transform="matrix(0 0 0 0 0 0)"  >
<g style=""   >
</g>
</g>
<g transform="matrix(0 0 0 0 0 0)"  >
<g style=""   >
</g>
</g>
<g transform="matrix(0 0 0 0 0 0)"  >
<g style=""   >
</g>
</g>
<g transform="matrix(NaN NaN NaN NaN 0 0)"  >
<g style=""   >
</g>
</g>
<g transform="matrix(NaN NaN NaN NaN 0 0)"  >
<g style=""   >
</g>
</g>
<g transform="matrix(1 0 0 1 450 450)"  >
<g style="" vector-effect="non-scaling-stroke"   >
		<g transform="matrix(25.09 0 0 25.09 175.99 -170.93)"  >
<path style="stroke: none; stroke-width: 1; stroke-dasharray: none; stroke-linecap: butt; stroke-dashoffset: 0; stroke-linejoin: miter; stroke-miterlimit: 4; fill: rgb(128,237,153); fill-rule: nonzero; opacity: 1;" vector-effect="non-scaling-stroke"  transform=" translate(-22.96, -9.13)" d="M 30.543 5.74 L 26.465 1.705 C 24.66 -0.07199999999999984 21.729 -0.08399999999999985 19.92 1.685 L 15.395000000000001 6.099 C 13.583000000000002 7.867 13.575000000000001 10.747 15.375000000000002 12.523 L 17.961000000000002 10.039 C 17.699 9.248 18.022000000000002 8.341999999999999 18.662000000000003 7.715 L 21.541000000000004 4.9079999999999995 C 22.453000000000003 4.023 23.916000000000004 4.026999999999999 24.816000000000003 4.917999999999999 L 27.265 7.337999999999999 C 28.165 8.229 28.161 9.664 27.255 10.550999999999998 L 24.375999999999998 13.36 C 23.766999999999996 13.953999999999999 22.766999999999996 14.28 21.991 14.071 L 19.458 16.557 C 21.261 18.337999999999997 24.189999999999998 18.346 26.003 16.576999999999998 L 30.523 12.166999999999998 C 32.34 10.396 32.346 7.519 30.543 5.74 z" stroke-linecap="round" />
</g>
		<g transform="matrix(25.09 0 0 25.09 -174.93 169.81)"  >
<path style="stroke: none; stroke-width: 1; stroke-dasharray: none; stroke-linecap: butt; stroke-dashoffset: 0; stroke-linejoin: miter; stroke-miterlimit: 4; fill: rgb(128,237,153); fill-rule: nonzero; opacity: 1;" vector-effect="non-scaling-stroke"  transform=" translate(-8.97, -22.72)" d="M 13.975 21.894 C 14.19 22.666999999999998 13.846 23.666999999999998 13.222999999999999 24.275 L 10.533999999999999 26.901999999999997 C 9.611999999999998 27.801999999999996 8.12 27.796999999999997 7.201999999999999 26.889999999999997 L 4.703999999999999 24.429 C 3.787999999999999 23.523 3.7939999999999987 22.049999999999997 4.715999999999998 21.154 L 7.406999999999998 18.527 C 8.062999999999999 17.89 9.004999999999999 17.566000000000003 9.826999999999998 17.838 L 12.420999999999998 15.268 C 10.584999999999997 13.457 7.596999999999998 13.448 5.7529999999999974 15.248000000000001 L 1.389999999999997 19.508000000000003 C -0.45600000000000307 21.311000000000003 -0.46500000000000297 24.242000000000004 1.369999999999997 26.057000000000002 L 5.523999999999997 30.164 C 7.357999999999997 31.973000000000003 10.343999999999998 31.982000000000003 12.191999999999997 30.182000000000002 L 16.554999999999996 25.922000000000004 C 18.398999999999997 24.117000000000004 18.406999999999996 21.188000000000002 16.574999999999996 19.375000000000004 L 13.975 21.894 z" stroke-linecap="round" />
</g>
		<g transform="matrix(25.09 0 0 25.09 1.1 -1.09)"  >
<path style="stroke: none; stroke-width: 1; stroke-dasharray: none; stroke-linecap: butt; stroke-dashoffset: 0; stroke-linejoin: miter; stroke-miterlimit: 4; fill: rgb(128,237,153); fill-rule: nonzero; opacity: 1;" vector-effect="non-scaling-stroke"  transform=" translate(-15.99, -15.9)" d="M 11.139 20.722 C 11.75 21.339000000000002 12.75 21.345000000000002 13.373 20.73 L 20.828 13.314 C 21.448999999999998 12.697 21.453 11.699 20.836 11.08 C 20.223 10.465 19.224999999999998 10.461 18.605999999999998 11.074 L 11.148999999999997 18.488 C 10.529 19.103 10.525 20.101 11.139 20.722 z" stroke-linecap="round" />
</g>
</g>
</g>
<g transform="matrix(NaN NaN NaN NaN 0 0)"  >
<g style=""   >
</g>
</g>
</svg>