<?xml version="1.0" encoding="UTF-8" standalone="no" ?>
<!DOCTYPE svg PUBLIC "-//W3C//DTD SVG 1.1//EN" "http://www.w3.org/Graphics/SVG/1.1/DTD/svg11.dtd">
<svg xmlns="http://www.w3.org/2000/svg" xmlns:xlink="http://www.w3.org/1999/xlink" version="1.1" width="1080" height="1080" viewBox="0 0 1080 1080" xml:space="preserve">
<desc>Created with Fabric.js 5.2.4</desc>
<defs>
</defs>
<g transform="matrix(1 0 0 1 540 540)" id="dda486ba-42e1-418c-a061-8d42665c8acb"  >
</g>
<g transform="matrix(1 0 0 1 540 540)" id="838bb9d3-be18-4420-b404-a9811bfc0751"  >
<rect style="stroke: none; stroke-width: 1; stroke-dasharray: none; stroke-linecap: butt; stroke-dashoffset: 0; stroke-linejoin: miter; stroke-miterlimit: 4; fill: rgb(255,255,255); fill-rule: nonzero; opacity: 1; visibility: hidden;" vector-effect="non-scaling-stroke"  x="-540" y="-540" rx="0" ry="0" width="1080" height="1080" />
</g>
<g transform="matrix(44.05 0 0 44.05 540 505.66)"  >
<path style="stroke: rgb(0,0,0); stroke-width: 0; stroke-dasharray: none; stroke-linecap: butt; stroke-dashoffset: 0; stroke-linejoin: miter; stroke-miterlimit: 4; fill: rgb(255,255,255); fill-rule: nonzero; opacity: 1;" vector-effect="non-scaling-stroke"  transform=" translate(-8.01, -7.99)" d="M 0.293 0.293 C 0.6834998514858139 -0.09738193833286285 1.316500148514186 -0.09738193833286285 1.707 0.2930000000000001 L 8 6.586 L 14.293 0.293 C 14.544074470261528 0.033043415546888555 14.915877892142188 -0.07121259719835465 15.265507323893292 0.020302843417064398 C 15.615136755644398 0.11181828403248342 15.888181715967516 0.3848632443556 15.979697156582935 0.7344926761067049 C 16.071212597198354 1.0841221078578098 15.966956584453111 1.4559255297384703 15.706999999999999 1.7069999999999992 L 9.414 8 L 15.707 14.293 C 16.08597220950809 14.685378886964312 16.08055237389708 15.309084777021106 15.694818575459095 15.694818575459092 C 15.309084777021107 16.080552373897078 14.685378886964314 16.08597220950809 14.293000000000001 15.706999999999999 L 8 9.414 L 1.7069999999999999 15.707 C 1.3146211130356886 16.085972209508093 0.6909152229788909 16.080552373897085 0.305181424540903 15.694818575459097 C -0.0805523738970848 15.30908477702111 -0.08597220950809148 14.685378886964312 0.2929999999999997 14.293000000000001 L 6.586 8 L 0.293 1.707 C -0.09738193833286285 1.316500148514186 -0.09738193833286285 0.6834998514858144 0.29299999999999987 0.29300000000000037 z" stroke-linecap="round" />
</g>
<g transform="matrix(NaN NaN NaN NaN 0 0)"  >
<g style=""   >
</g>
</g>
</svg>