<?xml version="1.0" encoding="UTF-8" standalone="no" ?>
<!DOCTYPE svg PUBLIC "-//W3C//DTD SVG 1.1//EN" "http://www.w3.org/Graphics/SVG/1.1/DTD/svg11.dtd">
<svg xmlns="http://www.w3.org/2000/svg" xmlns:xlink="http://www.w3.org/1999/xlink" version="1.1" width="1080" height="1080" viewBox="0 0 1080 1080" xml:space="preserve">
<desc>Created with Fabric.js 5.2.4</desc>
<defs>
</defs>
<rect x="0" y="0" width="100%" height="100%" fill="transparent"></rect>
<g transform="matrix(1 0 0 1 540 540)" id="45a06fce-c542-4879-898a-b2cdaaf7a10f"  >
<rect style="stroke: none; stroke-width: 1; stroke-dasharray: none; stroke-linecap: butt; stroke-dashoffset: 0; stroke-linejoin: miter; stroke-miterlimit: 4; fill: rgb(255,255,255); fill-rule: nonzero; opacity: 1; visibility: hidden;" vector-effect="non-scaling-stroke"  x="-540" y="-540" rx="0" ry="0" width="1080" height="1080" />
</g>
<g transform="matrix(1 0 0 1 540 540)" id="6a42ad79-d41b-4770-95b8-6c3a443a9029"  >
</g>
<g transform="matrix(NaN NaN NaN NaN 0 0)"  >
<g style=""   >
</g>
</g>
<g transform="matrix(NaN NaN NaN NaN 0 0)"  >
<g style=""   >
</g>
</g>
<g transform="matrix(NaN NaN NaN NaN 0 0)"  >
<g style=""   >
</g>
</g>
<g transform="matrix(NaN NaN NaN NaN 0 0)"  >
<g style=""   >
</g>
</g>
<g transform="matrix(1.27 0 0 1.27 569.38 516.03)"  >
<g style="" vector-effect="non-scaling-stroke"   >
		<g transform="matrix(1.56 0 0 1.56 151.83 66.64)"  >
<path style="stroke: none; stroke-width: 1; stroke-dasharray: none; stroke-linecap: butt; stroke-dashoffset: 0; stroke-linejoin: miter; stroke-miterlimit: 4; fill: rgb(188,108,37); fill-rule: nonzero; opacity: 1;" vector-effect="non-scaling-stroke"  transform=" translate(-353.17, -298.65)" d="M 353.172 282.328 C 344.156 282.328 336.85900000000004 289.625 336.85900000000004 298.65599999999995 C 336.85900000000004 307.65599999999995 344.15600000000006 314.96899999999994 353.172 314.96899999999994 C 362.188 314.96899999999994 369.485 307.65599999999995 369.485 298.65599999999995 C 369.484 289.625 362.188 282.328 353.172 282.328 z" stroke-linecap="round" />
</g>
		<g transform="matrix(1.56 0 0 1.56 0 0)"  >
<path style="stroke: none; stroke-width: 1; stroke-dasharray: none; stroke-linecap: butt; stroke-dashoffset: 0; stroke-linejoin: miter; stroke-miterlimit: 4; fill: rgb(188,108,37); fill-rule: nonzero; opacity: 1;" vector-effect="non-scaling-stroke"  transform=" translate(-256, -256)" d="M 502.438 235.906 C 500.407 233.625 498 231.672 495.454 229.906 L 495.454 171.281 C 495.454 151.281 488.188 132.734 476.22 118.35900000000001 C 467.15700000000004 107.453 455.314 98.84300000000002 441.72 93.656 C 438.15700000000004 77.18700000000001 429.78200000000004 62.468 418.095 51.25000000000001 C 403.23600000000005 36.92200000000001 382.87600000000003 27.98400000000001 360.62600000000003 27.98400000000001 L 116.906 27.98400000000001 C 87.125 27.96800000000001 59.718 39.156000000000006 39.093 57.62500000000001 C 18.421000000000003 76.063 4.3430000000000035 101.906 0.9210000000000065 131.109 L 0.8120000000000065 132.031 L 0 176.969 L 0 367.094 C 0 399.313 13.141 428.64099999999996 34.281 449.75 C 55.375 470.875 84.719 484.031 116.906 484.016 L 412.406 484.016 C 435.281 484.03200000000004 456.156 474.65700000000004 471.125 459.65700000000004 C 486.109 444.70400000000006 495.469 423.84400000000005 495.453 400.96900000000005 L 495.453 367.37500000000006 C 498 365.62500000000006 500.40599999999995 363.68700000000007 502.43699999999995 361.37500000000006 C 508.359 354.73400000000004 511.99999999999994 345.81200000000007 511.99999999999994 336.21900000000005 L 511.99999999999994 261.07800000000003 C 512 251.469 508.359 242.547 502.438 235.906 z M 457.5 400.969 C 457.484 413.438 452.469 424.594 444.266 432.828 C 436.03200000000004 441.03099999999995 424.875 446.04699999999997 412.40700000000004 446.06199999999995 L 116.90700000000004 446.06199999999995 C 95.11000000000004 446.04599999999994 75.48500000000004 437.234 61.12600000000004 422.88999999999993 C 46.78200000000004 408.53099999999995 37.97000000000004 388.88999999999993 37.954000000000036 367.09299999999996 L 37.954000000000036 177.34299999999996 L 38.735000000000035 134.88999999999996 C 41.17300000000004 115.37399999999997 50.56300000000003 98.28099999999995 64.37600000000003 85.93699999999995 C 78.36000000000003 73.46799999999996 96.65700000000004 65.95299999999995 116.90700000000004 65.93699999999995 L 360.62600000000003 65.93699999999995 C 372.62600000000003 65.93699999999995 383.564 70.71799999999996 391.78200000000004 78.59299999999996 C 398.62600000000003 85.21799999999996 403.31300000000005 93.81199999999995 404.97 103.42099999999996 L 77.188 103.42099999999996 C 70.907 103.42099999999996 65.813 108.52999999999996 65.813 114.81199999999997 C 65.813 121.09399999999998 70.907 126.20299999999997 77.188 126.20299999999997 L 416.563 126.20299999999997 L 420.969 127.06199999999997 C 431.282 129.06199999999995 440.453 134.68699999999995 447.032 142.62499999999997 C 453.626 150.56299999999996 457.501 160.53099999999998 457.501 171.28099999999998 L 457.501 238.31199999999998 L 352.328 238.31199999999998 C 335.68699999999995 238.31199999999998 320.56199999999995 245.07799999999997 309.68699999999995 255.968 L 309.65599999999995 255.98399999999998 C 298.75 266.875 291.984 282 292 298.656 C 291.984 315.281 298.75 330.406 309.656 341.297 L 309.687 341.31300000000005 C 320.562 352.21900000000005 335.687 359.00100000000003 352.312 358.98500000000007 L 457.5 358.98500000000007 L 457.5 400.969 z M 474.031 336.188 L 474.031 336.204 L 352.328 336.204 C 341.859 336.188 332.68699999999995 332.063 325.78099999999995 325.204 C 318.90599999999995 318.282 314.78099999999995 309.12600000000003 314.78099999999995 298.657 C 314.78099999999995 288.18799999999993 318.90599999999995 279.001 325.78099999999995 272.079 C 332.68699999999995 265.235 341.8589999999999 261.11 352.328 261.095 L 474.03099999999995 261.095 L 474.03099999999995 261.095 L 474.03099999999995 336.188 z" stroke-linecap="round" />
</g>
</g>
</g>
<g transform="matrix(NaN NaN NaN NaN 0 0)"  >
<g style=""   >
</g>
</g>
</svg>