<?xml version="1.0" encoding="UTF-8" standalone="no" ?>
<!DOCTYPE svg PUBLIC "-//W3C//DTD SVG 1.1//EN" "http://www.w3.org/Graphics/SVG/1.1/DTD/svg11.dtd">
<svg xmlns="http://www.w3.org/2000/svg" xmlns:xlink="http://www.w3.org/1999/xlink" version="1.1" width="1200" height="900" viewBox="0 0 1200 900" xml:space="preserve">
<desc>Created with Fabric.js 5.2.4</desc>
<defs>
</defs>
<rect x="0" y="0" width="100%" height="100%" fill="transparent"></rect>
<g transform="matrix(0 0 0 0 0 0)" id="758df034-4c15-4705-9851-c8a090da0210"  >
</g>
<g transform="matrix(1 0 0 1 600 450)" id="0707273d-fd2e-466d-8c44-d73b46202798"  >
<rect style="stroke: none; stroke-width: 1; stroke-dasharray: none; stroke-linecap: butt; stroke-dashoffset: 0; stroke-linejoin: miter; stroke-miterlimit: 4; fill: rgb(255,255,255); fill-rule: nonzero; opacity: 1; visibility: hidden;" vector-effect="non-scaling-stroke"  x="-600" y="-450" rx="0" ry="0" width="1200" height="900" />
</g>
<g transform="matrix(NaN NaN NaN NaN 0 0)"  >
<g style=""   >
</g>
</g>
<g transform="matrix(0.57 0 0 0.57 600 450)" id="e1d75d23-0fcc-4f70-80c6-dce8eba1c0eb"  >
<path style="stroke: rgb(0,0,0); stroke-width: 0; stroke-dasharray: none; stroke-linecap: butt; stroke-dashoffset: 0; stroke-linejoin: miter; stroke-miterlimit: 4; fill: rgb(128,237,153); fill-rule: nonzero; opacity: 1;" vector-effect="non-scaling-stroke"  transform=" translate(-512.4, -505.2)" d="M 194.4 823.2 C 184.8 823.2 176.8 816.8000000000001 174.4 807.2 L 72 366.4 L 60 366.4 C 33.6 365.59999999999997 12.799999999999997 344 12.799999999999997 317.59999999999997 C 12.799999999999997 291.19999999999993 34.4 269.59999999999997 61.599999999999994 269.59999999999997 C 88 269.59999999999997 110.39999999999999 291.2 110.39999999999999 318.4 C 110.39999999999999 324.79999999999995 108.8 332 106.39999999999999 338.4 L 99.19999999999999 352 L 316.79999999999995 449.6 L 496 172 L 484 163.2 C 471.2 154.39999999999998 463.2 139.2 463.2 123.19999999999999 C 463.2 96.79999999999998 484.8 74.39999999999999 512 74.39999999999999 C 539.2 74.39999999999999 560.8 96 560.8 123.19999999999999 C 560.8 139.2 552.8 154.39999999999998 540 163.2 L 528 171.2 L 688 449.59999999999997 L 924.8 351.19999999999993 L 918.4 336.79999999999995 C 916 330.4 914.4 323.99999999999994 914.4 317.59999999999997 C 914.4 291.2 936 268.79999999999995 963.1999999999999 268.79999999999995 C 989.5999999999999 268.79999999999995 1011.9999999999999 290.4 1011.9999999999999 317.59999999999997 C 1011.9999999999999 343.99999999999994 990.3999999999999 366.4 963.1999999999999 366.4 L 949.5999999999999 366.4 L 847.2 808 C 844.8000000000001 817.6 836.8000000000001 824 827.2 824 L 194.4 824 z M 210.4 783.2 L 812 783.2 L 900 405.6 L 688 493.6 C 685.6 494.40000000000003 683.2 495.20000000000005 680 495.20000000000005 C 672.8 495.20000000000005 666.4 491.20000000000005 662.4 485.6 L 510.4 224 L 340.8 485.6 C 336.8 491.20000000000005 330.40000000000003 495.20000000000005 324 495.20000000000005 C 320.8 495.20000000000005 318.4 494.40000000000003 316 493.6 L 123.2 407.2 L 210.4 783.2 z M 161.6 936 C 148 936 137.6 925.6 137.6 912 C 137.6 898.4 148 888 161.6 888 L 860.8000000000001 888 C 874.4000000000001 888 884.8000000000001 898.4 884.8000000000001 912 C 884.8000000000001 925.6 874.4000000000001 936 860.8000000000001 936 L 161.6 936 z" stroke-linecap="round" />
</g>
<g transform="matrix(NaN NaN NaN NaN 0 0)"  >
<g style=""   >
</g>
</g>
</svg>