<?xml version="1.0" encoding="UTF-8" standalone="no" ?>
<!DOCTYPE svg PUBLIC "-//W3C//DTD SVG 1.1//EN" "http://www.w3.org/Graphics/SVG/1.1/DTD/svg11.dtd">
<svg xmlns="http://www.w3.org/2000/svg" xmlns:xlink="http://www.w3.org/1999/xlink" version="1.1" width="1080" height="1080" viewBox="0 0 1080 1080" xml:space="preserve">
<desc>Created with Fabric.js 5.2.4</desc>
<defs>
</defs>
<rect x="0" y="0" width="100%" height="100%" fill="transparent"></rect>
<g transform="matrix(1 0 0 1 540 540)" id="adcd7707-63a2-4364-a601-0972f357eec2"  >
<rect style="stroke: none; stroke-width: 1; stroke-dasharray: none; stroke-linecap: butt; stroke-dashoffset: 0; stroke-linejoin: miter; stroke-miterlimit: 4; fill: rgb(255,255,255); fill-rule: nonzero; opacity: 1; visibility: hidden;" vector-effect="non-scaling-stroke"  x="-540" y="-540" rx="0" ry="0" width="1080" height="1080" />
</g>
<g transform="matrix(1 0 0 1 540 540)" id="f07423fe-39de-4232-8ef4-19a6a17f979c"  >
</g>
<g transform="matrix(18.55 0 0 18.55 312.47 540)" id="arrow-up"  >
<path style="stroke: none; stroke-width: 50; stroke-dasharray: none; stroke-linecap: butt; stroke-dashoffset: 0; stroke-linejoin: round; stroke-miterlimit: 2; fill: rgb(128,237,153); fill-rule: evenodd; opacity: 1;" vector-effect="non-scaling-stroke"  transform=" translate(-31.99, -31.88)" d="M 29.991 15.547 L 22.578 22.96 L 19.746 20.128 L 31.991999999999997 7.882 L 31.993 7.883 L 31.994 7.882 L 44.24 20.128 L 41.408 22.96 L 33.997 15.549000000000001 L 33.997 55.883 L 29.991 55.883 L 29.991 15.547000000000004 Z" stroke-linecap="round" />
</g>
<g transform="matrix(-18.55 0 0 -18.55 760.63 540)"  >
<path style="stroke: none; stroke-width: 50; stroke-dasharray: none; stroke-linecap: butt; stroke-dashoffset: 0; stroke-linejoin: round; stroke-miterlimit: 2; fill: rgb(0,0,0); fill-rule: evenodd; opacity: 1;" vector-effect="non-scaling-stroke"  transform=" translate(-31.99, -31.88)" d="M 29.991 15.547 L 22.578 22.96 L 19.746 20.128 L 31.991999999999997 7.882 L 31.993 7.883 L 31.994 7.882 L 44.24 20.128 L 41.408 22.96 L 33.997 15.549000000000001 L 33.997 55.883 L 29.991 55.883 L 29.991 15.547000000000004 Z" stroke-linecap="round" />
</g>
<g transform="matrix(NaN NaN NaN NaN 0 0)"  >
<g style=""   >
</g>
</g>
</svg>