<?xml version="1.0" encoding="UTF-8" standalone="no" ?>
<!DOCTYPE svg PUBLIC "-//W3C//DTD SVG 1.1//EN" "http://www.w3.org/Graphics/SVG/1.1/DTD/svg11.dtd">
<svg xmlns="http://www.w3.org/2000/svg" xmlns:xlink="http://www.w3.org/1999/xlink" version="1.1" width="1080" height="1080" viewBox="0 0 1080 1080" xml:space="preserve">
<desc>Created with Fabric.js 5.2.4</desc>
<defs>
</defs>
<g transform="matrix(1 0 0 1 540 540)" id="368133bd-46a7-48ba-91a1-547b4a8a5a27"  >
<rect style="stroke: none; stroke-width: 1; stroke-dasharray: none; stroke-linecap: butt; stroke-dashoffset: 0; stroke-linejoin: miter; stroke-miterlimit: 4; fill: rgb(255,255,255); fill-rule: nonzero; opacity: 1; visibility: hidden;" vector-effect="non-scaling-stroke"  x="-540" y="-540" rx="0" ry="0" width="1080" height="1080" />
</g>
<g transform="matrix(1 0 0 1 540 540)" id="4878a293-12b6-4217-b534-937931a54db0"  >
</g>
<g transform="matrix(1 0 0 1 540 540)"  >
<g style="opacity: 0.7;" vector-effect="non-scaling-stroke"   >
		<g transform="matrix(1 0 0 1 -490 -490)"  >
<rect style="stroke: none; stroke-width: 1; stroke-dasharray: none; stroke-linecap: butt; stroke-dashoffset: 0; stroke-linejoin: miter; stroke-miterlimit: 4; fill: rgb(255,255,255); fill-opacity: 0; fill-rule: nonzero; opacity: 1;" vector-effect="non-scaling-stroke"  x="-50" y="-50" rx="0" ry="0" width="100" height="100" />
</g>
		<g transform="matrix(1 0 0 1 0 0)"  >
<rect style="stroke: none; stroke-width: 1; stroke-dasharray: none; stroke-linecap: butt; stroke-dashoffset: 0; stroke-linejoin: miter; stroke-miterlimit: 4; fill: rgb(255,255,255); fill-rule: nonzero; opacity: 1; visibility: hidden;" vector-effect="non-scaling-stroke"  x="-540" y="-540" rx="0" ry="0" width="1080" height="1080" />
</g>
		<g transform="matrix(28.73 0 0 28.73 31.4 -27.45)"  >
<path style="stroke: rgb(0,0,0); stroke-width: 0; stroke-dasharray: none; stroke-linecap: butt; stroke-dashoffset: 0; stroke-linejoin: miter; stroke-miterlimit: 4; fill: rgb(128,237,153); fill-rule: nonzero; opacity: 1;" vector-effect="non-scaling-stroke"  transform=" translate(-12, -12)" d="M 7 5 C 7.55228 5 8 5.44772 8 6 L 8 15.5858 L 10.2929 13.2929 C 10.6834 12.9024 11.3166 12.9024 11.7071 13.2929 C 12.0976 13.6834 12.0976 14.3166 11.7071 14.7071 L 7.70711 18.7071 C 7.31658 19.0976 6.68342 19.0976 6.29289 18.7071 L 2.29289 14.7071 C 1.90237 14.3166 1.90237 13.6834 2.29289 13.2929 C 2.68342 12.9024 3.31658 12.9024 3.70711 13.2929 L 6 15.5858 L 6 6 C 6 5.44772 6.44772 5 7 5 Z M 16.2929 5.29289 C 16.6834 4.90237 17.3166 4.90237 17.7071 5.29289 L 21.7071 9.29289 C 22.0976 9.68342 22.0976 10.3166 21.7071 10.7071 C 21.3166 11.0976 20.6834 11.0976 20.2929 10.7071 L 18 8.41421 L 18 18 C 18 18.5523 17.5523 19 17 19 C 16.4477 19 16 18.5523 16 18 L 16 8.41421 L 13.7071 10.7071 C 13.3166 11.0976 12.6834 11.0976 12.2929 10.7071 C 11.9024 10.3166 11.9024 9.68342 12.2929 9.29289 L 16.2929 5.29289 Z" stroke-linecap="round" />
</g>
</g>
</g>
</svg>