<?xml version="1.0" encoding="UTF-8" standalone="no" ?>
<!DOCTYPE svg PUBLIC "-//W3C//DTD SVG 1.1//EN" "http://www.w3.org/Graphics/SVG/1.1/DTD/svg11.dtd">
<svg xmlns="http://www.w3.org/2000/svg" xmlns:xlink="http://www.w3.org/1999/xlink" version="1.1" width="1080" height="1080" viewBox="0 0 1080 1080" xml:space="preserve">
<desc>Created with Fabric.js 5.2.4</desc>
<defs>
</defs>
<rect x="0" y="0" width="100%" height="100%" fill="transparent"></rect>
<g transform="matrix(1 0 0 1 540 540)" id="c044f7a5-065f-4651-bcaa-968848ef0667"  >
<rect style="stroke: none; stroke-width: 1; stroke-dasharray: none; stroke-linecap: butt; stroke-dashoffset: 0; stroke-linejoin: miter; stroke-miterlimit: 4; fill: rgb(255,255,255); fill-rule: nonzero; opacity: 1; visibility: hidden;" vector-effect="non-scaling-stroke"  x="-540" y="-540" rx="0" ry="0" width="1080" height="1080" />
</g>
<g transform="matrix(1 0 0 1 540 540)" id="a28bba52-28d2-47ec-a726-8427d0e231aa"  >
</g>
<g transform="matrix(1 0 0 1 540 540)"  >
<g style="" vector-effect="non-scaling-stroke"   >
		<g transform="matrix(33.33 0 0 33.33 166.67 0)"  >
<path style="stroke: none; stroke-width: 1; stroke-dasharray: none; stroke-linecap: butt; stroke-dashoffset: 0; stroke-linejoin: miter; stroke-miterlimit: 4; fill: rgb(128,237,153); fill-rule: nonzero; opacity: 1;" vector-effect="non-scaling-stroke"  transform=" translate(-17, -12)" d="M 18 3.99997 C 18 3.44769 17.5523 2.99998 17 2.99998 C 16.4477 2.99999 16 3.44771 16 4 L 16.0002 17.586 L 13.7071 15.2929 C 13.3166 14.9024 12.6834 14.9024 12.2929 15.2929 C 11.9024 15.6834 11.9024 16.3166 12.2929 16.7071 L 16.2929 20.7071 C 16.4163 20.8305 16.5639 20.9149 16.7204 20.9603 C 16.7777 20.977 16.837 20.9886 16.898 20.9948 C 16.9316 20.9982 16.9657 21 17.0002 21 C 17.018 21 17.0357 20.9995 17.0533 20.9986 C 17.3143 20.985 17.5488 20.8712 17.7192 20.695 L 21.7071 16.7071 C 22.0976 16.3166 22.0976 15.6834 21.7071 15.2929 C 21.3166 14.9024 20.6834 14.9024 20.2929 15.2929 L 18.0002 17.5856 L 18 3.99997 Z" stroke-linecap="round" />
</g>
		<g transform="matrix(33.33 0 0 33.33 -166.67 0)"  >
<path style="stroke: none; stroke-width: 1; stroke-dasharray: none; stroke-linecap: butt; stroke-dashoffset: 0; stroke-linejoin: miter; stroke-miterlimit: 4; fill: rgb(128,237,153); fill-rule: nonzero; opacity: 1;" vector-effect="non-scaling-stroke"  transform=" translate(-7, -12)" d="M 8 20 L 8 6.41421 L 10.2929 8.7071 C 10.6834 9.09763 11.3166 9.09763 11.7071 8.7071 C 12.0976 8.31658 12.0976 7.68341 11.7071 7.29289 L 7.70711 3.29289 C 7.31658 2.90237 6.68342 2.90237 6.29289 3.29289 L 2.29289 7.29289 C 1.90237 7.68341 1.90237 8.31658 2.29289 8.7071 C 2.68342 9.09763 3.31658 9.09763 3.70711 8.7071 L 6 6.41421 L 6 20 C 6 20.5523 6.44772 21 7 21 C 7.55229 21 8 20.5523 8 20 Z" stroke-linecap="round" />
</g>
</g>
</g>
<g transform="matrix(NaN NaN NaN NaN 0 0)"  >
<g style=""   >
</g>
</g>
</svg>