<svg width="1280" height="720" xmlns="http://www.w3.org/2000/svg" xmlns:xlink="http://www.w3.org/1999/xlink" overflow="hidden"><defs><clipPath id="clip0"><rect x="0" y="0" width="1280" height="720"/></clipPath><clipPath id="clip1"><rect x="327" y="47" width="626" height="626"/></clipPath><clipPath id="clip2"><rect x="327" y="47" width="626" height="626"/></clipPath><clipPath id="clip3"><rect x="327" y="47" width="626" height="626"/></clipPath></defs><g clip-path="url(#clip0)"><rect x="0" y="0" width="1280" height="720" fill="#22333B"/><g clip-path="url(#clip1)"><g clip-path="url(#clip2)"><g clip-path="url(#clip3)"><path d="M803.308 209.114C790.151 203.415 776.008 200.337 761.672 200.057 756.096 199.885 750.528 200.61 745.181 202.202L673.185 377.887C678.473 376.329 683.976 375.623 689.487 375.793 703.881 376.08 718.081 379.172 731.292 384.897 772.145 401.636 801.475 442.606 855.729 442.606 859.809 442.609 863.886 442.391 867.942 441.954L939.958 266.152C866.547 262.787 847.121 227.066 803.308 209.114ZM783.295 392.956C782.102 392.135 780.883 391.313 779.683 390.491L797.504 346.991 792.509 343.802C781.468 336.42 769.948 329.778 758.027 323.92L740.18 367.479C739.677 367.271 739.214 367.003 738.712 366.827 727.25 362.02 715.201 358.753 702.88 357.111L721.021 312.848C731.571 314.116 741.889 316.866 751.669 321.018 753.867 321.918 755.934 322.975 758.034 323.953L776.716 278.366C774.625 277.401 772.484 276.468 770.293 275.568 760.531 271.532 750.382 268.506 740.004 266.537L759.194 219.704C759.97 219.704 760.812 219.652 761.705 219.652 773.493 219.945 785.113 222.523 795.92 227.242 796.428 227.451 796.885 227.712 797.387 227.894L776.716 278.34C790.479 284.896 803.749 292.44 816.421 300.915L836.792 251.206C849.339 259.845 862.758 267.14 876.83 272.973L856.107 323.542C842.842 317.226 830.044 309.974 817.81 301.841L816.369 300.915 797.537 346.997C810.249 355.388 823.567 362.825 837.379 369.247L818.795 414.514C806.361 408.367 794.484 401.154 783.295 392.956ZM843.717 371.907C841.546 371.014 839.564 370.049 837.49 369.11L856.146 323.751C867.179 328.748 878.708 332.564 890.543 335.136L871.718 381.088C862.182 378.683 852.826 375.615 843.717 371.907Z" fill="#FFC300"/><path d="M607.911 377.887 535.921 202.196C530.574 200.603 525.006 199.879 519.43 200.05 505.094 200.331 490.951 203.408 477.794 209.108 433.974 227.06 414.542 262.781 341.144 266.146L413.179 441.934C417.233 442.372 421.309 442.589 425.386 442.586 479.64 442.586 508.977 401.616 549.83 384.877 563.038 379.142 577.238 376.041 591.635 375.748 597.139 375.593 602.633 376.316 607.911 377.887ZM409.384 381.088 390.552 335.136C402.405 332.558 413.952 328.735 425.002 323.731L443.456 369.181C441.434 370.094 439.504 371.04 437.385 371.907 428.275 375.613 418.919 378.681 409.384 381.088ZM542.409 366.795C541.907 367.003 541.444 367.271 540.949 367.447L523.094 323.888C511.165 329.746 499.638 336.388 488.586 343.77L483.591 346.958 501.419 390.459C500.219 391.28 498.993 392.102 497.8 392.924 486.612 401.122 474.735 408.336 462.301 414.482L443.788 369.338C457.576 362.874 470.872 355.404 483.565 346.991L464.655 300.908 463.214 301.834C451.007 309.988 438.233 317.258 424.989 323.588L404.246 272.966C418.318 267.135 431.738 259.839 444.284 251.2L464.655 300.908C477.328 292.435 490.598 284.89 504.36 278.333L483.689 227.888C484.191 227.679 484.654 227.418 485.156 227.236 495.965 222.515 507.587 219.938 519.378 219.646 520.271 219.646 521.106 219.646 521.888 219.698L541.079 266.53C530.7 268.498 520.551 271.524 510.79 275.562 508.59 276.462 506.447 277.394 504.36 278.359L523.042 323.946C525.149 322.949 527.216 321.912 529.413 321.012 539.193 316.859 549.511 314.108 560.061 312.841L578.202 357.105C565.895 358.739 553.86 361.997 542.409 366.795Z" fill="#FFC300"/><path d="M654.646 369.938 726.557 194.456C729.107 187.719 725.712 180.191 718.976 177.642 712.496 175.19 705.23 178.232 702.43 184.57L640.548 335.547 578.704 184.59C576.155 177.853 568.628 174.459 561.891 177.008 555.154 179.557 551.76 187.084 554.309 193.821 554.393 194.042 554.482 194.26 554.577 194.475L626.456 369.938 560.407 531.113C557.519 537.712 560.529 545.402 567.127 548.289 573.726 551.176 581.416 548.167 584.303 541.569 584.384 541.382 584.461 541.195 584.534 541.005L640.548 404.342 696.562 541.018C699.449 547.617 707.139 550.626 713.738 547.739 720.12 544.946 723.18 537.631 720.689 531.126Z" fill="#FFC300"/></g></g></g></g></svg>