<?xml version="1.0" encoding="UTF-8" standalone="no" ?>
<!DOCTYPE svg PUBLIC "-//W3C//DTD SVG 1.1//EN" "http://www.w3.org/Graphics/SVG/1.1/DTD/svg11.dtd">
<svg xmlns="http://www.w3.org/2000/svg" xmlns:xlink="http://www.w3.org/1999/xlink" version="1.1" width="900" height="900" viewBox="0 0 900 900" xml:space="preserve">
<desc>Created with Fabric.js 5.2.4</desc>
<defs>
</defs>
<rect x="0" y="0" width="100%" height="100%" fill="transparent"></rect>
<g transform="matrix(0 0 0 0 0 0)" id="d4f351b7-3387-42d7-9771-fab92fd084c9"  >
</g>
<g transform="matrix(1 0 0 1 450 450)" id="89089623-730e-4f61-a449-9b2ec0b2a641"  >
<rect style="stroke: none; stroke-width: 1; stroke-dasharray: none; stroke-linecap: butt; stroke-dashoffset: 0; stroke-linejoin: miter; stroke-miterlimit: 4; fill: rgb(255,255,255); fill-rule: nonzero; opacity: 1; visibility: hidden;" vector-effect="non-scaling-stroke"  x="-450" y="-450" rx="0" ry="0" width="900" height="900" />
</g>
<g transform="matrix(2.77 0 0 2.77 899.28 899.28)"  >
<rect style="stroke: none; stroke-width: 1; stroke-dasharray: none; stroke-linecap: butt; stroke-dashoffset: 0; stroke-linejoin: miter; stroke-miterlimit: 4; fill: rgb(255,255,255); fill-rule: nonzero; opacity: 1; visibility: hidden;" vector-effect="non-scaling-stroke"  x="-200" y="-200" rx="0" ry="0" width="400" height="400" />
</g>
<g transform="matrix(0 0 0 0 0 0)"  >
<g style=""   >
</g>
</g>
<g transform="matrix(0 0 0 0 0 0)"  >
<g style=""   >
</g>
</g>
<g transform="matrix(0 0 0 0 0 0)"  >
<g style=""   >
</g>
</g>
<g transform="matrix(0 0 0 0 0 0)"  >
<g style=""   >
</g>
</g>
<g transform="matrix(0 0 0 0 0 0)"  >
<g style=""   >
</g>
</g>
<g transform="matrix(0 0 0 0 0 0)"  >
<g style=""   >
</g>
</g>
<g transform="matrix(1 0 0 1 450 450)"  >
<g style="" vector-effect="non-scaling-stroke"   >
		<g transform="matrix(1.56 0 0 1.56 -209.53 -212.18)"  >
<path style="stroke: none; stroke-width: 1; stroke-dasharray: none; stroke-linecap: butt; stroke-dashoffset: 0; stroke-linejoin: miter; stroke-miterlimit: 4; fill: rgb(128,237,153); fill-rule: nonzero; opacity: 1;" vector-effect="non-scaling-stroke"  transform=" translate(-122.09, -120.39)" d="M 78.168 239.257 C 78.168 239.257 83.06 239.209 91.334 239.153 C 121.039 238.927 193.88 238.878 241.099 238.94299999999998 C 241.15599999999998 190.83399999999997 241.083 116.59699999999998 240.89 88.27199999999999 C 240.825 80.92699999999999 240.785 76.64099999999999 240.785 76.64099999999999 C 240.801 35.142999999999994 207.165 1.516999999999996 165.683 1.5319999999999965 C 124.202 1.5319999999999965 90.56599999999999 35.16 90.57499999999999 76.64099999999999 C 90.57499999999999 76.64099999999999 90.60699999999999 81.202 90.67099999999999 88.94299999999998 C 82.80099999999999 88.99899999999998 78.16799999999999 89.04799999999999 78.16799999999999 89.04799999999999 C 36.68699999999999 89.04799999999999 3.0589999999999975 122.67599999999999 3.0589999999999975 164.14799999999997 C 3.059 205.622 36.694 239.25 78.168 239.257 z" stroke-linecap="round" />
</g>
		<g transform="matrix(1.56 0 0 1.56 213.11 210.79)"  >
<path style="stroke: none; stroke-width: 1; stroke-dasharray: none; stroke-linecap: butt; stroke-dashoffset: 0; stroke-linejoin: miter; stroke-miterlimit: 4; fill: rgb(128,237,153); fill-rule: nonzero; opacity: 1;" vector-effect="non-scaling-stroke"  transform=" translate(-392.58, -391.1)" d="M 437.198 272.973 C 437.198 272.973 432.306 272.99 424.032 272.981 C 394.327 273.006 321.486 272.521 274.274 272.117 C 273.871 320.225 273.395 394.463 273.402 422.78700000000003 C 273.40999999999997 430.13300000000004 273.419 434.41100000000006 273.419 434.41100000000006 C 273.11199999999997 475.91700000000003 306.498 509.7780000000001 347.98699999999997 510.07700000000006 C 389.46799999999996 510.36800000000005 423.33799999999997 476.97400000000005 423.628 435.5010000000001 C 423.628 435.5010000000001 423.628 430.9410000000001 423.62 423.19200000000006 C 431.49 423.1840000000001 436.124 423.19200000000006 436.124 423.19200000000006 C 477.596 423.4820000000001 511.475 390.09800000000007 511.75800000000004 348.6240000000001 C 512.064 307.142 478.671 273.273 437.198 272.973 z" stroke-linecap="round" />
</g>
		<g transform="matrix(1.56 0 0 1.56 213.98 -211.56)"  >
<path style="stroke: none; stroke-width: 1; stroke-dasharray: none; stroke-linecap: butt; stroke-dashoffset: 0; stroke-linejoin: miter; stroke-miterlimit: 4; fill: rgb(128,237,153); fill-rule: nonzero; opacity: 1;" vector-effect="non-scaling-stroke"  transform=" translate(-393.14, -120.79)" d="M 274.581 239.799 C 322.697 239.85500000000002 396.935 239.799 425.251 239.58100000000002 C 432.597 239.51700000000002 436.89099999999996 239.484 436.89099999999996 239.484 C 478.37299999999993 239.49200000000002 512.0079999999999 205.856 512.001 164.375 C 511.993 122.90100000000001 478.36499999999995 89.266 436.89099999999996 89.266 C 436.89099999999996 89.266 432.323 89.30600000000001 424.59 89.37100000000001 C 424.525 81.50000000000001 424.49199999999996 76.85900000000001 424.49199999999996 76.85900000000001 C 424.49199999999996 35.394000000000005 390.85699999999997 1.7580000000000098 349.383 1.7580000000000098 C 307.902 1.7500000000000098 274.26599999999996 35.38600000000001 274.274 76.85900000000001 C 274.274 76.85900000000001 274.323 81.76700000000001 274.379 90.03200000000001 C 274.606 119.737 274.654 192.578 274.581 239.799 z" stroke-linecap="round" />
</g>
		<g transform="matrix(1.56 0 0 1.56 -211.7 211.09)"  >
<path style="stroke: none; stroke-width: 1; stroke-dasharray: none; stroke-linecap: butt; stroke-dashoffset: 0; stroke-linejoin: miter; stroke-miterlimit: 4; fill: rgb(128,237,153); fill-rule: nonzero; opacity: 1;" vector-effect="non-scaling-stroke"  transform=" translate(-120.7, -391.28)" d="M 90.736 272.102 C 83.391 272.118 79.105 272.118 79.105 272.118 C 37.61600000000001 271.811 3.7460000000000093 305.197 3.456000000000003 346.686 C 3.201000000000003 383.18699999999995 29.040000000000003 413.772 63.498000000000005 420.794 C 56.399 429.786 48.255 438.044 39.828 444.978 C 32.393 451.121 24.798000000000002 456.27 17.823000000000004 460.113 C 10.865000000000004 463.955 4.481000000000003 466.473 0.0010000000000047748 467.547 L 9.812000000000005 507.68800000000005 C 22.097000000000005 504.653 34.557 498.73600000000005 47.254000000000005 490.65700000000004 C 62.793000000000006 480.68100000000004 78.396 467.17600000000004 92.016 450.992 C 99.17200000000001 484.74800000000005 128.99 510.21500000000003 164.917 510.466 C 206.391 510.772 240.269 477.371 240.559 435.913 C 240.559 435.913 240.551 431.00600000000003 240.551 422.724 C 240.535 393.02 241.003 320.195 241.40699999999998 272.974 C 193.306 272.57 119.069 272.094 90.736 272.102 z" stroke-linecap="round" />
</g>
</g>
</g>
<g transform="matrix(0 0 0 0 0 0)"  >
<g style=""   >
</g>
</g>
<g transform="matrix(NaN NaN NaN NaN 0 0)"  >
<g style=""   >
</g>
</g>
<g transform="matrix(NaN NaN NaN NaN 0 0)"  >
<g style=""   >
</g>
</g>
</svg>