<?xml version="1.0" encoding="UTF-8" standalone="no" ?>
<!DOCTYPE svg PUBLIC "-//W3C//DTD SVG 1.1//EN" "http://www.w3.org/Graphics/SVG/1.1/DTD/svg11.dtd">
<svg xmlns="http://www.w3.org/2000/svg" xmlns:xlink="http://www.w3.org/1999/xlink" version="1.1" width="900" height="900" viewBox="0 0 900 900" xml:space="preserve">
<desc>Created with Fabric.js 5.2.4</desc>
<defs>
</defs>
<rect x="0" y="0" width="100%" height="100%" fill="transparent"></rect>
<g transform="matrix(1 0 0 1 450 450)" id="89089623-730e-4f61-a449-9b2ec0b2a641"  >
<rect style="stroke: none; stroke-width: 1; stroke-dasharray: none; stroke-linecap: butt; stroke-dashoffset: 0; stroke-linejoin: miter; stroke-miterlimit: 4; fill: rgb(255,255,255); fill-rule: nonzero; opacity: 1; visibility: hidden;" vector-effect="non-scaling-stroke"  x="-450" y="-450" rx="0" ry="0" width="900" height="900" />
</g>
<g transform="matrix(Infinity NaN NaN Infinity 0 0)" id="d4f351b7-3387-42d7-9771-fab92fd084c9"  >
</g>
<g transform="matrix(2.77 0 0 2.77 900 900)"  >
<rect style="stroke: none; stroke-width: 1; stroke-dasharray: none; stroke-linecap: butt; stroke-dashoffset: 0; stroke-linejoin: miter; stroke-miterlimit: 4; fill: rgb(255,255,255); fill-rule: nonzero; opacity: 1; visibility: hidden;" vector-effect="non-scaling-stroke"  x="-200" y="-200" rx="0" ry="0" width="400" height="400" />
</g>
<g transform="matrix(1.28 0 0 1.28 450 450)"  >
<g style="" vector-effect="non-scaling-stroke"   >
		<g transform="matrix(1 0 0 1 0 0)" clip-path="url(#CLIPPATH_10)"  >
<clipPath id="CLIPPATH_10" >
	<rect transform="matrix(1 0 0 1 0 0)" id="clip0" x="-640" y="-360" rx="0" ry="0" width="1280" height="720" />
</clipPath>
<rect style="stroke: none; stroke-width: 1; stroke-dasharray: none; stroke-linecap: butt; stroke-dashoffset: 0; stroke-linejoin: miter; stroke-miterlimit: 4; fill: rgb(255,255,255); fill-opacity: 0; fill-rule: nonzero; opacity: 1;" vector-effect="non-scaling-stroke"  x="-640" y="-360" rx="0" ry="0" width="1280" height="720" />
</g>
		<g transform="matrix(1 0 0 1 -15.78 -11.24)" clip-path="url(#CLIPPATH_11)"  >
<clipPath id="CLIPPATH_11" >
	<rect transform="matrix(1 0 0 1 -21.22 11.24)" id="clip3" clip-path="url(#undefined)" x="-395" y="-395" rx="0" ry="0" width="790" height="790" />
</clipPath>
<path style="stroke: none; stroke-width: 1; stroke-dasharray: none; stroke-linecap: butt; stroke-dashoffset: 0; stroke-linejoin: miter; stroke-miterlimit: 4; fill: rgb(128,237,153); fill-rule: nonzero; opacity: 1;" vector-effect="non-scaling-stroke"  transform=" translate(-624.22, -348.76)" d="M 846.88 257.958 C 846.841 257.934 846.829 257.883 846.853 257.845 C 846.86 257.834 846.869 257.825 846.88 257.818 C 885.466 219.964 875.632 186.274 869.098 172.819 C 853.509 142.807 820.197 126.439 786.914 132.439 C 759.757 138.685 734.247 156.303 712.102 177.419 C 723.138 148.066 729.178 117.561 723.212 91.1696 C 714.309 58.3624 685.269 35.0364 651.313 33.4173 C 636.888 33.2856 602.498 38.5276 584.279 88.8819 C 584.251 88.9181 584.2 88.9255 584.163 88.8983 C 584.157 88.8934 584.152 88.8885 584.147 88.8819 C 546.622 50.6327 513.376 59.9975 500.078 66.3175 C 469.836 81.8879 453.106 115.202 458.677 148.757 C 465.095 173.515 477.728 196.222 495.379 214.731 C 468.363 202.586 438.812 197.151 409.244 198.889 C 378.517 201.901 349.171 235.164 346.505 270.063 C 345.312 285.427 348.406 320.969 397.608 339.295 C 397.674 339.295 397.682 339.378 397.608 339.427 C 361.671 374.393 367.02 404.948 374.032 420.814 C 387.902 448.218 415.931 465.568 446.646 465.761 C 450.106 465.768 453.561 465.509 456.982 464.988 C 484.245 460.824 513.491 443.082 539.792 421.134 C 499.206 492.602 479.858 574.168 484.023 656.25 C 484.225 660.646 487.851 664.106 492.252 664.101 L 492.639 664.101 C 497.179 663.885 500.684 660.03 500.468 655.49 C 500.467 655.469 500.465 655.449 500.465 655.427 C 496.45 571.944 517.432 489.162 560.727 417.67 C 549.033 454.915 542.4 494.201 548.144 523.629 C 556.267 556.368 584.842 579.945 618.528 581.702 C 619.088 581.702 619.664 581.702 620.265 581.702 C 636.164 581.702 669.302 575.341 687.135 526.139 C 687.162 526.102 687.214 526.095 687.25 526.122 C 687.257 526.127 687.262 526.132 687.267 526.139 C 724.232 563.878 756.885 555.221 769.937 549.271 C 800.415 533.695 817.614 500.461 812.729 466.584 C 807.725 438.926 788.041 412.996 763.716 390.382 C 781.544 396.36 800.168 399.631 818.966 400.084 C 827.724 400.169 836.452 399.081 844.921 396.85 C 877.783 386.76 900.71 357.044 902.13 322.697 C 902.04 308.543 896.123 275.774 846.88 257.958 Z M 840.593 380.935 C 785.869 395.863 695.759 345.319 655.757 316.484 C 652.091 313.798 646.941 314.593 644.255 318.259 C 641.57 321.926 642.365 327.075 646.031 329.761 C 646.063 329.785 646.096 329.809 646.129 329.832 C 665.581 343.678 686.038 356.056 707.329 366.863 C 747.192 393.912 789.489 430.491 796.534 469.456 C 800.118 495.94 786.749 521.837 763.082 534.253 C 740.098 544.794 714.135 534.253 690.007 504.455 C 687.15 500.92 681.969 500.372 678.434 503.229 C 677.06 504.34 676.08 505.863 675.639 507.574 C 665.846 545.551 646.014 566.165 619.022 565.244 C 593.024 563.72 570.952 545.653 564.323 520.469 C 554.761 471.571 584.682 386.333 611.805 342.167 C 612.06 341.756 612.472 341.007 612.472 341.007 C 613.402 339.583 614.414 338.094 615.245 336.761 C 617.747 332.966 616.698 327.863 612.904 325.361 C 609.109 322.859 604.006 323.908 601.504 327.702 C 601.418 327.834 601.334 327.967 601.255 328.104 C 573.869 372.41 505.855 440.843 454.538 448.694 C 427.687 451.816 401.687 438.075 389.14 414.131 C 379.175 391.592 389.889 366.048 419.317 342.2 C 422.82 339.305 423.314 334.118 420.419 330.614 C 419.327 329.295 417.852 328.348 416.198 327.906 C 379.759 318.509 360.849 298.429 362.947 271.372 C 365.004 244.775 388.301 217.528 410.882 215.307 C 458.669 210.632 521.054 237.106 596.277 294.06 C 599.901 296.802 605.063 296.087 607.806 292.463 C 610.549 288.839 609.833 283.677 606.209 280.934 C 587.348 266.536 567.699 253.201 547.354 240.99 C 511.697 212.435 481.751 178.448 474.814 145.408 C 470.793 119.321 483.773 93.556 507.13 81.2617 C 530.608 70.1029 556.991 80.521 581.39 110.64 C 584.248 114.173 589.43 114.721 592.964 111.863 C 594.338 110.75 595.318 109.225 595.758 107.513 C 605.436 69.9959 625.235 49.5135 651.05 49.9085 C 677.416 51.3923 699.938 69.4339 707.14 94.8398 C 721.879 160.007 649.297 260.871 634.592 280.424 C 631.865 284.06 632.602 289.218 636.238 291.945 C 639.873 294.672 645.031 293.935 647.758 290.299 C 662.01 271.265 675.043 251.35 686.781 230.67 C 715.303 193.582 752.615 157.217 790.592 148.494 C 816.409 144.168 842.089 156.887 854.294 180.045 C 865.889 203.852 855.561 230.514 825.212 255.111 C 821.674 257.964 821.119 263.144 823.971 266.683 C 825.077 268.054 826.594 269.034 828.298 269.479 C 865.124 278.976 885.507 297.919 885.68 322.804 C 884.234 349.687 866.269 372.856 840.593 380.951 Z" stroke-linecap="round" />
</g>
</g>
</g>
</svg>