<?xml version="1.0" standalone="no"?>
<!DOCTYPE svg PUBLIC "-//W3C//DTD SVG 20010904//EN"
 "http://www.w3.org/TR/2001/REC-SVG-20010904/DTD/svg10.dtd">
<svg version="1.0" xmlns="http://www.w3.org/2000/svg"
 width="1280.000000pt" height="1280.000000pt" viewBox="0 0 1280.000000 1280.000000"
 preserveAspectRatio="xMidYMid meet">
<metadata>
Created by potrace 1.16, written by Peter Selinger 2001-2019
</metadata>
<g transform="translate(0.000000,1280.000000) scale(0.100000,-0.100000)"
fill="#000000" stroke="none">
<path d="M6263 10655 c-29 -8 -76 -26 -104 -41 -28 -14 -1143 -754 -2478
-1643 -2616 -1744 -2495 -1659 -2561 -1794 -33 -68 -60 -177 -60 -247 0 -224
163 -444 378 -510 61 -19 94 -20 778 -20 l714 0 0 -2165 c0 -1531 3 -2180 11
-2217 39 -187 189 -346 378 -402 48 -14 159 -16 945 -16 740 0 900 3 945 15
166 44 305 173 367 340 18 47 19 109 24 1075 5 1018 5 1025 26 1071 26 55 77
108 130 135 37 18 66 19 644 19 578 0 607 -1 644 -19 53 -27 104 -80 130 -135
21 -46 21 -53 26 -1071 5 -966 6 -1028 24 -1075 61 -166 202 -296 367 -340 45
-12 205 -15 945 -15 786 0 897 2 945 16 189 56 339 215 378 402 8 37 11 686
11 2217 l0 2165 714 0 c684 0 717 1 778 20 215 66 378 286 378 510 0 70 -27
179 -60 247 -66 135 55 50 -2561 1794 -1335 889 -2449 1629 -2478 1643 -108
55 -263 72 -378 41z"/>
</g>
</svg>
