<?xml version="1.0" encoding="UTF-8" standalone="no" ?>
<!DOCTYPE svg PUBLIC "-//W3C//DTD SVG 1.1//EN" "http://www.w3.org/Graphics/SVG/1.1/DTD/svg11.dtd">
<svg xmlns="http://www.w3.org/2000/svg" xmlns:xlink="http://www.w3.org/1999/xlink" version="1.1" width="800" height="800" viewBox="-140 -140 800 800" xml:space="preserve">
<desc>Created with Fabric.js 5.2.4</desc>
<defs>
</defs>
<rect x="0" y="0" width="100%" height="100%" fill="transparent"></rect>
<g transform="matrix(1 0 0 1 400 400)" id="12a03f7d-9568-4106-9f62-95197b16a236"  >
<rect style="stroke: none; stroke-width: 1; stroke-dasharray: none; stroke-linecap: butt; stroke-dashoffset: 0; stroke-linejoin: miter; stroke-miterlimit: 4; fill: rgb(255,255,255); fill-rule: nonzero; opacity: 1; visibility: hidden;" vector-effect="non-scaling-stroke"  x="-400" y="-400" rx="0" ry="0" width="800" height="800" />
</g>
<g transform="matrix(Infinity NaN NaN Infinity 0 0)" id="8ad262da-85cb-4c64-a7c7-012712ca7536"  >
</g>
<g transform="matrix(36.96 0 0 36.96 233.4 233.65)" id="ed7b3a62-8b47-41e0-9198-be3f4a50db8d"  >
<path style="stroke: rgb(0,0,0); stroke-width: 0; stroke-dasharray: none; stroke-linecap: butt; stroke-dashoffset: 0; stroke-linejoin: miter; stroke-miterlimit: 4; fill: rgb(82,183,136); fill-rule: nonzero; opacity: 1;" vector-effect="non-scaling-stroke"  transform=" translate(-12, -12.34)" d="M 12.2796 3.71579 C 12.097 3.66261 11.903 3.66261 11.7203 3.71579 C 11.6678 3.7311 11.5754 3.7694 11.3789 3.91817 C 11.1723 4.07463 10.9193 4.29855 10.5251 4.64896 L 5.28544 9.3064 C 4.64309 9.87739 4.46099 10.0496 4.33439 10.24 C 4.21261 10.4232 4.12189 10.6252 4.06588 10.8379 C 4.00765 11.0591 3.99995 11.3095 3.99995 12.169 L 3.99995 17.17 C 3.99995 18.041 4.00076 18.6331 4.03874 19.0905 C 4.07573 19.536 4.14275 19.7634 4.22513 19.9219 C 4.41488 20.2872 4.71272 20.5851 5.07801 20.7748 C 5.23658 20.8572 5.46397 20.9242 5.90941 20.9612 C 6.36681 20.9992 6.95893 21 7.82995 21 L 7.99995 21 L 7.99995 18 C 7.99995 15.7909 9.79081 14 12 14 C 14.2091 14 16 15.7909 16 18 L 16 21 L 16.17 21 C 17.041 21 17.6331 20.9992 18.0905 20.9612 C 18.5359 20.9242 18.7633 20.8572 18.9219 20.7748 C 19.2872 20.5851 19.585 20.2872 19.7748 19.9219 C 19.8572 19.7634 19.9242 19.536 19.9612 19.0905 C 19.9991 18.6331 20 18.041 20 17.17 L 20 12.169 C 20 11.3095 19.9923 11.0591 19.934 10.8379 C 19.878 10.6252 19.7873 10.4232 19.6655 10.24 C 19.5389 10.0496 19.3568 9.87739 18.7145 9.3064 L 13.4748 4.64896 C 13.0806 4.29855 12.8276 4.07463 12.621 3.91817 C 12.4245 3.7694 12.3321 3.7311 12.2796 3.71579 Z M 11.1611 1.79556 C 11.709 1.63602 12.2909 1.63602 12.8388 1.79556 C 13.2189 1.90627 13.5341 2.10095 13.8282 2.32363 C 14.1052 2.53335 14.4172 2.81064 14.7764 3.12995 L 20.0432 7.81159 C 20.0716 7.83679 20.0995 7.86165 20.1272 7.88619 C 20.6489 8.34941 21.0429 8.69935 21.3311 9.13277 C 21.5746 9.49916 21.7561 9.90321 21.8681 10.3287 C 22.0006 10.832 22.0004 11.359 22 12.0566 C 22 12.0936 22 12.131 22 12.169 L 22 17.212 C 22 18.0305 22 18.7061 21.9543 19.2561 C 21.9069 19.8274 21.805 20.3523 21.5496 20.8439 C 21.1701 21.5745 20.5744 22.1701 19.8439 22.5496 C 19.3522 22.805 18.8274 22.9069 18.256 22.9543 C 17.706 23 17.0305 23 16.2119 23 L 15.805 23 C 15.7972 23 15.7894 23 15.7814 23 C 15.6603 23 15.5157 23.0001 15.3883 22.9895 C 15.2406 22.9773 15.0292 22.9458 14.8085 22.8311 C 14.5345 22.6888 14.3111 22.4654 14.1688 22.1915 C 14.0542 21.9707 14.0227 21.7593 14.0104 21.6116 C 13.9998 21.4843 13.9999 21.3396 13.9999 21.2185 L 14 18 C 14 16.8954 13.1045 16 12 16 C 10.8954 16 9.99995 16.8954 9.99995 18 L 9.99996 21.2185 C 10 21.3396 10.0001 21.4843 9.98949 21.6116 C 9.97722 21.7593 9.94572 21.9707 9.83107 22.1915 C 9.68876 22.4654 9.46538 22.6888 9.19142 22.8311 C 8.9707 22.9458 8.75929 22.9773 8.6116 22.9895 C 8.48423 23.0001 8.33959 23 8.21847 23 C 8.21053 23 8.20268 23 8.19495 23 L 7.78798 23 C 6.96944 23 6.29389 23 5.74388 22.9543 C 5.17253 22.9069 4.64769 22.805 4.15605 22.5496 C 3.42548 22.1701 2.8298 21.5745 2.4503 20.8439 C 2.19492 20.3523 2.09305 19.8274 2.0456 19.2561 C 1.99993 18.7061 1.99994 18.0305 1.99995 17.212 L 1.99995 12.169 C 1.99995 12.131 1.99993 12.0936 1.99992 12.0566 C 1.99955 11.359 1.99928 10.832 2.1318 10.3287 C 2.24383 9.90321 2.42528 9.49916 2.66884 9.13277 C 2.95696 8.69935 3.35105 8.34941 3.87272 7.8862 C 3.90036 7.86165 3.92835 7.83679 3.95671 7.81159 L 9.22354 3.12996 C 9.58274 2.81064 9.89467 2.53335 10.1717 2.32363 C 10.4658 2.10095 10.781 1.90627 11.1611 1.79556 Z" stroke-linecap="round" />
</g>
<g transform="matrix(NaN NaN NaN NaN 0 0)"  >
<g style=""   >
</g>
</g>
</svg>