<?xml version="1.0" encoding="UTF-8" standalone="no" ?>
<!DOCTYPE svg PUBLIC "-//W3C//DTD SVG 1.1//EN" "http://www.w3.org/Graphics/SVG/1.1/DTD/svg11.dtd">
<svg xmlns="http://www.w3.org/2000/svg" xmlns:xlink="http://www.w3.org/1999/xlink" version="1.1" width="900" height="900" viewBox="0 0 900 900" xml:space="preserve">
<desc>Created with Fabric.js 5.2.4</desc>
<defs>
</defs>
<rect x="0" y="0" width="100%" height="100%" fill="transparent"></rect>
<g transform="matrix(0 0 0 0 0 0)" id="d4f351b7-3387-42d7-9771-fab92fd084c9"  >
</g>
<g transform="matrix(1 0 0 1 450 450)" id="89089623-730e-4f61-a449-9b2ec0b2a641"  >
<rect style="stroke: none; stroke-width: 1; stroke-dasharray: none; stroke-linecap: butt; stroke-dashoffset: 0; stroke-linejoin: miter; stroke-miterlimit: 4; fill: rgb(255,255,255); fill-rule: nonzero; opacity: 1; visibility: hidden;" vector-effect="non-scaling-stroke"  x="-450" y="-450" rx="0" ry="0" width="900" height="900" />
</g>
<g transform="matrix(2.77 0 0 2.77 899.28 899.28)"  >
<rect style="stroke: none; stroke-width: 1; stroke-dasharray: none; stroke-linecap: butt; stroke-dashoffset: 0; stroke-linejoin: miter; stroke-miterlimit: 4; fill: rgb(255,255,255); fill-rule: nonzero; opacity: 1; visibility: hidden;" vector-effect="non-scaling-stroke"  x="-200" y="-200" rx="0" ry="0" width="400" height="400" />
</g>
<g transform="matrix(1 0 0 1 450 450)"  >
<path style="stroke: rgb(0,0,0); stroke-width: 0; stroke-dasharray: none; stroke-linecap: butt; stroke-dashoffset: 0; stroke-linejoin: miter; stroke-miterlimit: 4; fill: rgb(128,237,153); fill-rule: nonzero; opacity: 1;" vector-effect="non-scaling-stroke"  transform=" translate(-512, -512.03)" d="M 512 64 C 759.44124103619 64 960.0319999999999 264.59075896380983 960.0319999999999 512.0319999999999 C 960.032 759.4732410361898 759.4412410361901 960.0639999999999 512.0000000000001 960.064 C 264.55875896380996 960.064 63.96800000000002 759.4732410361901 63.96800000000002 512.0319999999999 C 63.96800000000002 264.5907589638099 264.55875896380996 64 512 64 z M 579.2 339.072 C 612.48 339.072 639.488 315.968 639.488 281.728 C 639.488 247.488 612.416 224.38400000000001 579.2 224.38400000000001 C 545.9200000000001 224.38400000000001 519.0400000000001 247.488 519.0400000000001 281.728 C 519.0400000000001 315.968 545.9200000000001 339.072 579.2 339.072 z M 590.912 699.2 C 590.912 692.3520000000001 593.2800000000001 674.5600000000001 591.936 664.4480000000001 L 539.3280000000001 724.9920000000001 C 528.4480000000001 736.4480000000001 514.816 744.3840000000001 508.4160000000001 742.272 C 502.4177868465436 740.0641811150789 498.9164567938346 733.8214996257527 500.1600000000001 727.552 L 587.8400000000001 450.56 C 595.0080000000002 415.424 575.2960000000002 383.36 533.5040000000001 379.264 C 489.40800000000013 379.264 424.5120000000001 424 385.0240000000001 480.76800000000003 C 385.0240000000001 487.552 383.74400000000014 504.44800000000004 385.08800000000014 514.5600000000001 L 437.6320000000001 453.95200000000006 C 448.5120000000001 442.6240000000001 461.18400000000014 434.6240000000001 467.5840000000001 436.80000000000007 C 474.14302423133546 439.15420890020795 477.6135665825324 446.3228701502213 475.3920000000001 452.92800000000005 L 388.48 728.576 C 378.432 760.832 397.44 792.448 443.52000000000004 799.616 C 511.36 799.616 551.424 755.968 590.976 699.2 z" stroke-linecap="round" />
</g>
<g transform="matrix(0 0 0 0 0 0)"  >
<g style=""   >
</g>
</g>
<g transform="matrix(NaN NaN NaN NaN 0 0)"  >
<g style=""   >
</g>
</g>
</svg>