<?xml version="1.0" encoding="UTF-8" standalone="no" ?>
<!DOCTYPE svg PUBLIC "-//W3C//DTD SVG 1.1//EN" "http://www.w3.org/Graphics/SVG/1.1/DTD/svg11.dtd">
<svg xmlns="http://www.w3.org/2000/svg" xmlns:xlink="http://www.w3.org/1999/xlink" version="1.1" width="1080" height="1080" viewBox="26.67 -40 1080 1080" xml:space="preserve">
<desc>Created with Fabric.js 5.2.4</desc>
<defs>
</defs>
<rect x="0" y="0" width="100%" height="100%" fill="transparent"></rect>
<g transform="matrix(0 0 0 0 0 0)" id="758df034-4c15-4705-9851-c8a090da0210"  >
</g>
<g transform="matrix(1 0 0 1 540 540)" id="0707273d-fd2e-466d-8c44-d73b46202798"  >
<rect style="stroke: none; stroke-width: 1; stroke-dasharray: none; stroke-linecap: butt; stroke-dashoffset: 0; stroke-linejoin: miter; stroke-miterlimit: 4; fill: rgb(255,255,255); fill-rule: nonzero; opacity: 1; visibility: hidden;" vector-effect="non-scaling-stroke"  x="-540" y="-540" rx="0" ry="0" width="1080" height="1080" />
</g>
<g transform="matrix(0 0 0 0 0 0)"  >
<g style=""   >
</g>
</g>
<g transform="matrix(0 0 0 0 0 0)"  >
<g style=""   >
</g>
</g>
<g transform="matrix(0 0 0 0 0 0)"  >
<g style=""   >
</g>
</g>
<g transform="matrix(0 0 0 0 0 0)"  >
<g style=""   >
</g>
</g>
<g transform="matrix(0.58 0 0 0.58 566.15 497.65)"  >
<path style="stroke: rgb(0,0,0); stroke-width: 0; stroke-dasharray: none; stroke-linecap: butt; stroke-dashoffset: 0; stroke-linejoin: miter; stroke-miterlimit: 4; fill: rgb(128,237,153); fill-rule: nonzero; opacity: 1;" vector-effect="non-scaling-stroke"  transform=" translate(-511.2, -510.8)" d="M 512 1012.8 C 258.4 1012.8 0.8000000000000114 958.4 0.8000000000000114 854.4 C 0.8000000000000114 761.6 199.20000000000002 723.2 284 711.2 L 287.2 711.2 C 299.2 711.2 309.59999999999997 720 311.2 732 C 312 738.4 310.4 744.8 306.4 749.6 C 302.4 754.4 296.79999999999995 758.4 290.4 759.2 C 113.59999999999997 784.8000000000001 47.99999999999997 831.2 47.99999999999997 855.2 C 47.99999999999997 900 228.79999999999998 965.6 511.19999999999993 965.6 C 793.5999999999999 965.6 974.3999999999999 900 974.3999999999999 855.2 C 974.3999999999999 831.2 907.9999999999999 784.8000000000001 729.5999999999999 759.2 C 723.1999999999999 758.4000000000001 717.5999999999999 755.2 713.5999999999999 749.6 C 709.5999999999999 744.8000000000001 707.9999999999999 738.4 708.8 732 C 710.4 720 720.8 711.2 732.8 711.2 L 736 711.2 C 821.6 723.2 1021.6 761.6 1021.6 854.4000000000001 C 1022.4 957.6000000000001 765.6 1012.8000000000001 512 1012.8000000000001 z M 495.2 843.1999999999999 C 483.2 831.9999999999999 206.39999999999998 570.3999999999999 206.39999999999998 313.5999999999999 C 206.39999999999998 145.5999999999999 343.2 8.799999999999898 511.2 8.799999999999898 C 679.2 8.799999999999898 816 145.6 816 313.6 C 816 563.2 539.2 831.2 527.2 842.4 L 511.20000000000005 858.4 L 495.20000000000005 843.1999999999999 z M 512 56.8 C 370.4 56.8 255.2 172 255.2 313.6 C 255.2 514.4000000000001 451.2 729.6 512 791.2 C 573.6 728 769.6 508.80000000000007 769.6 313.6 C 768.8 172.8 653.6 56.8 512 56.8 z M 512 449.6 C 432 449.6 367.2 384.8 367.2 304.8 C 367.2 224.8 432 160 512 160 C 592 160 656.8 224.8 656.8 304.8 C 656.8 384.8 592 449.6 511.99999999999994 449.6 z M 512 208 C 458.4 208 415.2 251.2 415.2 304.8 C 415.2 358.40000000000003 458.4 401.6 512 401.6 C 565.6 401.6 608.8 358.40000000000003 608.8 304.8 C 608.8 251.2 564.8 208 512 208 z" stroke-linecap="round" />
</g>
<g transform="matrix(0 0 0 0 0 0)"  >
<g style=""   >
</g>
</g>
<g transform="matrix(NaN NaN NaN NaN 0 0)"  >
<g style=""   >
</g>
</g>
</svg>