<?xml version="1.0" encoding="UTF-8" standalone="no" ?>
<!DOCTYPE svg PUBLIC "-//W3C//DTD SVG 1.1//EN" "http://www.w3.org/Graphics/SVG/1.1/DTD/svg11.dtd">
<svg xmlns="http://www.w3.org/2000/svg" xmlns:xlink="http://www.w3.org/1999/xlink" version="1.1" width="1080" height="1080" viewBox="26.67 -40 1080 1080" xml:space="preserve">
<desc>Created with Fabric.js 5.2.4</desc>
<defs>
</defs>
<rect x="0" y="0" width="100%" height="100%" fill="transparent"></rect>
<g transform="matrix(1 0 0 1 540 540)" id="0707273d-fd2e-466d-8c44-d73b46202798"  >
<rect style="stroke: none; stroke-width: 1; stroke-dasharray: none; stroke-linecap: butt; stroke-dashoffset: 0; stroke-linejoin: miter; stroke-miterlimit: 4; fill: rgb(255,255,255); fill-rule: nonzero; opacity: 1; visibility: hidden;" vector-effect="non-scaling-stroke"  x="-540" y="-540" rx="0" ry="0" width="1080" height="1080" />
</g>
<g transform="matrix(0 0 0 0 0 0)" id="758df034-4c15-4705-9851-c8a090da0210"  >
</g>
<g transform="matrix(0 0 0 0 0 0)"  >
<g style=""   >
</g>
</g>
<g transform="matrix(0 0 0 0 0 0)"  >
<g style=""   >
</g>
</g>
<g transform="matrix(0 0 0 0 0 0)"  >
<g style=""   >
</g>
</g>
<g transform="matrix(0.78 0 0 0.78 564.15 501.81)"  >
<g style="" vector-effect="non-scaling-stroke"   >
		<g transform="matrix(33.33 0 0 33.33 -0.01 -66.68)"  >
<path style="stroke: none; stroke-width: 1; stroke-dasharray: none; stroke-linecap: butt; stroke-dashoffset: 0; stroke-linejoin: miter; stroke-miterlimit: 4; fill: rgb(128,237,153); fill-rule: evenodd; opacity: 1;" vector-effect="non-scaling-stroke"  transform=" translate(-12, -10)" d="M 12 6 C 9.79086 6 8 7.79086 8 10 C 8 12.2091 9.79086 14 12 14 C 14.2091 14 16 12.2091 16 10 C 16 7.79086 14.2091 6 12 6 Z M 12 8 C 10.8954 8 10 8.89543 10 10 C 10 11.1046 10.8954 12 12 12 C 13.1046 12 14 11.1046 14 10 C 14 8.89543 13.1046 8 12 8 Z" stroke-linecap="round" />
</g>
		<g transform="matrix(33.33 0 0 33.33 -0.03 -0.03)"  >
<path style="stroke: none; stroke-width: 1; stroke-dasharray: none; stroke-linecap: butt; stroke-dashoffset: 0; stroke-linejoin: miter; stroke-miterlimit: 4; fill: rgb(128,237,153); fill-rule: evenodd; opacity: 1;" vector-effect="non-scaling-stroke"  transform=" translate(-12, -12)" d="M 11.0901 22.5958 C 11.2059 22.6753 11.2981 22.7366 11.3626 22.7788 L 11.4687 22.8472 C 11.7933 23.0504 12.2061 23.0508 12.5307 22.8476 L 12.6375 22.7788 C 12.7019 22.7366 12.7941 22.6753 12.9099 22.5958 C 13.1415 22.4367 13.4685 22.2041 13.8591 21.9041 C 14.6386 21.3054 15.6801 20.4322 16.7247 19.3336 C 18.7857 17.1661 21 13.9725 21 10.1818 C 21 7.75381 20.0571 5.42084 18.3719 3.69728 C 16.6859 1.97296 14.3943 1 12 1 C 9.60571 1 7.31415 1.97296 5.62814 3.69728 C 3.94288 5.42084 3 7.75381 3 10.1818 C 3 13.9725 5.21434 17.1661 7.27531 19.3336 C 8.31993 20.4322 9.36136 21.3054 10.1409 21.9041 C 10.5315 22.2041 10.8585 22.4367 11.0901 22.5958 Z M 12 3 C 10.1508 3 8.37273 3.75107 7.05815 5.09552 C 5.74283 6.44073 5 8.26992 5 10.1818 C 5 13.2007 6.78566 15.9162 8.72469 17.9554 C 9.68007 18.9602 10.6386 19.7646 11.3591 20.3179 C 11.6046 20.5065 11.8215 20.6651 12 20.7918 C 12.1785 20.6651 12.3954 20.5065 12.6409 20.3179 C 13.3614 19.7646 14.3199 18.9602 15.2753 17.9554 C 17.2143 15.9162 19 13.2007 19 10.1818 C 19 8.26992 18.2572 6.44073 16.9418 5.09552 C 15.6273 3.75107 13.8492 3 12 3 Z" stroke-linecap="round" />
</g>
</g>
</g>
<g transform="matrix(NaN NaN NaN NaN 0 0)"  >
<g style=""   >
</g>
</g>
</svg>