<?xml version="1.0" encoding="UTF-8" standalone="no" ?>
<!DOCTYPE svg PUBLIC "-//W3C//DTD SVG 1.1//EN" "http://www.w3.org/Graphics/SVG/1.1/DTD/svg11.dtd">
<svg xmlns="http://www.w3.org/2000/svg" xmlns:xlink="http://www.w3.org/1999/xlink" version="1.1" width="400" height="400" viewBox="0 0 400 400" xml:space="preserve">
<desc>Created with Fabric.js 5.2.4</desc>
<defs>
</defs>
<rect x="0" y="0" width="100%" height="100%" fill="transparent"></rect>
<g transform="matrix(Infinity NaN NaN Infinity 0 0)" id="6a42ad79-d41b-4770-95b8-6c3a443a9029"  >
</g>
<g transform="matrix(1 0 0 1 200 200)" id="45a06fce-c542-4879-898a-b2cdaaf7a10f"  >
<rect style="stroke: none; stroke-width: 1; stroke-dasharray: none; stroke-linecap: butt; stroke-dashoffset: 0; stroke-linejoin: miter; stroke-miterlimit: 4; fill: rgb(255,255,255); fill-rule: nonzero; opacity: 1; visibility: hidden;" vector-effect="non-scaling-stroke"  x="-200" y="-200" rx="0" ry="0" width="400" height="400" />
</g>
<g transform="matrix(0 0 NaN NaN 219.37 0)"  >
<g style=""   >
</g>
</g>
<g transform="matrix(0 0 NaN NaN 219.37 0)"  >
<g style=""   >
</g>
</g>
<g transform="matrix(0 0 NaN NaN 219.37 0)"  >
<g style=""   >
</g>
</g>
<g transform="matrix(0 0 NaN NaN 219.37 0)"  >
<g style=""   >
</g>
</g>
<g transform="matrix(0 0 NaN NaN 219.37 0)"  >
<g style=""   >
</g>
</g>
<g transform="matrix(4.61 0 0 4.61 200 200)" id="75bcb3b5-89d9-47e5-862a-2cfa54ef9b7f"  >
<circle style="stroke: rgb(0,0,0); stroke-width: 0; stroke-dasharray: none; stroke-linecap: butt; stroke-dashoffset: 0; stroke-linejoin: miter; stroke-miterlimit: 4; fill: rgb(30,30,30); fill-rule: nonzero; opacity: 1;" vector-effect="non-scaling-stroke"  cx="0" cy="0" r="35" />
</g>
<g transform="matrix(0 0 NaN NaN 219.37 0)"  >
<g style=""   >
</g>
</g>
<g transform="matrix(0 0 NaN NaN 219.37 0)"  >
<g style=""   >
</g>
</g>
<g transform="matrix(0.41 0 0 0.41 209 200)"  >
<g style="" vector-effect="non-scaling-stroke"   >
		<g transform="matrix(1 0 0 1 0 0)" clip-path="url(#CLIPPATH_33)"  >
<clipPath id="CLIPPATH_33" >
	<rect transform="matrix(1 0 0 1 0 0)" id="clip0" x="-640" y="-360" rx="0" ry="0" width="1280" height="720" />
</clipPath>
<rect style="stroke: none; stroke-width: 1; stroke-dasharray: none; stroke-linecap: butt; stroke-dashoffset: 0; stroke-linejoin: miter; stroke-miterlimit: 4; fill: rgb(255,255,255); fill-opacity: 0; fill-rule: nonzero; opacity: 1;" vector-effect="non-scaling-stroke"  x="-640" y="-360" rx="0" ry="0" width="1280" height="720" />
</g>
		<g transform="matrix(1 0 0 1 -17.78 -11.24)" clip-path="url(#CLIPPATH_34)"  >
<clipPath id="CLIPPATH_34" >
	<rect transform="matrix(1 0 0 1 -21.22 11.24)" id="clip3" clip-path="url(#undefined)" x="-395" y="-395" rx="0" ry="0" width="790" height="790" />
</clipPath>
<path style="stroke: rgb(255,255,255); stroke-width: 0.666667; stroke-dasharray: none; stroke-linecap: butt; stroke-dashoffset: 0; stroke-linejoin: miter; stroke-miterlimit: 4; fill: rgb(0,176,80); fill-rule: nonzero; opacity: 1;" vector-effect="non-scaling-stroke"  transform=" translate(-622.22, -348.76)" d="M 844.88 257.958 C 844.841 257.934 844.829 257.883 844.853 257.845 C 844.86 257.834 844.869 257.825 844.88 257.818 C 883.466 219.964 873.632 186.274 867.098 172.819 C 851.509 142.807 818.197 126.439 784.914 132.439 C 757.757 138.685 732.247 156.303 710.102 177.419 C 721.138 148.066 727.178 117.561 721.212 91.1696 C 712.309 58.3624 683.269 35.0364 649.313 33.4173 C 634.888 33.2856 600.498 38.5276 582.279 88.8819 C 582.251 88.9181 582.2 88.9255 582.163 88.8983 C 582.157 88.8934 582.152 88.8885 582.147 88.8819 C 544.622 50.6327 511.376 59.9975 498.078 66.3175 C 467.836 81.8879 451.106 115.202 456.677 148.757 C 463.095 173.515 475.728 196.222 493.379 214.731 C 466.363 202.586 436.812 197.151 407.244 198.889 C 376.517 201.901 347.171 235.164 344.505 270.063 C 343.312 285.427 346.406 320.969 395.608 339.295 C 395.674 339.295 395.682 339.378 395.608 339.427 C 359.671 374.393 365.02 404.948 372.032 420.814 C 385.902 448.218 413.931 465.568 444.646 465.761 C 448.106 465.768 451.561 465.509 454.982 464.988 C 482.245 460.824 511.491 443.082 537.792 421.134 C 497.206 492.602 477.858 574.168 482.023 656.25 C 482.225 660.646 485.851 664.106 490.252 664.101 L 490.639 664.101 C 495.179 663.885 498.684 660.03 498.468 655.49 C 498.467 655.469 498.465 655.449 498.465 655.427 C 494.45 571.944 515.432 489.162 558.727 417.67 C 547.033 454.915 540.4 494.201 546.144 523.629 C 554.267 556.368 582.842 579.945 616.528 581.702 C 617.088 581.702 617.664 581.702 618.265 581.702 C 634.164 581.702 667.302 575.341 685.135 526.139 C 685.162 526.102 685.214 526.095 685.25 526.122 C 685.257 526.127 685.262 526.132 685.267 526.139 C 722.232 563.878 754.885 555.221 767.937 549.271 C 798.415 533.695 815.614 500.461 810.729 466.584 C 805.725 438.926 786.041 412.996 761.716 390.382 C 779.544 396.36 798.168 399.631 816.966 400.084 C 825.724 400.169 834.452 399.081 842.921 396.85 C 875.783 386.76 898.71 357.044 900.13 322.697 C 900.04 308.543 894.123 275.774 844.88 257.958 Z M 838.593 380.935 C 783.869 395.863 693.759 345.319 653.757 316.484 C 650.091 313.798 644.941 314.593 642.255 318.259 C 639.57 321.926 640.365 327.075 644.031 329.761 C 644.063 329.785 644.096 329.809 644.129 329.832 C 663.581 343.678 684.038 356.056 705.329 366.863 C 745.192 393.912 787.489 430.491 794.534 469.456 C 798.118 495.94 784.749 521.837 761.082 534.253 C 738.098 544.794 712.135 534.253 688.007 504.455 C 685.15 500.92 679.969 500.372 676.434 503.229 C 675.06 504.34 674.08 505.863 673.639 507.574 C 663.846 545.551 644.014 566.165 617.022 565.244 C 591.024 563.72 568.952 545.653 562.323 520.469 C 552.761 471.571 582.682 386.333 609.805 342.167 C 610.06 341.756 610.472 341.007 610.472 341.007 C 611.402 339.583 612.414 338.094 613.245 336.761 C 615.747 332.966 614.698 327.863 610.904 325.361 C 607.109 322.859 602.006 323.908 599.504 327.702 C 599.418 327.834 599.334 327.967 599.255 328.104 C 571.869 372.41 503.855 440.843 452.538 448.694 C 425.687 451.816 399.687 438.075 387.14 414.131 C 377.175 391.592 387.889 366.048 417.317 342.2 C 420.82 339.305 421.314 334.118 418.419 330.614 C 417.327 329.295 415.852 328.348 414.198 327.906 C 377.759 318.509 358.849 298.429 360.947 271.372 C 363.004 244.775 386.301 217.528 408.882 215.307 C 456.669 210.632 519.054 237.106 594.277 294.06 C 597.901 296.802 603.063 296.087 605.806 292.463 C 608.549 288.839 607.833 283.677 604.209 280.934 C 585.348 266.536 565.699 253.201 545.354 240.99 C 509.697 212.435 479.751 178.448 472.814 145.408 C 468.793 119.321 481.773 93.556 505.13 81.2617 C 528.608 70.1029 554.991 80.521 579.39 110.64 C 582.248 114.173 587.43 114.721 590.964 111.863 C 592.338 110.75 593.318 109.225 593.758 107.513 C 603.436 69.9959 623.235 49.5135 649.05 49.9085 C 675.416 51.3923 697.938 69.4339 705.14 94.8398 C 719.879 160.007 647.297 260.871 632.592 280.424 C 629.865 284.06 630.602 289.218 634.238 291.945 C 637.873 294.672 643.031 293.935 645.758 290.299 C 660.01 271.265 673.043 251.35 684.781 230.67 C 713.303 193.582 750.615 157.217 788.592 148.494 C 814.409 144.168 840.089 156.887 852.294 180.045 C 863.889 203.852 853.561 230.514 823.212 255.111 C 819.674 257.964 819.119 263.144 821.971 266.683 C 823.077 268.054 824.594 269.034 826.298 269.479 C 863.124 278.976 883.507 297.919 883.68 322.804 C 882.234 349.687 864.269 372.856 838.593 380.951 Z" stroke-linecap="round" />
</g>
</g>
</g>
</svg>