<?xml version="1.0" encoding="UTF-8" standalone="no" ?>
<!DOCTYPE svg PUBLIC "-//W3C//DTD SVG 1.1//EN" "http://www.w3.org/Graphics/SVG/1.1/DTD/svg11.dtd">
<svg xmlns="http://www.w3.org/2000/svg" xmlns:xlink="http://www.w3.org/1999/xlink" version="1.1" width="1080" height="1080" viewBox="0 0 1080 1080" xml:space="preserve">
<desc>Created with Fabric.js 5.2.4</desc>
<defs>
</defs>
<rect x="0" y="0" width="100%" height="100%" fill="transparent"></rect>
<g transform="matrix(1 0 0 1 540 540)" id="1b871551-6f72-4494-916b-8979035edc73"  >
<rect style="stroke: none; stroke-width: 1; stroke-dasharray: none; stroke-linecap: butt; stroke-dashoffset: 0; stroke-linejoin: miter; stroke-miterlimit: 4; fill: rgb(255,255,255); fill-rule: nonzero; opacity: 1; visibility: hidden;" vector-effect="non-scaling-stroke"  x="-540" y="-540" rx="0" ry="0" width="1080" height="1080" />
</g>
<g transform="matrix(1 0 0 1 540 540)" id="b7c3d8da-4b4f-4602-b0b0-750dbb8242b1"  >
</g>
<g transform="matrix(35.03 0 0 35.03 540 523.41)" id="45a871bf-4fc3-4d37-8417-9bc0a8c1e7ff"  >
<path style="stroke: rgb(0,0,0); stroke-width: 0; stroke-dasharray: none; stroke-linecap: butt; stroke-dashoffset: 0; stroke-linejoin: miter; stroke-miterlimit: 4; fill: rgb(128,237,153); fill-rule: nonzero; opacity: 0.1;" vector-effect="non-scaling-stroke"  transform=" translate(-15.97, -19.47)" d="M 5.648 24.339 L 8.05 24.339 L 8.05 25.374 L 4.083 25.374 L 4.083 24.339 L 6.0760000000000005 22.58 C 6.2540000000000004 22.418999999999997 6.386 22.261999999999997 6.471 22.107999999999997 C 6.556 21.953999999999997 6.599 21.794999999999998 6.599 21.628999999999998 C 6.599 21.372999999999998 6.5120000000000005 21.166999999999998 6.339 21.011 C 6.168 20.855 5.94 20.776999999999997 5.655 20.776999999999997 C 5.436 20.776999999999997 5.196000000000001 20.824999999999996 4.9350000000000005 20.919999999999998 C 4.674 21.012999999999998 4.3950000000000005 21.151999999999997 4.098000000000001 21.337 L 4.098000000000001 20.137999999999998 C 4.415000000000001 20.032999999999998 4.728000000000001 19.953999999999997 5.038 19.9 C 5.348 19.843999999999998 5.651 19.816 5.948 19.816 C 6.601000000000001 19.816 7.1080000000000005 19.959999999999997 7.469 20.247 C 7.832000000000001 20.535 8.014000000000001 20.936 8.014000000000001 21.45 C 8.014000000000001 21.747 7.937000000000001 22.025 7.784000000000001 22.284 C 7.630000000000001 22.54 7.308000000000001 22.884 6.815 23.314999999999998 L 5.649000000000001 24.339 z M 27.449 26.392 C 27.817 26.487 28.096 26.653 28.286 26.889 C 28.479000000000003 27.123 28.575000000000003 27.422 28.575000000000003 27.785 C 28.575000000000003 28.326 28.368000000000002 28.738 27.953000000000003 29.021 C 27.539 29.301000000000002 26.934000000000005 29.441000000000003 26.140000000000004 29.441000000000003 C 25.860000000000003 29.441000000000003 25.578000000000003 29.418000000000003 25.295000000000005 29.372000000000003 C 25.015000000000004 29.328000000000003 24.737000000000005 29.261000000000003 24.461000000000006 29.171000000000003 L 24.461000000000006 28.085000000000004 C 24.724000000000007 28.217000000000006 24.985000000000007 28.317000000000004 25.243000000000006 28.385000000000005 C 25.504000000000005 28.451000000000004 25.760000000000005 28.484000000000005 26.011000000000006 28.484000000000005 C 26.384000000000007 28.484000000000005 26.669000000000008 28.419000000000004 26.867000000000008 28.290000000000006 C 27.067000000000007 28.161000000000005 27.16700000000001 27.976000000000006 27.16700000000001 27.734000000000005 C 27.16700000000001 27.485000000000007 27.06500000000001 27.298000000000005 26.86000000000001 27.171000000000006 C 26.65800000000001 27.042000000000005 26.35800000000001 26.977000000000007 25.96100000000001 26.977000000000007 L 25.39800000000001 26.977000000000007 L 25.39800000000001 26.070000000000007 L 25.99000000000001 26.070000000000007 C 26.34300000000001 26.070000000000007 26.60700000000001 26.015000000000008 26.78000000000001 25.90500000000001 C 26.953000000000007 25.79300000000001 27.04000000000001 25.623000000000008 27.04000000000001 25.39700000000001 C 27.04000000000001 25.18700000000001 26.95600000000001 25.02500000000001 26.78800000000001 24.91100000000001 C 26.62000000000001 24.797000000000008 26.382000000000012 24.739000000000008 26.07500000000001 24.739000000000008 C 25.84800000000001 24.739000000000008 25.61900000000001 24.765000000000008 25.38800000000001 24.81600000000001 C 25.157000000000007 24.86700000000001 24.92600000000001 24.94300000000001 24.69700000000001 25.04300000000001 L 24.69700000000001 24.01200000000001 C 24.97500000000001 23.93400000000001 25.25000000000001 23.87500000000001 25.52300000000001 23.83700000000001 C 25.79600000000001 23.79900000000001 26.06400000000001 23.77900000000001 26.32700000000001 23.77800000000001 C 27.03600000000001 23.77800000000001 27.56600000000001 23.89500000000001 27.91700000000001 24.12900000000001 C 28.27000000000001 24.361000000000008 28.44700000000001 24.710000000000008 28.44700000000001 25.178000000000008 C 28.44700000000001 25.497000000000007 28.36300000000001 25.759000000000007 28.19500000000001 25.96400000000001 C 28.02700000000001 26.16600000000001 27.77800000000001 26.309000000000008 27.449000000000012 26.39200000000001 z M 14.73 14.397 L 15.973 14.397 L 15.973 10.869 L 14.697000000000001 11.132 L 14.697000000000001 10.174 L 15.966000000000001 9.911 L 17.304000000000002 9.911 L 17.304000000000002 14.396999999999998 L 18.547 14.396999999999998 L 18.547 15.37 L 14.73 15.37 L 14.73 14.398 z M 30.949 30.949 L 30.949 21.964000000000002 L 21.964000000000002 21.964000000000002 L 21.964000000000002 7.987000000000002 L 10.982000000000003 7.987000000000002 L 10.982000000000003 17.971000000000004 L 0.9980000000000029 17.971000000000004 L 0.9980000000000029 30.950000000000003 z" stroke-linecap="round" />
</g>
<g transform="matrix(NaN NaN NaN NaN 0 0)"  >
<g style=""   >
</g>
</g>
<g transform="matrix(NaN NaN NaN NaN 0 0)"  >
<g style=""   >
</g>
</g>
</svg>