<?xml version="1.0" encoding="UTF-8" standalone="no" ?>
<!DOCTYPE svg PUBLIC "-//W3C//DTD SVG 1.1//EN" "http://www.w3.org/Graphics/SVG/1.1/DTD/svg11.dtd">
<svg xmlns="http://www.w3.org/2000/svg" xmlns:xlink="http://www.w3.org/1999/xlink" version="1.1" width="1080" height="1080" viewBox="0 0 1080 1080" xml:space="preserve">
<desc>Created with Fabric.js 5.2.4</desc>
<defs>
</defs>
<rect x="0" y="0" width="100%" height="100%" fill="transparent"></rect>
<g transform="matrix(1 0 0 1 540 540)" id="45a06fce-c542-4879-898a-b2cdaaf7a10f"  >
<rect style="stroke: none; stroke-width: 1; stroke-dasharray: none; stroke-linecap: butt; stroke-dashoffset: 0; stroke-linejoin: miter; stroke-miterlimit: 4; fill: rgb(255,255,255); fill-rule: nonzero; opacity: 1; visibility: hidden;" vector-effect="non-scaling-stroke"  x="-540" y="-540" rx="0" ry="0" width="1080" height="1080" />
</g>
<g transform="matrix(1 0 0 1 540 540)" id="6a42ad79-d41b-4770-95b8-6c3a443a9029"  >
</g>
<g transform="matrix(1 0 0 1 540 540)" id="e674b91d-d2ae-4d47-a5b3-dfababa243b9"  >
<path style="stroke: rgb(0,0,0); stroke-width: 0; stroke-dasharray: none; stroke-linecap: butt; stroke-dashoffset: 0; stroke-linejoin: miter; stroke-miterlimit: 4; fill: rgb(147,129,255); fill-rule: nonzero; opacity: 1;" vector-effect="non-scaling-stroke"  transform=" translate(-1624.3, -1664.44)" d="M 589 2962 C 29 2642 47 2653 20 2600 C 1 2563 0 2539 0 2090 C 0 1579 -1 1593 57 1538 C 85 1511 115 1493 565 1234 C 831 1081 866 1067 945 1089 C 967 1095 1077 1154 1190 1221 C 1303 1287 1490 1395 1607 1460 C 1723 1525 1921 1640 2046 1716 C 2172 1791 2291 1857 2313 1862 C 2337 1867 2367 1866 2393 1859 C 2444 1846 2810 1627 2852 1585 C 2907 1530 2910 1514 2910 1230 C 2910 881 2928 913 2643 746 C 2437 626 2405 610 2357 610 C 2301 610 2264 628 2052 758 C 1784 922 1796 904 1792 1142 L 1789 1320 L 1722 1283 C 1685 1262 1612 1220 1560 1189 L 1465 1133 L 1462 957 C 1460 799 1462 776 1479 743 C 1489 722 1509 695 1522 684 C 1534 672 1649 602 1775 528 C 2326 205 2259 240 2333 240 C 2379 240 2409 246 2432 259 C 2819 480 3172 689 3197 713 C 3214 729 3234 755 3240 769 C 3247 787 3250 942 3248 1267 L 3245 1738 L 3214 1777 C 3180 1819 3173 1824 2745 2070 C 2459 2235 2442 2244 2383 2248 C 2349 2250 2306 2247 2288 2241 C 2270 2235 2183 2187 2095 2136 C 1834 1983 1193 1611 1084 1549 C 892 1439 895 1439 550 1643 C 393 1735 385 1742 356 1795 C 336 1833 335 1848 335 2090 C 336 2435 319 2406 621 2587 C 802 2696 819 2703 877 2708 C 947 2713 944 2714 1210 2560 C 1384 2460 1399 2449 1427 2402 C 1448 2368 1450 2353 1450 2198 C 1450 2105 1453 2030 1458 2030 C 1462 2030 1535 2070 1620 2119 L 1775 2208 L 1778 2379 C 1781 2567 1774 2595 1713 2651 C 1698 2666 1524 2771 1328 2884 L 972 3090 L 892 3090 L 813 3090 L 589 2962 z" stroke-linecap="round" />
</g>
<g transform="matrix(NaN NaN NaN NaN 0 0)"  >
<g style=""   >
</g>
</g>
</svg>