<?xml version="1.0" standalone="no"?>
<!DOCTYPE svg PUBLIC "-//W3C//DTD SVG 20010904//EN"
 "http://www.w3.org/TR/2001/REC-SVG-20010904/DTD/svg10.dtd">
<svg version="1.0" xmlns="http://www.w3.org/2000/svg"
 width="329.000000pt" height="329.000000pt" viewBox="0 0 329.000000 329.000000"
 preserveAspectRatio="xMidYMid meet">
<metadata>
Created by potrace 1.16, written by Peter Selinger 2001-2019
</metadata>
<g transform="translate(0.000000,329.000000) scale(0.100000,-0.100000)"
fill="#000000" stroke="none">
<path d="M589 2932 c-560 -320 -542 -309 -569 -362 -19 -37 -20 -61 -20 -510
0 -511 -1 -497 57 -552 28 -27 58 -45 508 -304 266 -153 301 -167 380 -145 22
6 132 65 245 132 113 66 300 174 417 239 116 65 314 180 439 256 126 75 245
141 267 146 24 5 54 4 80 -3 51 -13 417 -232 459 -274 55 -55 58 -71 58 -355
0 -349 18 -317 -267 -484 -206 -120 -238 -136 -286 -136 -56 0 -93 18 -305
148 -268 164 -256 146 -260 384 l-3 178 -67 -37 c-37 -21 -110 -63 -162 -94
l-95 -56 -3 -176 c-2 -158 0 -181 17 -214 10 -21 30 -48 43 -59 12 -12 127
-82 253 -156 551 -323 484 -288 558 -288 46 0 76 6 99 19 359 205 739 429 762
450 16 14 37 44 47 66 17 37 19 73 19 469 0 301 -4 440 -12 468 -22 75 -66
108 -418 310 -426 244 -393 228 -462 228 -73 0 -91 -8 -280 -118 -221 -130
-886 -516 -1004 -583 -192 -110 -189 -110 -534 94 -157 92 -165 99 -194 152
-20 38 -21 53 -21 295 1 345 -16 316 286 497 181 109 198 116 256 121 70 5 67
6 333 -148 174 -100 189 -111 217 -158 21 -34 23 -49 23 -204 0 -93 3 -168 8
-168 4 0 77 40 162 89 l155 89 3 171 c3 188 -4 216 -65 272 -15 15 -189 120
-385 233 l-356 206 -80 0 -79 0 -224 -128z"/>
</g>
</svg>
