<?xml version="1.0" standalone="no"?>
<!DOCTYPE svg PUBLIC "-//W3C//DTD SVG 20010904//EN"
 "http://www.w3.org/TR/2001/REC-SVG-20010904/DTD/svg10.dtd">
<svg version="1.0" xmlns="http://www.w3.org/2000/svg"
 width="960.000000pt" height="719.000000pt" viewBox="0 0 960.000000 719.000000"
 preserveAspectRatio="xMidYMid meet">
<metadata>
Created by potrace 1.16, written by Peter Selinger 2001-2019
</metadata>
<g transform="translate(0.000000,719.000000) scale(0.100000,-0.100000)"
fill="#000000" stroke="none">
<path d="M2605 6824 c-77 -42 -165 -90 -195 -109 -30 -18 -177 -102 -326 -188
-456 -261 -915 -527 -1004 -583 -103 -63 -176 -137 -216 -219 l-29 -60 0
-1095 0 -1095 30 -59 c45 -89 124 -169 229 -230 88 -52 328 -192 666 -388 91
-53 246 -143 345 -201 384 -223 582 -334 630 -353 39 -15 75 -19 170 -19 147
0 166 6 365 123 338 198 482 283 600 354 236 141 438 256 750 426 191 104 555
316 960 561 250 151 478 287 507 303 106 59 242 69 374 28 54 -16 353 -191
774 -453 217 -135 282 -189 328 -271 59 -106 58 -88 55 -747 l-3 -605 -37 -75
c-62 -126 -108 -161 -538 -412 -340 -199 -540 -308 -588 -323 -34 -9 -92 -16
-142 -16 -133 0 -196 26 -430 172 -124 77 -259 160 -494 305 -238 146 -265
167 -318 249 -74 115 -78 140 -78 553 0 308 -2 364 -14 360 -8 -3 -155 -88
-327 -188 -173 -101 -338 -196 -367 -212 l-53 -29 3 -402 c3 -390 4 -403 26
-455 28 -66 73 -132 124 -182 38 -37 180 -124 633 -389 689 -404 1032 -603
1068 -622 34 -17 65 -21 187 -26 l146 -5 50 33 c27 17 121 73 209 124 88 50
470 271 849 491 763 443 788 460 849 584 l32 66 3 1044 c3 1160 6 1089 -65
1209 -54 91 -128 146 -433 322 -146 84 -355 205 -465 268 -110 64 -267 155
-350 202 -82 48 -240 139 -350 202 -247 142 -270 151 -400 152 -157 0 -159 0
-670 -299 -148 -86 -326 -190 -395 -229 -69 -40 -213 -124 -320 -186 -107 -62
-237 -137 -287 -167 -51 -29 -137 -79 -190 -110 -54 -31 -181 -104 -283 -163
-322 -186 -489 -283 -690 -402 -396 -234 -471 -265 -610 -255 -131 9 -194 38
-625 290 -523 305 -560 332 -623 457 -45 90 -52 163 -53 549 -2 454 -1 521 12
649 9 93 17 125 45 183 55 114 112 165 334 296 107 64 311 185 453 270 142 84
285 162 317 173 76 26 193 26 280 2 36 -10 110 -44 165 -77 55 -32 141 -81
190 -110 50 -29 128 -74 175 -101 47 -28 162 -94 255 -148 94 -55 188 -111
211 -127 57 -39 108 -99 146 -171 l33 -63 5 -392 5 -392 378 217 377 216 0
352 c0 193 -4 376 -10 405 -15 82 -71 187 -133 249 -35 35 -103 83 -184 130
-1098 638 -1482 859 -1540 889 -38 19 -58 21 -205 21 l-163 0 -140 -76z"/>
</g>
</svg>
