<svg width="1280" height="720" xmlns="http://www.w3.org/2000/svg" xmlns:xlink="http://www.w3.org/1999/xlink" overflow="hidden"><defs><clipPath id="clip0"><rect x="0" y="0" width="1280" height="720"/></clipPath><clipPath id="clip1"><rect x="232" y="0" width="839" height="723"/></clipPath><clipPath id="clip2"><rect x="232" y="0" width="839" height="723"/></clipPath><clipPath id="clip3"><rect x="232" y="-81" width="2984" height="884"/></clipPath></defs><g clip-path="url(#clip0)"><rect x="0" y="0" width="1280" height="720" fill="#FFFFFF" fill-opacity="0"/><g clip-path="url(#clip1)"><g clip-path="url(#clip2)"><g clip-path="url(#clip3)"><path d="M564.822 768.374 569.648 766.411 650.582 719.357 734.072 670.904C738.526 668.477 742.554 665.357 745.995 661.659 752.1 655.234 756.065 647.125 757.357 638.413 757.357 634.492 757.357 442.352 757.357 438.149 755.816 428.49 751.362 419.514 744.575 412.382 738.225 406.467 731.054 401.467 723.278 397.537L571.355 309.87C564.976 307.014 558.054 305.537 551.049 305.537 544.046 305.537 537.124 307.014 530.743 309.87 528.192 309.87 510.868 320.793 472.529 342.921L379.385 396.98 287.38 450.193C258.983 467.559 232.574 482.124 230.586 482.682 224.167 485.901 217.055 487.53 209.857 487.447 202.727 487.461 195.671 486.034 189.126 483.245 186.003 483.245 101.094 433.11 96.5507 429.75 92.1043 426.414 88.181 422.449 84.9076 417.987 81.2738 412.514 78.6764 406.44 77.2405 400.056 76.2261 381.398 76.2261 362.699 77.2405 344.042 74.9562 322.298 75.625 300.349 79.2286 278.781 81.0946 273.514 83.6736 268.521 86.8956 263.936 90.1185 259.59 94.0535 255.802 98.5385 252.732 101.946 250.491 183.73 202.597 186.286 200.636 192.877 197.644 200.045 196.096 207.3 196.096 214.555 196.096 221.724 197.644 228.315 200.636 231.154 202.037 313.509 249.931 319.752 253.572 325.768 257.598 330.733 262.973 334.237 269.257 336.515 273.109 338.238 277.257 339.348 281.581L339.348 285.784 339.348 320.793C339.348 340.121 339.348 356.084 339.348 356.084L377.113 334.519 414.314 312.951 414.314 277.939C414.314 239.008 414.314 240.408 411.76 232.565 408.309 223.139 402.201 214.88 394.155 208.759 391.314 206.798 236.833 117.17 229.45 113.249L223.487 110.448 220.931 110.448 192.534 110.448 188.274 112.128C185.151 113.528 163.285 125.853 103.082 160.584 58.4987 186.352 21.014 208.198 19.5943 209.319 14.4697 212.84 10.1005 217.324 6.73781 222.515 3.37553 227.707 1.08567 233.501 0 239.568 0 243.489 0 246.57 0 342.361 0 438.149 0 441.512 0 445.151 1.09211 451.37 3.51185 457.29 7.09945 462.519 10.7976 467.749 15.3009 472.377 20.446 476.243 24.1377 478.482 181.743 570.073 185.718 572.031 192.516 575.179 199.933 576.811 207.442 576.811 214.951 576.811 222.369 575.179 229.166 572.031L285.96 538.701C332.249 510.691 346.729 503.131 377.682 486.045 408.635 468.961 417.156 464.198 469.69 432.547L526.488 398.098C538.389 392.711 551.974 392.208 564.253 396.698 566.241 397.192 568.149 397.943 569.933 398.937 573.343 400.619 658.815 452.154 661.372 454.957 671.075 462.544 677.558 473.432 679.547 485.484 679.547 490.523 679.547 595.002 679.547 600.041 677.531 612.444 670.711 623.591 660.522 631.132 657.681 633.089 575.331 681.827 568.798 684.63 562.317 687.479 555.304 688.951 548.208 688.951 541.117 688.951 534.098 687.479 527.62 684.63 525.348 684.63 508.88 673.985 480.765 656.62L435.048 628.611C426.894 622.47 420.773 614.09 417.44 604.522 415.168 597.52 415.168 599.48 414.883 560.268L414.883 524.417 377.682 545.985 340.486 567.55 340.486 603.683C340.486 642.894 340.486 642.616 342.474 649.336 344.086 654.251 346.483 658.887 349.57 663.062 352.77 667.334 356.597 671.111 360.93 674.264 363.486 676.225 520.524 768.095 524.216 770.053 527.904 772.016 529.893 773.134 545.513 773.134L559.429 773.134 564.822 768.374Z" fill="#834AFC" transform="matrix(1.00038 0 0 1 232 -80.8831)"/><path d="M955.611 356.746 1032.37 356.746 1032.37 387.119C1040.84 376.075 1051.89 367.606 1065.51 361.716 1079.13 355.457 1094.78 352.328 1112.45 352.328 1138.22 352.328 1160.68 358.218 1179.82 370 1198.96 381.782 1213.69 398.531 1224 420.254 1234.68 441.976 1240.01 467.194 1240.01 495.91 1240.01 524.627 1234.31 549.845 1222.89 571.567 1211.85 592.92 1196.2 609.672 1175.95 621.821 1155.71 633.603 1132.33 639.493 1105.82 639.493 1089.99 639.493 1075.63 636.916 1062.75 631.761 1049.86 626.606 1039.74 619.427 1032.37 610.224L1032.37 747.731 955.611 747.731 955.611 356.746ZM1027.95 495.91C1027.95 519.105 1034.21 537.881 1046.73 552.239 1059.25 566.23 1075.81 573.224 1096.43 573.224 1116.68 573.224 1133.06 566.23 1145.58 552.239 1158.1 537.881 1164.36 519.105 1164.36 495.91 1164.36 472.349 1158.1 453.573 1145.58 439.582 1133.06 425.224 1116.68 418.045 1096.43 418.045 1075.81 418.045 1059.25 425.224 1046.73 439.582 1034.21 453.573 1027.95 472.349 1027.95 495.91ZM1414.32 639.493C1386.34 639.493 1361.12 633.418 1338.66 621.269 1316.2 608.752 1298.72 591.633 1286.2 569.911 1273.68 547.821 1267.42 523.155 1267.42 495.91 1267.42 468.666 1273.68 444.185 1286.2 422.463 1298.72 400.373 1316.2 383.254 1338.66 371.105 1361.12 358.588 1386.34 352.328 1414.32 352.328 1442.3 352.328 1467.52 358.588 1489.97 371.105 1512.43 383.254 1529.92 400.373 1542.44 422.463 1554.96 444.185 1561.21 468.666 1561.21 495.91 1561.21 523.155 1554.96 547.821 1542.44 569.911 1529.92 591.633 1512.43 608.752 1489.97 621.269 1467.52 633.418 1442.3 639.493 1414.32 639.493ZM1344.73 495.91C1344.73 518.737 1351.18 537.328 1364.06 551.687 1376.95 566.045 1393.7 573.224 1414.32 573.224 1434.93 573.224 1451.69 566.045 1464.57 551.687 1477.46 537.328 1483.9 518.737 1483.9 495.91 1483.9 472.717 1477.46 453.94 1464.57 439.582 1451.69 425.224 1434.93 418.045 1414.32 418.045 1393.7 418.045 1376.95 425.224 1364.06 439.582 1351.18 453.94 1344.73 472.717 1344.73 495.91ZM1607.62 235.806 1684.38 235.806 1684.38 635.075 1607.62 635.075 1607.62 235.806ZM1821.25 632.866 1720.19 356.746 1798.6 356.746 1857.14 536.224 1915.13 356.746 1994.1 356.746 1893.04 633.97 1853.83 747.731 1780.38 747.731 1821.25 632.866ZM2134.02 639.493C2093.15 639.493 2060.94 626.606 2037.38 600.836 2014.18 574.696 2002.59 539.722 2002.59 495.91 2002.59 467.194 2007.74 441.976 2018.05 420.254 2028.73 398.531 2043.82 381.782 2063.33 370 2082.85 358.218 2106.04 352.328 2132.92 352.328 2149.48 352.328 2164.39 355.275 2177.65 361.164 2191.27 366.687 2201.94 374.418 2209.68 384.358L2209.68 356.746 2286.99 356.746 2286.99 651.642C2286.99 680.726 2277.42 703.92 2258.27 721.224 2239.13 738.896 2213.73 747.731 2182.06 747.731L2041.8 747.731 2041.8 687.537 2169.92 687.537C2181.7 687.537 2191.27 683.305 2198.63 674.836 2206.36 666.737 2210.23 656.245 2210.23 643.358L2210.23 606.911C2203.23 617.218 2192.92 625.319 2179.3 631.209 2165.68 636.731 2150.59 639.493 2134.02 639.493ZM2078.24 495.91C2078.24 519.472 2084.32 538.248 2096.47 552.239 2108.98 566.23 2125.55 573.224 2146.17 573.224 2166.79 573.224 2183.35 566.23 2195.87 552.239 2208.39 538.248 2214.65 519.472 2214.65 495.91 2214.65 472.349 2208.39 453.573 2195.87 439.582 2183.35 425.224 2166.79 418.045 2146.17 418.045 2125.55 418.045 2108.98 425.224 2096.47 439.582 2084.32 453.573 2078.24 472.349 2078.24 495.91ZM2480.51 639.493C2452.53 639.493 2427.31 633.418 2404.85 621.269 2382.39 608.752 2364.91 591.633 2352.39 569.911 2339.87 547.821 2333.61 523.155 2333.61 495.91 2333.61 468.666 2339.87 444.185 2352.39 422.463 2364.91 400.373 2382.39 383.254 2404.85 371.105 2427.31 358.588 2452.53 352.328 2480.51 352.328 2508.49 352.328 2533.71 358.588 2556.16 371.105 2578.62 383.254 2596.11 400.373 2608.62 422.463 2621.14 444.185 2627.4 468.666 2627.4 495.91 2627.4 523.155 2621.14 547.821 2608.62 569.911 2596.11 591.633 2578.62 608.752 2556.16 621.269 2533.71 633.418 2508.49 639.493 2480.51 639.493ZM2410.92 495.91C2410.92 518.737 2417.37 537.328 2430.25 551.687 2443.14 566.045 2459.89 573.224 2480.51 573.224 2501.12 573.224 2517.88 566.045 2530.76 551.687 2543.65 537.328 2550.09 518.737 2550.09 495.91 2550.09 472.717 2543.65 453.94 2530.76 439.582 2517.88 425.224 2501.12 418.045 2480.51 418.045 2459.89 418.045 2443.14 425.224 2430.25 439.582 2417.37 453.94 2410.92 472.717 2410.92 495.91ZM2669.39 356.746 2746.7 356.746 2746.7 395.403C2754.44 381.782 2765.67 371.29 2780.38 363.925 2795.1 356.194 2812.06 352.328 2831.19 352.328 2851.82 352.328 2869.85 356.931 2885.31 366.134 2901.13 375.337 2913.28 388.224 2921.76 404.791 2930.59 421.358 2935.01 440.319 2935.01 461.672L2935.01 635.075 2857.7 635.075 2857.7 478.791C2857.7 461.857 2852.73 448.051 2842.79 437.373 2832.85 426.328 2819.95 420.806 2804.13 420.806 2787.2 420.806 2773.4 426.696 2762.71 438.478 2752.04 449.89 2746.7 464.618 2746.7 482.657L2746.7 635.075 2669.39 635.075 2669.39 356.746Z" fill="#110C22" transform="matrix(1.00038 0 0 1 232 -80.8831)"/></g></g></g></g></svg>