<?xml version="1.0" encoding="UTF-8" standalone="no" ?>
<!DOCTYPE svg PUBLIC "-//W3C//DTD SVG 1.1//EN" "http://www.w3.org/Graphics/SVG/1.1/DTD/svg11.dtd">
<svg xmlns="http://www.w3.org/2000/svg" xmlns:xlink="http://www.w3.org/1999/xlink" version="1.1" width="1080" height="1080" viewBox="0 0 1080 1080" xml:space="preserve">
<desc>Created with Fabric.js 5.2.4</desc>
<defs>
</defs>
<rect x="0" y="0" width="100%" height="100%" fill="transparent"></rect>
<g transform="matrix(1 0 0 1 540 540)" id="45a06fce-c542-4879-898a-b2cdaaf7a10f"  >
<rect style="stroke: none; stroke-width: 1; stroke-dasharray: none; stroke-linecap: butt; stroke-dashoffset: 0; stroke-linejoin: miter; stroke-miterlimit: 4; fill: rgb(255,255,255); fill-rule: nonzero; opacity: 1; visibility: hidden;" vector-effect="non-scaling-stroke"  x="-540" y="-540" rx="0" ry="0" width="1080" height="1080" />
</g>
<g transform="matrix(1 0 0 1 540 540)" id="6a42ad79-d41b-4770-95b8-6c3a443a9029"  >
</g>
<g transform="matrix(NaN NaN NaN NaN 0 0)"  >
<g style=""   >
</g>
</g>
<g transform="matrix(-0.06 -0.11 0.11 -0.06 540 540)" id="bc07f4d5-318f-4482-8027-796e13fc12b9"  >
<path style="stroke: rgb(0,0,0); stroke-width: 0; stroke-dasharray: none; stroke-linecap: butt; stroke-dashoffset: 0; stroke-linejoin: miter; stroke-miterlimit: 4; fill: rgb(131,74,252); fill-rule: nonzero; opacity: 0.5;" vector-effect="non-scaling-stroke"  transform=" translate(-4170, -3369.79)" d="M 2245 6663 C 2177 6628 1607 6304 1260 6102 C 1103 6011 883 5883 770 5818 C 541 5685 467 5621 414 5514 L 385 5455 L 385 4365 L 385 3275 L 413 3218 C 428 3187 469 3132 503 3096 C 559 3037 601 3009 920 2824 C 1270 2621 1622 2417 1730 2355 C 1760 2338 1889 2263 2015 2190 C 2271 2041 2326 2020 2455 2020 C 2589 2020 2632 2036 2840 2160 C 2865 2175 2930 2213 2985 2245 C 3139 2335 3288 2423 3485 2540 C 3686 2659 3865 2761 4235 2965 C 4373 3041 4517 3122 4555 3145 C 4860 3327 5280 3579 5455 3684 C 5570 3754 5689 3818 5720 3827 C 5795 3850 5927 3848 6006 3823 C 6044 3811 6193 3727 6396 3605 C 7027 3224 7052 3206 7125 3069 L 7165 2995 L 7165 2364 L 7165 1734 L 7128 1659 C 7064 1530 7012 1492 6498 1193 C 6466 1175 6414 1145 6383 1126 C 6040 926 5997 908 5864 908 C 5793 908 5758 914 5703 933 C 5634 957 5606 972 5375 1115 C 5189 1230 5011 1339 4875 1422 C 4713 1520 4668 1557 4619 1633 C 4543 1750 4540 1774 4540 2187 C 4540 2495 4538 2551 4526 2547 C 4518 2544 4371 2459 4199 2359 C 4026 2258 3861 2163 3833 2147 L 3780 2118 L 3780 1767 C 3780 1573 3785 1386 3790 1351 C 3795 1314 3813 1260 3832 1223 C 3890 1109 3944 1067 4280 868 C 4594 682 5510 148 5613 90 C 5669 59 5675 58 5820 52 C 5967 47 5970 48 6002 72 C 6020 85 6064 112 6100 132 C 6136 152 6203 190 6250 217 C 6297 245 6389 298 6455 337 C 6521 375 6619 432 6672 463 C 6956 628 7009 659 7170 752 C 7222 782 7310 833 7365 865 C 7478 931 7532 962 7675 1044 C 7793 1112 7889 1204 7929 1289 L 7955 1345 L 7955 2405 L 7955 3465 L 7928 3523 C 7867 3653 7792 3721 7580 3842 C 7517 3878 7407 3941 7335 3982 C 7264 4023 7129 4101 7035 4155 C 6213 4631 6094 4698 6043 4715 C 6019 4723 5969 4733 5931 4736 C 5805 4748 5686 4707 5469 4578 C 5357 4511 5298 4477 4725 4144 C 4142 3806 4089 3776 3820 3620 C 3654 3525 3555 3467 3285 3310 C 3241 3285 3112 3209 2998 3142 C 2748 2995 2668 2954 2593 2935 C 2487 2907 2362 2921 2251 2973 C 2192 3000 1833 3206 1500 3403 C 1320 3510 1247 3577 1199 3677 C 1156 3767 1150 3832 1149 4210 C 1147 4709 1148 4757 1161 4879 C 1171 4978 1178 5003 1211 5069 C 1266 5179 1319 5226 1515 5342 C 1822 5524 1953 5602 2100 5691 C 2282 5800 2324 5815 2455 5815 C 2606 5815 2575 5830 3185 5475 C 3279 5421 3409 5345 3475 5307 C 3617 5226 3676 5171 3727 5076 L 3765 5005 L 3770 4613 L 3775 4222 L 4055 4382 C 4209 4471 4379 4568 4433 4598 L 4530 4654 L 4530 5000 C 4530 5191 4525 5372 4520 5401 C 4496 5531 4396 5666 4271 5738 C 4235 5759 4138 5816 4055 5864 C 3973 5912 3876 5969 3840 5990 C 3804 6010 3735 6051 3685 6080 C 3636 6109 3566 6149 3530 6170 C 3494 6191 3409 6240 3340 6280 C 3271 6320 3175 6376 3125 6405 C 3076 6433 2977 6491 2905 6532 C 2834 6573 2741 6626 2699 6649 L 2623 6690 L 2459 6690 C 2303 6689 2293 6688 2245 6663 z" stroke-linecap="round" />
</g>
<g transform="matrix(NaN NaN NaN NaN 0 0)"  >
<g style=""   >
</g>
</g>
</svg>