<?xml version="1.0" standalone="no"?>
<!DOCTYPE svg PUBLIC "-//W3C//DTD SVG 20010904//EN"
 "http://www.w3.org/TR/2001/REC-SVG-20010904/DTD/svg10.dtd">
<svg version="1.0" xmlns="http://www.w3.org/2000/svg"
 width="820.000000pt" height="820.000000pt" viewBox="0 0 820.000000 820.000000"
 preserveAspectRatio="xMidYMid meet">
<metadata>
Created by potrace 1.16, written by Peter Selinger 2001-2019
</metadata>
<g transform="translate(0.000000,820.000000) scale(0.100000,-0.100000)"
fill="#000000" stroke="none">
<path d="M3940 8019 c-672 -69 -1256 -493 -1532 -1111 -55 -123 -111 -308
-134 -442 -25 -144 -29 -398 -10 -546 58 -438 240 -799 557 -1105 147 -142
268 -227 452 -320 301 -151 586 -214 922 -202 368 13 680 116 994 330 116 79
291 241 383 356 427 530 536 1251 281 1876 -105 258 -236 450 -450 655 -141
136 -264 223 -443 313 -326 164 -674 231 -1020 196z"/>
<path d="M3905 3774 c-273 -18 -516 -54 -763 -115 -782 -192 -1370 -584 -1645
-1099 -166 -311 -197 -696 -81 -1022 224 -630 939 -1128 1899 -1322 290 -59
419 -70 805 -70 372 -1 454 6 730 55 430 76 837 225 1165 424 335 203 597 471
735 750 104 210 143 367 143 580 0 276 -76 514 -241 760 -368 547 -1158 940
-2087 1040 -137 15 -542 26 -660 19z"/>
</g>
</svg>
