<?xml version="1.0" encoding="UTF-8" standalone="no" ?>
<!DOCTYPE svg PUBLIC "-//W3C//DTD SVG 1.1//EN" "http://www.w3.org/Graphics/SVG/1.1/DTD/svg11.dtd">
<svg xmlns="http://www.w3.org/2000/svg" xmlns:xlink="http://www.w3.org/1999/xlink" version="1.1" width="969" height="969" viewBox="0 0 969 969" xml:space="preserve">
<desc>Created with Fabric.js 5.2.4</desc>
<defs>
</defs>
<rect x="0" y="0" width="100%" height="100%" fill="transparent"></rect>
<g transform="matrix(1 0 0 1 484.5 484.5)" id="52c450ab-558d-4942-a207-b2b7b6ffd094"  >
<rect style="stroke: none; stroke-width: 1; stroke-dasharray: none; stroke-linecap: butt; stroke-dashoffset: 0; stroke-linejoin: miter; stroke-miterlimit: 4; fill: rgb(255,255,255); fill-rule: nonzero; opacity: 1; visibility: hidden;" vector-effect="non-scaling-stroke"  x="-484.5" y="-484.5" rx="0" ry="0" width="969" height="969" />
</g>
<g transform="matrix(Infinity NaN NaN Infinity 0 0)" id="8a369938-54f2-4a42-90c8-7f8942bc8a70"  >
</g>
<g transform="matrix(0.9 0 0 0.9 1453.5 1453.5)"  >
<g style="" vector-effect="non-scaling-stroke"   >
		<g transform="matrix(8 0 0 8 -232 96.57)"  >
<path style="stroke: none; stroke-width: 1; stroke-dasharray: none; stroke-linecap: butt; stroke-dashoffset: 0; stroke-linejoin: miter; stroke-miterlimit: 4; fill: rgb(128,237,153); fill-rule: nonzero; opacity: 1;" vector-effect="non-scaling-stroke"  transform=" translate(-21, -62)" d="M 21 32 C 9.459 32 0 41.43 0 52.94 C 0 57.4 1.424 61.545 3.835 64.952 L 18.438 90.196 C 20.482999999999997 92.868 21.843 92.361 23.543999999999997 90.056 L 39.65 62.646 C 39.975 62.056 40.23 61.43 40.452999999999996 60.79 C 41.47506006899231 58.29907712980374 42.00057185443008 55.6324530084809 42 52.940000000000005 C 42 41.43 32.544 32 21 32 z M 21 41.812 C 27.216 41.812 32.16 46.742999999999995 32.16 52.940999999999995 C 32.16 59.138999999999996 27.215999999999998 64.068 20.999999999999996 64.068 C 14.784999999999997 64.068 9.839999999999996 59.138 9.839999999999996 52.940999999999995 C 9.839999999999996 46.742999999999995 14.784999999999997 41.812 20.999999999999996 41.812 z" stroke-linecap="round" />
</g>
		<g transform="matrix(8 0 0 8 302 -259.43)"  >
<path style="stroke: none; stroke-width: 1; stroke-dasharray: none; stroke-linecap: butt; stroke-dashoffset: 0; stroke-linejoin: miter; stroke-miterlimit: 4; fill: rgb(128,237,153); fill-rule: nonzero; opacity: 1;" vector-effect="non-scaling-stroke"  transform=" translate(-87.75, -17.5)" d="M 87.75 0 C 81.018 0 75.5 5.501 75.5 12.216 C 75.5 14.817 76.33 17.235 77.737 19.222 L 86.256 33.948 C 87.449 35.506 88.242 35.21 89.234 33.866 L 98.62899999999999 17.875999999999998 C 98.81899999999999 17.532999999999998 98.96799999999999 17.168 99.097 16.793999999999997 C 99.69340904012796 15.34141212178801 100.00015930502757 13.786259616017894 100 12.216000000000001 C 100 5.5 94.484 0 87.75 0 z M 87.75 5.724 C 91.376 5.724 94.26 8.6 94.26 12.216000000000001 C 94.26 15.831000000000001 91.376 18.706000000000003 87.75 18.706000000000003 C 84.125 18.706000000000003 81.24 15.831000000000003 81.24 12.216000000000003 C 81.24 8.600000000000003 84.125 5.724000000000003 87.75 5.724000000000003 z" stroke-linecap="round" />
</g>
		<g transform="matrix(8 0 0 8 34.15 149.65)"  >
<path style="stroke: none; stroke-width: 1; stroke-dasharray: none; stroke-linecap: butt; stroke-dashoffset: 0; stroke-linejoin: miter; stroke-miterlimit: 4; fill: rgb(128,237,153); fill-rule: evenodd; opacity: 1;" vector-effect="non-scaling-stroke"  transform=" translate(-54.27, -68.63)" d="M 88.209 37.412 C 85.962 37.461999999999996 83.709 37.557 81.452 37.724 L 81.8 43.256 C 83.96803138255832 43.098979085693756 86.13975460411521 42.99794543973464 88.31299999999999 42.953 z M 76.23400000000001 38.232 C 72.76400000000001 38.663 69.26400000000001 39.277 65.804 40.263999999999996 L 67.107 45.62499999999999 C 70.251 44.72899999999999 73.509 44.14999999999999 76.818 43.73899999999999 z M 60.623 42.12 C 59.586289738252226 42.57761622470735 58.582550289652445 43.10655082761462 57.618999999999986 43.703 L 57.615 43.708 L 57.609 43.71 C 56.234 44.576 54.785000000000004 45.675000000000004 53.602000000000004 47.272 C 52.745000000000005 48.429 52.044000000000004 49.891999999999996 51.88 51.622 L 56.975 52.187 C 57.013 51.781 57.221000000000004 51.245 57.595 50.741 L 57.597 50.741 L 57.597 50.739 C 58.2 49.922999999999995 59.104 49.181999999999995 60.179 48.504 L 60.183 48.501999999999995 C 60.94926639915275 48.02908608138014 61.74714875907286 47.60942936276219 62.570999999999984 47.245999999999995 z M 58 54.655 L 54.697 58.89 C 55.480000000000004 59.606 56.301 60.156 57.094 60.616 L 57.104 60.621 L 57.114 60.627 C 59.745999999999995 62.124 62.459999999999994 62.969 64.976 63.771 L 66.422 58.453 C 63.907 57.651 61.535999999999994 56.877 59.504 55.723000000000006 C 58.922 55.385000000000005 58.412 55.032000000000004 58 54.65500000000001 z M 71.33500000000001 59.949 L 69.923 65.276 L 70.59100000000001 65.484 L 71.411 65.746 C 74.125 66.62899999999999 76.725 67.57199999999999 79.049 68.877 L 81.40700000000001 63.956999999999994 C 78.59700000000001 62.37799999999999 75.68 61.346 72.86900000000001 60.431999999999995 L 72.86100000000002 60.42999999999999 L 72.01900000000002 60.160999999999994 z M 86.20200000000001 67.649 L 82.57900000000001 71.569 C 83.435 72.49600000000001 84.07600000000001 73.611 84.388 74.763 L 84.39 74.769 L 84.392 74.778 C 84.764 76.123 84.765 77.70500000000001 84.47399999999999 79.30300000000001 L 89.49799999999999 80.37500000000001 C 89.90799999999999 78.11900000000001 89.97399999999999 75.64200000000001 89.3 73.19700000000002 C 88.713 71.03500000000001 87.593 69.15700000000001 86.202 67.64900000000002 z M 82.72 82.643 C 82.16637293879836 83.22772994958778 81.55453904138741 83.75445661263818 80.894 84.215 L 80.89200000000001 84.215 C 79.09200000000001 85.48100000000001 77.004 86.435 74.78600000000002 87.25500000000001 L 76.44000000000001 92.49900000000001 C 78.86600000000001 91.602 81.35700000000001 90.50200000000001 83.68500000000002 88.864 L 83.69100000000002 88.85900000000001 L 83.69400000000002 88.85700000000001 C 84.65005911911021 88.1875572686304 85.53441794737567 87.42115763231243 86.33300000000001 86.57000000000001 z M 70.08 88.732 C 66.867 89.596 63.583 90.254 60.259 90.812 L 61.043 96.291 C 64.464 95.716 67.899 95.029 71.313 94.11099999999999 z M 55.257999999999996 91.568 C 51.91199999999999 92.02499999999999 48.547999999999995 92.398 45.17399999999999 92.716 L 45.61599999999999 98.238 C 49.041999999999994 97.916 52.47399999999999 97.537 55.900999999999996 97.068 z M 40.102999999999994 93.151 C 36.721999999999994 93.419 33.333 93.637 29.940999999999995 93.821 L 30.196999999999996 99.357 C 33.62199999999999 99.172 37.05 98.951 40.477 98.679 z M 24.843999999999994 94.071 C 22.810999999999993 94.166 20.772999999999996 94.244 18.729999999999993 94.316 L 18.897999999999993 99.857 C 20.953769461310287 99.78632303198955 23.009133981060724 99.70432178776964 25.06399999999982 99.61099999999979 z" stroke-linecap="round" />
</g>
</g>
</g>
<g transform="matrix(NaN NaN NaN NaN 0 0)"  >
<g style=""   >
</g>
</g>
<g transform="matrix(1.18 0 0 1.18 480.16 480.14)"  >
<g style="" vector-effect="non-scaling-stroke"   >
		<g transform="matrix(8 0 0 8 -232 96.57)"  >
<path style="stroke: none; stroke-width: 1; stroke-dasharray: none; stroke-linecap: butt; stroke-dashoffset: 0; stroke-linejoin: miter; stroke-miterlimit: 4; fill: rgb(128,237,153); fill-rule: nonzero; opacity: 1;" vector-effect="non-scaling-stroke"  transform=" translate(-21, -62)" d="M 21 32 C 9.459 32 0 41.43 0 52.94 C 0 57.4 1.424 61.545 3.835 64.952 L 18.438 90.196 C 20.482999999999997 92.868 21.843 92.361 23.543999999999997 90.056 L 39.65 62.646 C 39.975 62.056 40.23 61.43 40.452999999999996 60.79 C 41.47506006899231 58.29907712980374 42.00057185443008 55.6324530084809 42 52.940000000000005 C 42 41.43 32.544 32 21 32 z M 21 41.812 C 27.216 41.812 32.16 46.742999999999995 32.16 52.940999999999995 C 32.16 59.138999999999996 27.215999999999998 64.068 20.999999999999996 64.068 C 14.784999999999997 64.068 9.839999999999996 59.138 9.839999999999996 52.940999999999995 C 9.839999999999996 46.742999999999995 14.784999999999997 41.812 20.999999999999996 41.812 z" stroke-linecap="round" />
</g>
		<g transform="matrix(8 0 0 8 302 -259.43)"  >
<path style="stroke: none; stroke-width: 1; stroke-dasharray: none; stroke-linecap: butt; stroke-dashoffset: 0; stroke-linejoin: miter; stroke-miterlimit: 4; fill: rgb(128,237,153); fill-rule: nonzero; opacity: 1;" vector-effect="non-scaling-stroke"  transform=" translate(-87.75, -17.5)" d="M 87.75 0 C 81.018 0 75.5 5.501 75.5 12.216 C 75.5 14.817 76.33 17.235 77.737 19.222 L 86.256 33.948 C 87.449 35.506 88.242 35.21 89.234 33.866 L 98.62899999999999 17.875999999999998 C 98.81899999999999 17.532999999999998 98.96799999999999 17.168 99.097 16.793999999999997 C 99.69340904012796 15.34141212178801 100.00015930502757 13.786259616017894 100 12.216000000000001 C 100 5.5 94.484 0 87.75 0 z M 87.75 5.724 C 91.376 5.724 94.26 8.6 94.26 12.216000000000001 C 94.26 15.831000000000001 91.376 18.706000000000003 87.75 18.706000000000003 C 84.125 18.706000000000003 81.24 15.831000000000003 81.24 12.216000000000003 C 81.24 8.600000000000003 84.125 5.724000000000003 87.75 5.724000000000003 z" stroke-linecap="round" />
</g>
		<g transform="matrix(8 0 0 8 34.15 149.65)"  >
<path style="stroke: none; stroke-width: 1; stroke-dasharray: none; stroke-linecap: butt; stroke-dashoffset: 0; stroke-linejoin: miter; stroke-miterlimit: 4; fill: rgb(128,237,153); fill-rule: evenodd; opacity: 1;" vector-effect="non-scaling-stroke"  transform=" translate(-54.27, -68.63)" d="M 88.209 37.412 C 85.962 37.461999999999996 83.709 37.557 81.452 37.724 L 81.8 43.256 C 83.96803138255832 43.098979085693756 86.13975460411521 42.99794543973464 88.31299999999999 42.953 z M 76.23400000000001 38.232 C 72.76400000000001 38.663 69.26400000000001 39.277 65.804 40.263999999999996 L 67.107 45.62499999999999 C 70.251 44.72899999999999 73.509 44.14999999999999 76.818 43.73899999999999 z M 60.623 42.12 C 59.586289738252226 42.57761622470735 58.582550289652445 43.10655082761462 57.618999999999986 43.703 L 57.615 43.708 L 57.609 43.71 C 56.234 44.576 54.785000000000004 45.675000000000004 53.602000000000004 47.272 C 52.745000000000005 48.429 52.044000000000004 49.891999999999996 51.88 51.622 L 56.975 52.187 C 57.013 51.781 57.221000000000004 51.245 57.595 50.741 L 57.597 50.741 L 57.597 50.739 C 58.2 49.922999999999995 59.104 49.181999999999995 60.179 48.504 L 60.183 48.501999999999995 C 60.94926639915275 48.02908608138014 61.74714875907286 47.60942936276219 62.570999999999984 47.245999999999995 z M 58 54.655 L 54.697 58.89 C 55.480000000000004 59.606 56.301 60.156 57.094 60.616 L 57.104 60.621 L 57.114 60.627 C 59.745999999999995 62.124 62.459999999999994 62.969 64.976 63.771 L 66.422 58.453 C 63.907 57.651 61.535999999999994 56.877 59.504 55.723000000000006 C 58.922 55.385000000000005 58.412 55.032000000000004 58 54.65500000000001 z M 71.33500000000001 59.949 L 69.923 65.276 L 70.59100000000001 65.484 L 71.411 65.746 C 74.125 66.62899999999999 76.725 67.57199999999999 79.049 68.877 L 81.40700000000001 63.956999999999994 C 78.59700000000001 62.37799999999999 75.68 61.346 72.86900000000001 60.431999999999995 L 72.86100000000002 60.42999999999999 L 72.01900000000002 60.160999999999994 z M 86.20200000000001 67.649 L 82.57900000000001 71.569 C 83.435 72.49600000000001 84.07600000000001 73.611 84.388 74.763 L 84.39 74.769 L 84.392 74.778 C 84.764 76.123 84.765 77.70500000000001 84.47399999999999 79.30300000000001 L 89.49799999999999 80.37500000000001 C 89.90799999999999 78.11900000000001 89.97399999999999 75.64200000000001 89.3 73.19700000000002 C 88.713 71.03500000000001 87.593 69.15700000000001 86.202 67.64900000000002 z M 82.72 82.643 C 82.16637293879836 83.22772994958778 81.55453904138741 83.75445661263818 80.894 84.215 L 80.89200000000001 84.215 C 79.09200000000001 85.48100000000001 77.004 86.435 74.78600000000002 87.25500000000001 L 76.44000000000001 92.49900000000001 C 78.86600000000001 91.602 81.35700000000001 90.50200000000001 83.68500000000002 88.864 L 83.69100000000002 88.85900000000001 L 83.69400000000002 88.85700000000001 C 84.65005911911021 88.1875572686304 85.53441794737567 87.42115763231243 86.33300000000001 86.57000000000001 z M 70.08 88.732 C 66.867 89.596 63.583 90.254 60.259 90.812 L 61.043 96.291 C 64.464 95.716 67.899 95.029 71.313 94.11099999999999 z M 55.257999999999996 91.568 C 51.91199999999999 92.02499999999999 48.547999999999995 92.398 45.17399999999999 92.716 L 45.61599999999999 98.238 C 49.041999999999994 97.916 52.47399999999999 97.537 55.900999999999996 97.068 z M 40.102999999999994 93.151 C 36.721999999999994 93.419 33.333 93.637 29.940999999999995 93.821 L 30.196999999999996 99.357 C 33.62199999999999 99.172 37.05 98.951 40.477 98.679 z M 24.843999999999994 94.071 C 22.810999999999993 94.166 20.772999999999996 94.244 18.729999999999993 94.316 L 18.897999999999993 99.857 C 20.953769461310287 99.78632303198955 23.009133981060724 99.70432178776964 25.06399999999982 99.61099999999979 z" stroke-linecap="round" />
</g>
</g>
</g>
<g transform="matrix(NaN NaN NaN NaN 0 0)"  >
<g style=""   >
</g>
</g>
</svg>