<svg width="1280" height="720" xmlns="http://www.w3.org/2000/svg" xmlns:xlink="http://www.w3.org/1999/xlink" overflow="hidden"><defs><clipPath id="clip0"><rect x="0" y="0" width="1280" height="720"/></clipPath><clipPath id="clip1"><rect x="329" y="49" width="622" height="622"/></clipPath><clipPath id="clip2"><rect x="329" y="49" width="622" height="622"/></clipPath><clipPath id="clip3"><rect x="329" y="49" width="622" height="622"/></clipPath></defs><g clip-path="url(#clip0)"><rect x="0" y="0" width="1280" height="720" fill="#22333B"/><g clip-path="url(#clip1)"><g clip-path="url(#clip2)"><g clip-path="url(#clip3)"><path d="M640 411.833C611.373 411.833 588.167 388.627 588.167 360 588.167 331.373 611.373 308.167 640 308.167 668.627 308.167 691.833 331.373 691.833 360 691.833 388.627 668.627 411.833 640 411.833ZM640 334.083C625.687 334.083 614.083 345.687 614.083 360 614.083 374.313 625.687 385.917 640 385.917 654.313 385.917 665.917 374.313 665.917 360 665.917 345.687 654.313 334.083 640 334.083Z" fill="#FFC300"/><path d="M866.771 347.042C859.977 231.887 768.113 140.023 652.958 133.229L652.958 94.3542 627.042 94.3542 627.042 133.229C511.887 140.023 420.023 231.887 413.229 347.042L374.354 347.042 374.354 372.958 413.229 372.958C420.023 488.113 511.887 579.977 627.042 586.771L627.042 625.646 652.958 625.646 652.958 586.771C768.113 579.977 859.977 488.113 866.771 372.958L905.646 372.958 905.646 347.042ZM770.62 372.958C764.394 435.18 715.18 484.393 652.958 490.62L652.958 437.75 627.042 437.75 627.042 490.62C564.82 484.394 515.606 435.18 509.38 372.958L562.25 372.958 562.25 347.042 509.38 347.042C515.606 284.82 564.82 235.606 627.042 229.38L627.042 282.25 652.958 282.25 652.958 229.38C715.18 235.606 764.393 284.82 770.62 347.042L717.75 347.042 717.75 372.958ZM627.042 172.104 627.042 203.399C550.519 209.826 489.795 270.521 483.334 347.042L452.104 347.042C458.767 253.325 533.325 178.767 627.042 172.104ZM452.104 372.958 483.399 372.958C489.826 449.481 550.521 510.205 627.042 516.666L627.042 547.896C533.325 541.233 458.767 466.675 452.104 372.958ZM652.958 547.896 652.958 516.666C729.504 510.234 790.234 449.504 796.666 372.958L827.896 372.958C821.233 466.675 746.675 541.233 652.958 547.896ZM796.666 347.042C790.234 270.496 729.504 209.766 652.958 203.334L652.958 172.104C746.675 178.767 821.233 253.325 827.896 347.042Z" fill="#FFC300"/></g></g></g></g></svg>