<svg width="1280" height="720" xmlns="http://www.w3.org/2000/svg" xmlns:xlink="http://www.w3.org/1999/xlink" overflow="hidden"><defs><clipPath id="clip0"><rect x="0" y="0" width="1280" height="720"/></clipPath><clipPath id="clip1"><rect x="327" y="51" width="626" height="625"/></clipPath><clipPath id="clip2"><rect x="327" y="51" width="626" height="625"/></clipPath><clipPath id="clip3"><rect x="327" y="51" width="626" height="625"/></clipPath></defs><g clip-path="url(#clip0)"><rect x="0" y="0" width="1280" height="720" fill="#22333B"/><path d="M0 363 381.091 363" stroke="#FFC300" stroke-width="8" stroke-miterlimit="8" stroke-dasharray="64 24" fill="none" fill-rule="evenodd"/><path d="M899 364 1280.09 364" stroke="#FFC300" stroke-width="8" stroke-miterlimit="8" stroke-dasharray="64 24" fill="none" fill-rule="evenodd"/><g clip-path="url(#clip1)"><g clip-path="url(#clip2)"><g clip-path="url(#clip3)"><path d="M312.637 78.125C442.003 78.125 546.875 182.997 546.875 312.363 546.875 441.73 442.003 546.602 312.637 546.602 183.27 546.602 78.3984 441.73 78.3984 312.363 78.5456 183.058 183.331 78.2721 312.637 78.125M312.637 65.1042C176.079 65.1042 65.3776 175.806 65.3776 312.363 65.3776 448.921 176.079 559.622 312.637 559.622 449.194 559.622 559.896 448.921 559.896 312.363 559.96 175.87 449.364 65.1686 312.871 65.1042 312.793 65.1041 312.715 65.1041 312.637 65.1042Z" fill="#FFC300" transform="matrix(1.0016 0 0 1 327 51)"/><path d="M297.741 418.053C283.807 418.635 269.925 416.016 257.161 410.397L257.161 394.368C269.743 401.659 283.983 405.602 298.522 405.82 306.47 405.923 314.375 404.639 321.882 402.025 328.551 399.675 334.666 395.976 339.844 391.159 344.844 386.395 348.753 380.605 351.302 374.186 354.011 367.256 355.362 359.869 355.28 352.428 356.173 337.888 350.427 323.727 339.655 313.919 329.408 305.156 314.225 300.71 294.531 300.71 287.272 300.71 276.901 301.25 263.704 302.331L270.124 200.117 361.074 200.117 361.074 213.268 282.487 213.268 277.598 288.958 280.202 288.763C288.945 288.164 295.977 287.858 301.1 287.858 311.278 287.688 321.417 289.17 331.12 292.246 339.141 294.83 346.531 299.068 352.812 304.688 358.695 310.112 363.246 316.82 366.113 324.29 369.274 332.754 370.82 341.735 370.671 350.768 370.787 360.175 369.131 369.52 365.788 378.314 362.702 386.317 357.889 393.542 351.693 399.473 345.117 405.576 337.335 410.234 328.848 413.145 318.837 416.55 308.314 418.211 297.741 418.053Z" fill="#FFC300" transform="matrix(1.0016 0 0 1 327 51)"/></g></g></g></g></svg>