<svg width="1280" height="720" xmlns="http://www.w3.org/2000/svg" xmlns:xlink="http://www.w3.org/1999/xlink" overflow="hidden"><defs><clipPath id="clip0"><rect x="0" y="0" width="1280" height="720"/></clipPath><clipPath id="clip1"><rect x="327" y="51" width="626" height="625"/></clipPath><clipPath id="clip2"><rect x="327" y="51" width="626" height="625"/></clipPath><clipPath id="clip3"><rect x="327" y="51" width="626" height="625"/></clipPath></defs><g clip-path="url(#clip0)"><rect x="0" y="0" width="1280" height="720" fill="#22333B"/><path d="M0 363 381.091 363" stroke="#FFC300" stroke-width="8" stroke-miterlimit="8" stroke-dasharray="64 24" fill="none" fill-rule="evenodd"/><path d="M899 364 1280.09 364" stroke="#FFC300" stroke-width="8" stroke-miterlimit="8" stroke-dasharray="64 24" fill="none" fill-rule="evenodd"/><g clip-path="url(#clip1)"><g clip-path="url(#clip2)"><g clip-path="url(#clip3)"><path d="M312.637 78.125C442.003 78.125 546.875 182.997 546.875 312.363 546.875 441.73 442.003 546.602 312.637 546.602 183.27 546.602 78.3984 441.73 78.3984 312.363 78.5456 183.058 183.331 78.2721 312.637 78.125M312.637 65.1042C176.079 65.1042 65.3776 175.806 65.3776 312.363 65.3776 448.921 176.079 559.622 312.637 559.622 449.194 559.622 559.896 448.921 559.896 312.363 559.96 175.87 449.364 65.1686 312.871 65.1042 312.793 65.1041 312.715 65.1041 312.637 65.1042Z" fill="#FFC300" transform="matrix(1.0016 0 0 1 327 51)"/><path d="M327.513 414.388 327.513 360.072 223.906 360.072 223.906 345.26C233.268 334.844 243.034 323.125 252.786 310.892 262.669 298.477 272.272 285.651 281.322 272.786 290.371 259.922 298.822 247.044 306.432 234.512 313.257 223.378 319.506 211.903 325.156 200.13L342.337 200.13 342.337 346.921 376.517 346.921 376.517 360.072 342.337 360.072 342.337 414.388ZM323.262 228.001C315.814 240.879 308.288 253.086 300.905 264.277 293.522 275.469 286.296 285.918 279.368 295.475 272.441 305.033 265.742 313.848 259.447 321.706 253.151 329.564 247.279 336.79 241.992 343.19L238.932 346.901 238.932 346.901 327.513 346.901 327.513 220.664 327.513 220.664Z" fill="#FFC300" transform="matrix(1.0016 0 0 1 327 51)"/></g></g></g></g></svg>