<svg width="1280" height="720" xmlns="http://www.w3.org/2000/svg" xmlns:xlink="http://www.w3.org/1999/xlink" overflow="hidden"><defs><clipPath id="clip0"><rect x="0" y="0" width="1280" height="720"/></clipPath><clipPath id="clip1"><rect x="327" y="51" width="626" height="625"/></clipPath><clipPath id="clip2"><rect x="327" y="51" width="626" height="625"/></clipPath><clipPath id="clip3"><rect x="327" y="51" width="626" height="625"/></clipPath></defs><g clip-path="url(#clip0)"><rect x="0" y="0" width="1280" height="720" fill="#22333B"/><path d="M0 363 381.091 363" stroke="#FFC300" stroke-width="8" stroke-miterlimit="8" stroke-dasharray="64 24" fill="none" fill-rule="evenodd"/><path d="M899 364 1280.09 364" stroke="#FFC300" stroke-width="8" stroke-miterlimit="8" stroke-dasharray="64 24" fill="none" fill-rule="evenodd"/><g clip-path="url(#clip1)"><g clip-path="url(#clip2)"><g clip-path="url(#clip3)"><path d="M312.637 78.125C442.003 78.125 546.875 182.997 546.875 312.363 546.875 441.73 442.003 546.602 312.637 546.602 183.27 546.602 78.3984 441.73 78.3984 312.363 78.5456 183.058 183.331 78.2721 312.637 78.125M312.637 65.1042C176.079 65.1042 65.3776 175.806 65.3776 312.363 65.3776 448.921 176.079 559.622 312.637 559.622 449.194 559.622 559.896 448.921 559.896 312.363 559.96 175.87 449.364 65.1686 312.871 65.1042 312.793 65.1041 312.715 65.1041 312.637 65.1042Z" fill="#FFC300" transform="matrix(1.0016 0 0 1 327 51)"/><path d="M297.441 424.714C281.458 425.078 265.645 421.361 251.497 413.913L251.497 397.975C265.308 407.143 281.472 412.128 298.047 412.331 304.994 412.35 311.914 411.452 318.626 409.661 325.049 407.978 331.089 405.078 336.419 401.12 341.666 397.145 345.936 392.023 348.9 386.146 352.166 379.382 353.771 371.936 353.581 364.427 354.405 350.223 347.992 336.564 336.536 328.125 325.469 320.143 309.069 316.1 287.826 316.1L272.708 316.1 272.708 303.73 286.458 303.73C305.807 303.73 320.651 299.824 330.586 292.012 340.909 283.624 346.572 270.786 345.807 257.507 346.556 245.993 342.456 234.69 334.499 226.335 325.197 218.52 313.219 214.633 301.1 215.495 286.443 215.766 272.18 220.29 260.046 228.516L260.046 214.434C273.943 206.983 289.453 203.051 305.221 202.982 312.541 202.962 319.824 204.008 326.842 206.087 333.362 207.986 339.448 211.139 344.759 215.371 349.896 219.566 354.061 224.826 356.966 230.788 360.134 237.553 361.694 244.96 361.523 252.428 361.523 280.736 347.891 298.34 319.857 306.237L318.197 306.699 318.197 311.068 320.221 311.302C326.883 312.037 333.399 313.755 339.557 316.4 345.317 318.859 350.568 322.372 355.039 326.758 359.467 331.178 362.98 336.428 365.378 342.207 367.975 348.58 369.264 355.41 369.167 362.292 369.338 371.476 367.433 380.581 363.594 388.926 360.008 396.481 354.798 403.151 348.333 408.457 341.568 413.909 333.826 418.021 325.521 420.573 316.428 423.383 306.958 424.78 297.441 424.714Z" fill="#FFC300" transform="matrix(1.0016 0 0 1 327 51)"/></g></g></g></g></svg>