<svg width="1280" height="720" xmlns="http://www.w3.org/2000/svg" xmlns:xlink="http://www.w3.org/1999/xlink" overflow="hidden"><defs><clipPath id="clip0"><rect x="0" y="0" width="1280" height="720"/></clipPath><clipPath id="clip1"><rect x="327" y="51" width="626" height="625"/></clipPath><clipPath id="clip2"><rect x="327" y="51" width="626" height="625"/></clipPath><clipPath id="clip3"><rect x="327" y="51" width="626" height="625"/></clipPath></defs><g clip-path="url(#clip0)"><rect x="0" y="0" width="1280" height="720" fill="#22333B"/><path d="M0 363 381.091 363" stroke="#FFC300" stroke-width="8" stroke-miterlimit="8" stroke-dasharray="64 24" fill="none" fill-rule="evenodd"/><path d="M899 364 1280.09 364" stroke="#FFC300" stroke-width="8" stroke-miterlimit="8" stroke-dasharray="64 24" fill="none" fill-rule="evenodd"/><g clip-path="url(#clip1)"><g clip-path="url(#clip2)"><g clip-path="url(#clip3)"><path d="M312.637 78.125C442.003 78.125 546.875 182.997 546.875 312.363 546.875 441.73 442.003 546.602 312.637 546.602 183.27 546.602 78.3984 441.73 78.3984 312.363 78.5456 183.058 183.331 78.2721 312.637 78.125M312.637 65.1042C176.079 65.1042 65.3776 175.806 65.3776 312.363 65.3776 448.921 176.079 559.622 312.637 559.622 449.194 559.622 559.896 448.921 559.896 312.363 559.96 175.87 449.364 65.1686 312.871 65.1042 312.793 65.1041 312.715 65.1041 312.637 65.1042Z" fill="#FFC300" transform="matrix(1.0016 0 0 1 327 51)"/><path d="M248.294 414.388 248.294 406.139C248.133 397.771 249.255 389.428 251.621 381.4 253.899 374.36 257.415 367.783 262.005 361.979 267.439 355.203 273.613 349.054 280.41 343.646 287.936 337.526 297.148 330.521 307.786 322.812 315.013 317.513 321.536 312.311 327.174 307.344 332.535 302.688 337.359 297.447 341.556 291.719 345.379 286.43 348.368 280.585 350.417 274.388 352.491 267.793 353.508 260.911 353.431 253.997 353.538 247.443 352.423 240.925 350.143 234.779 346.144 223.919 337.405 215.48 326.413 211.862 320.516 209.898 314.333 208.93 308.118 208.997 297.954 209.008 287.941 211.465 278.926 216.159 270.945 220.312 263.525 225.462 256.842 231.484L256.842 215.853C264.082 210.038 272.131 205.312 280.736 201.823 290.349 198.148 300.575 196.338 310.866 196.491 312.534 196.487 314.202 196.585 315.859 196.784 317.51 196.988 319.146 197.288 320.762 197.682 327.647 198.364 334.363 200.232 340.612 203.203 346.307 205.939 351.434 209.728 355.723 214.368 359.993 219.102 363.286 224.633 365.41 230.645 367.784 237.427 368.952 244.572 368.861 251.758 368.977 260.049 367.78 268.307 365.312 276.224 362.982 283.342 359.562 290.055 355.176 296.126 350.522 302.484 345.162 308.294 339.199 313.444 332.93 318.913 325.827 324.512 318.079 330.02 309.355 336.302 301.764 341.947 295.514 346.771 289.882 351.038 284.589 355.736 279.681 360.82 275.76 364.863 272.468 369.472 269.915 374.492 267.61 379.241 266.003 384.297 265.143 389.505 264.902 391.133 264.759 392.572 264.583 394.167 264.417 395.82 264.337 397.48 264.342 399.141L264.342 401.413 373.281 401.413 373.281 414.434Z" fill="#FFC300" transform="matrix(1.0016 0 0 1 327 51)"/></g></g></g></g></svg>