<svg width="1280" height="720" xmlns="http://www.w3.org/2000/svg" xmlns:xlink="http://www.w3.org/1999/xlink" overflow="hidden"><defs><clipPath id="clip0"><rect x="0" y="0" width="1280" height="720"/></clipPath><clipPath id="clip1"><rect x="331" y="51" width="618" height="618"/></clipPath><clipPath id="clip2"><rect x="331" y="51" width="618" height="618"/></clipPath><clipPath id="clip3"><rect x="331" y="51" width="618" height="618"/></clipPath></defs><g clip-path="url(#clip0)"><rect x="0" y="0" width="1280" height="720" fill="#22333B"/><g clip-path="url(#clip1)"><g clip-path="url(#clip2)"><g clip-path="url(#clip3)"><path d="M640.135 128.25C768.053 128.25 871.751 231.948 871.751 359.866 871.751 487.784 768.053 591.482 640.135 591.482 512.216 591.482 408.518 487.784 408.518 359.866 408.664 232.008 512.277 128.396 640.135 128.251M640.135 115.375C505.106 115.375 395.643 224.837 395.643 359.865 395.642 494.894 505.105 604.357 640.133 604.357 775.162 604.358 884.624 494.895 884.625 359.867 884.685 224.899 775.321 115.437 640.353 115.377 640.28 115.377 640.207 115.377 640.135 115.377Z" fill="#FFC300"/><path d="M642.424 460.747 642.424 264.808C642.424 264.732 642.376 264.71 642.318 264.758L638.706 267.886C635.036 270.992 631.161 273.848 627.106 276.432 622.778 279.217 618.311 281.851 613.829 284.265 609.318 286.692 604.757 288.892 600.278 290.816 596.911 292.256 593.693 293.532 590.672 294.619L590.672 282.373C602.218 278.5 613.276 273.304 623.626 266.889 634.628 260.042 645.088 252.361 654.912 243.911L657.226 244.031 657.226 460.747Z" fill="#FFC300"/></g></g></g><path d="M0 363 381.091 363" stroke="#FFC300" stroke-width="8" stroke-miterlimit="8" stroke-dasharray="64 24" fill="none" fill-rule="evenodd"/><path d="M899 364 1280.09 364" stroke="#FFC300" stroke-width="8" stroke-miterlimit="8" stroke-dasharray="64 24" fill="none" fill-rule="evenodd"/></g></svg>