<?xml version="1.0" encoding="UTF-8" standalone="no" ?>
<!DOCTYPE svg PUBLIC "-//W3C//DTD SVG 1.1//EN" "http://www.w3.org/Graphics/SVG/1.1/DTD/svg11.dtd">
<svg xmlns="http://www.w3.org/2000/svg" xmlns:xlink="http://www.w3.org/1999/xlink" version="1.1" width="800" height="800" viewBox="-5.45 8.18 1200 900" xml:space="preserve">
<desc>Created with Fabric.js 5.2.4</desc>
<defs>
</defs>
<rect x="0" y="0" width="100%" height="100%" fill="transparent"></rect>
<g transform="matrix(0 0 0 0 0 0)" id="8ad262da-85cb-4c64-a7c7-012712ca7536"  >
</g>
<g transform="matrix(1 0 0 1 400 400)" id="12a03f7d-9568-4106-9f62-95197b16a236"  >
<rect style="stroke: none; stroke-width: 1; stroke-dasharray: none; stroke-linecap: butt; stroke-dashoffset: 0; stroke-linejoin: miter; stroke-miterlimit: 4; fill: rgb(255,255,255); fill-rule: nonzero; opacity: 1; visibility: hidden;" vector-effect="non-scaling-stroke"  x="-400" y="-400" rx="0" ry="0" width="800" height="800" />
</g>
<g transform="matrix(0 0 NaN NaN 0 0)"  >
<g style=""   >
</g>
</g>
<g transform="matrix(34.45 0 0 34.45 283.39 315.6)"  >
<path style="stroke: rgb(203,153,126); stroke-width: 40; stroke-dasharray: none; stroke-linecap: round; stroke-dashoffset: 0; stroke-linejoin: round; stroke-miterlimit: 4; fill: none; fill-rule: nonzero; opacity: 1;" vector-effect="non-scaling-stroke"  transform=" translate(-12, -14.88)" d="M 18.04 13.55 C 17.62 13.96 17.38 14.55 17.44 15.18 C 17.53 16.26 18.52 17.05 19.6 17.05 L 21.5 17.05 L 21.5 18.24 C 21.5 20.31 19.81 22 17.74 22 L 6.26 22 C 4.19 22 2.5 20.31 2.5 18.24 L 2.5 11.51 C 2.5 9.44001 4.19 7.75 6.26 7.75 L 17.74 7.75 C 19.81 7.75 21.5 9.44001 21.5 11.51 L 21.5 12.95 L 19.48 12.95 C 18.92 12.95 18.41 13.17 18.04 13.55 Z" stroke-linecap="round" />
</g>
<g transform="matrix(34.45 0 0 34.45 163.84 47.14)"  >
<path style="stroke: rgb(203,153,126); stroke-width: 30; stroke-dasharray: none; stroke-linecap: round; stroke-dashoffset: 0; stroke-linejoin: round; stroke-miterlimit: 4; fill: none; fill-rule: nonzero; opacity: 1;" vector-effect="non-scaling-stroke"  transform=" translate(-8.68, -7.23)" d="M 2.5 12.4101 L 2.5 7.8401 C 2.5 6.6501 3.23 5.59006 4.34 5.17006 L 12.28 2.17006 C 13.52 1.70006 14.85 2.62009 14.85 3.95009 L 14.85 7.75008" stroke-linecap="round" />
</g>
<g transform="matrix(34.45 0 0 34.45 553.83 314.92)"  >
<path style="stroke: rgb(203,153,126); stroke-width: 30; stroke-dasharray: none; stroke-linecap: round; stroke-dashoffset: 0; stroke-linejoin: round; stroke-miterlimit: 4; fill: none; fill-rule: nonzero; opacity: 1;" vector-effect="non-scaling-stroke"  transform=" translate(-19.99, -15)" d="M 22.5588 13.9702 L 22.5588 16.0302 C 22.5588 16.5802 22.1188 17.0302 21.5588 17.0502 L 19.5988 17.0502 C 18.5188 17.0502 17.5288 16.2602 17.4388 15.1802 C 17.3788 14.5502 17.6188 13.9602 18.0388 13.5502 C 18.4088 13.1702 18.9188 12.9502 19.4788 12.9502 L 21.5588 12.9502 C 22.1188 12.9702 22.5588 13.4202 22.5588 13.9702 Z" stroke-linecap="round" />
</g>
<g transform="matrix(34.45 0 0 34.45 226.73 211.56)"  >
<path style="stroke: rgb(203,153,126); stroke-width: 30; stroke-dasharray: none; stroke-linecap: round; stroke-dashoffset: 0; stroke-linejoin: round; stroke-miterlimit: 4; fill: none; fill-rule: nonzero; opacity: 1;" vector-effect="non-scaling-stroke"  transform=" translate(-10.5, -12)" d="M 7 12 L 14 12" stroke-linecap="round" />
</g>
<g transform="matrix(NaN NaN NaN NaN 0 0)"  >
<g style=""   >
</g>
</g>
<g transform="matrix(NaN NaN NaN NaN 0 0)"  >
<g style=""   >
</g>
</g>
<g transform="matrix(NaN NaN NaN NaN 0 0)"  >
<g style=""   >
</g>
</g>
<g transform="matrix(NaN NaN NaN NaN 0 0)"  >
<g style=""   >
</g>
</g>
</svg>