<svg width="1280" height="720" xmlns="http://www.w3.org/2000/svg" xmlns:xlink="http://www.w3.org/1999/xlink" overflow="hidden"><defs><clipPath id="clip0"><rect x="0" y="0" width="1280" height="720"/></clipPath><clipPath id="clip1"><rect x="280" y="93" width="720" height="720"/></clipPath><clipPath id="clip2"><rect x="280" y="93" width="720" height="720"/></clipPath><clipPath id="clip3"><rect x="280" y="93" width="720" height="720"/></clipPath></defs><g clip-path="url(#clip0)"><rect x="0" y="0" width="1280" height="720" fill="#FFFFFF" fill-opacity="0"/><g clip-path="url(#clip1)"><g clip-path="url(#clip2)"><g clip-path="url(#clip3)"><path d="M-716-903 4-903 4-183-716-183Z"/><path d="M-156.02-542.997-156.02-443.007C-156.02-383.013-196.016-343.017-256.01-343.017L-455.99-343.017C-515.984-343.017-555.98-383.013-555.98-443.007L-555.98-542.997C-555.98-597.392-523.183-635.388-472.188-641.787-466.989-642.587-461.589-642.987-455.99-642.987L-256.01-642.987C-250.811-642.987-245.811-642.787-241.012-641.987-189.417-635.988-156.02-597.792-156.02-542.997Z" stroke="#292D32" stroke-width="29.997" stroke-linecap="round" stroke-linejoin="round" fill="none"/><path d="M-240.954-642.005C-245.753-642.805-250.753-643.005-255.952-643.005L-455.932-643.005C-461.531-643.005-466.931-642.605-472.13-641.805-469.331-647.404-465.331-652.604-460.531-657.403L-395.538-722.597C-368.141-749.794-323.745-749.794-296.348-722.597L-261.352-687.2C-248.553-674.601-241.754-658.603-240.954-642.005Z" stroke="#292D32" stroke-width="29.997" stroke-linecap="round" stroke-linejoin="round" fill="none"/><path d="M-156.005-532.998-215.999-532.998C-237.997-532.998-255.995-515-255.995-493.002-255.995-471.004-237.997-453.006-215.999-453.006L-156.005-453.006" stroke="#292D32" stroke-width="29.997" stroke-linecap="round" stroke-linejoin="round" fill="none"/><path d="M151.815 584.528C118.212 579.563 89.7304 560.959 72.1188 532.582 64.4888 520.301 59.6287 507.131 56.8066 491.244L55.6569 484.712 55.6569 334.464 55.6569 184.217 56.8066 177.684C61.1442 153.226 71.2304 133.263 87.5355 116.801 104.52 99.6598 124.065 89.4691 148.941 84.818 153.644 83.9296 163.94 83.8773 347.79 83.8773L541.675 83.8773 547.894 85.3406C555.785 87.2219 560.959 89.1556 568.118 92.8138 576.114 96.89 582.072 101.28 588.709 107.917 602.715 121.923 610.919 139.116 613.01 158.975 613.741 165.926 613.689 391.95 612.958 398.639 609.613 429.264 590.956 454.923 563.258 466.995L557.719 469.452 557.51 490.93C557.301 510.632 557.196 512.88 556.099 518.053 552.649 534.724 545.124 548.782 533.104 560.802 521.032 572.822 508.49 579.772 491.139 583.901L486.279 585.051 321.399 585.103C186.568 585.207 155.683 585.103 151.815 584.528ZM482.36 527.931C491.087 524.795 497.567 518.053 500.389 509.012 501.173 506.661 501.382 503.316 501.539 490.094L501.801 473.998 346.85 473.998C236.424 473.998 191.063 473.841 189.077 473.423 179.304 471.385 170.995 463.546 168.068 453.669 167.023 450.115 166.971 442.329 168.016 438.514 170.263 429.943 176.952 422.679 185.418 419.439L188.397 418.341 361.117 418.08C520.562 417.819 534.045 417.714 536.658 416.93 546.378 413.899 553.852 406.322 556.308 396.915 556.987 394.197 557.092 380.401 557.092 278.807 557.092 177.998 556.987 163.417 556.308 160.752 553.538 150.247 544.549 141.781 534.202 140.109 531.641 139.639 479.381 139.534 344.916 139.639L159.132 139.796 153.906 141.207C148.053 142.827 140.736 146.171 135.771 149.516 131.486 152.39 124.17 159.811 121.348 164.096 116.801 170.995 113.979 178.05 112.62 185.889 111.941 189.965 111.836 207.681 111.941 336.554L112.098 482.621 113.509 487.638C115.024 493.282 118.003 499.762 121.348 504.832 124.118 509.065 131.486 516.538 135.615 519.308 142.879 524.22 152.129 527.826 159.916 528.819 161.797 529.08 234.334 529.237 321.138 529.185L478.963 529.133 482.36 527.931Z" fill="#CB997E" transform="matrix(1 0 0 -1 287.747 685.946)"/><path d="M439.141 306.035C429.629 303.735 421.738 296.053 418.916 286.437 418.394 284.712 418.08 281.681 418.08 278.859 418.08 270.341 420.379 264.697 426.18 258.948 430.048 255.081 433.81 252.886 438.514 251.632 442.59 250.534 477.186 250.534 481.262 251.632 486.07 252.886 489.728 255.081 493.596 258.948 499.397 264.697 501.696 270.393 501.696 278.859 501.696 286.803 499.083 293.179 493.543 298.77 489.99 302.272 484.659 305.198 479.851 306.191 475.827 307.027 442.694 306.871 439.141 306.035Z" fill="#CB997E" transform="matrix(1 0 0 -1 290.961 687.376)"/></g></g></g></g></svg>