<?xml version="1.0" encoding="UTF-8" standalone="no" ?>
<!DOCTYPE svg PUBLIC "-//W3C//DTD SVG 1.1//EN" "http://www.w3.org/Graphics/SVG/1.1/DTD/svg11.dtd">
<svg xmlns="http://www.w3.org/2000/svg" xmlns:xlink="http://www.w3.org/1999/xlink" version="1.1" width="1200" height="1200" viewBox="1660 1660 1200 1200" xml:space="preserve">
<desc>Created with Fabric.js 5.2.4</desc>
<defs>
</defs>
<rect x="0" y="0" width="100%" height="100%" fill="transparent"></rect>
<g transform="matrix(1 0 0 1 600 600)" id="12a03f7d-9568-4106-9f62-95197b16a236"  >
<rect style="stroke: none; stroke-width: 1; stroke-dasharray: none; stroke-linecap: butt; stroke-dashoffset: 0; stroke-linejoin: miter; stroke-miterlimit: 4; fill: rgb(255,255,255); fill-rule: nonzero; opacity: 1; visibility: hidden;" vector-effect="non-scaling-stroke"  x="-600" y="-600" rx="0" ry="0" width="1200" height="1200" />
</g>
<g transform="matrix(Infinity NaN NaN Infinity 0 0)" id="8ad262da-85cb-4c64-a7c7-012712ca7536"  >
</g>
<g transform="matrix(0 0 0 0 2400 2400)"  >
<g style=""   >
</g>
</g>
<g transform="matrix(0 0 NaN NaN 2400 0)"  >
<g style=""   >
</g>
</g>
<g transform="matrix(0 0 NaN NaN 2400 0)"  >
<g style=""   >
</g>
</g>
<g transform="matrix(0 0 NaN NaN 2400 0)"  >
<g style=""   >
</g>
</g>
<g transform="matrix(0 0 NaN NaN 2400 0)"  >
<g style=""   >
</g>
</g>
<g transform="matrix(0 0 NaN NaN 2400 0)"  >
<g style=""   >
</g>
</g>
<g transform="matrix(NaN NaN NaN NaN 0 0)"  >
<g style=""   >
</g>
</g>
<g transform="matrix(1 0 0 1 600 600)"  >
<g style="" vector-effect="non-scaling-stroke"   >
		<g transform="matrix(33.33 0 0 33.33 0 83.33)"  >
<path style="stroke: rgb(41,45,50); stroke-width: 1.5; stroke-dasharray: none; stroke-linecap: round; stroke-dashoffset: 0; stroke-linejoin: round; stroke-miterlimit: 4; fill: none; fill-rule: nonzero; opacity: 1;" vector-effect="non-scaling-stroke"  transform=" translate(-12, -14.5)" d="M 22 12 L 22 17 C 22 20 20 22 17 22 L 7 22 C 4 22 2 20 2 17 L 2 12 C 2 9.28 3.64 7.38 6.19 7.06 C 6.45 7.02 6.72 7 7 7 L 17 7 C 17.26 7 17.51 7.00999 17.75 7.04999 C 20.33 7.34999 22 9.26 22 12 Z" stroke-linecap="round" />
</g>
		<g transform="matrix(33.33 0 0 33.33 -0.95 -249)"  >
<path style="stroke: rgb(41,45,50); stroke-width: 1.5; stroke-dasharray: none; stroke-linecap: round; stroke-dashoffset: 0; stroke-linejoin: round; stroke-miterlimit: 4; fill: none; fill-rule: nonzero; opacity: 1;" vector-effect="non-scaling-stroke"  transform=" translate(-11.97, -4.53)" d="M 17.7514 7.05 C 17.5114 7.01 17.2614 7.00001 17.0014 7.00001 L 7.00141 7.00001 C 6.72141 7.00001 6.45141 7.02001 6.19141 7.06001 C 6.33141 6.78001 6.53141 6.52001 6.77141 6.28001 L 10.0214 3.02 C 11.3914 1.66 13.6114 1.66 14.9814 3.02 L 16.7314 4.79002 C 17.3714 5.42002 17.7114 6.22 17.7514 7.05 Z" stroke-linecap="round" />
</g>
		<g transform="matrix(33.33 0 0 33.33 250 83.33)"  >
<path style="stroke: rgb(41,45,50); stroke-width: 1.5; stroke-dasharray: none; stroke-linecap: round; stroke-dashoffset: 0; stroke-linejoin: round; stroke-miterlimit: 4; fill: none; fill-rule: nonzero; opacity: 1;" vector-effect="non-scaling-stroke"  transform=" translate(-19.5, -14.5)" d="M 22 12.5 L 19 12.5 C 17.9 12.5 17 13.4 17 14.5 C 17 15.6 17.9 16.5 19 16.5 L 22 16.5" stroke-linecap="round" />
</g>
</g>
</g>
<g transform="matrix(0.67 0 0 0.67 2230.57 2090.73)"  >
<g style="" vector-effect="non-scaling-stroke"   >
		<g transform="matrix(0.13 0 0 -0.13 0 0)"  >
<path style="stroke: none; stroke-width: 1; stroke-dasharray: none; stroke-linecap: butt; stroke-dashoffset: 0; stroke-linejoin: miter; stroke-miterlimit: 4; fill: rgb(203,153,126); fill-rule: nonzero; opacity: 1;" vector-effect="non-scaling-stroke"  transform=" translate(-6402.51, -6400.84)" d="M 2905 11185 C 2262 11090 1717 10734 1380 10191 C 1234 9956 1141 9704 1087 9400 L 1065 9275 L 1065 6400 L 1065 3525 L 1087 3400 C 1170 2932 1363 2550 1675 2235 C 2000 1907 2374 1712 2850 1623 C 2940 1606 3137 1605 6655 1605 L 10365 1605 L 10484 1633 C 10635 1669 10734 1706 10871 1776 C 11024 1854 11138 1938 11265 2065 C 11533 2333 11690 2662 11730 3042 C 11744 3175 11743 7500 11729 7628 C 11665 8214 11308 8705 10778 8936 L 10672 8983 L 10668 9394 C 10664 9771 10662 9814 10641 9913 C 10575 10232 10431 10501 10201 10731 C 9970 10961 9730 11094 9398 11173 L 9305 11195 L 6150 11196 C 3570 11198 2979 11196 2905 11185 z M 9230 10102 C 9397 10042 9521 9913 9575 9740 C 9590 9695 9594 9631 9597 9378 L 9602 9070 L 6637 9070 C 4524 9070 3656 9067 3618 9059 C 3431 9020 3272 8870 3216 8681 C 3196 8613 3195 8464 3215 8391 C 3258 8227 3386 8088 3548 8026 L 3605 8005 L 6910 8000 C 9961 7995 10219 7993 10269 7978 C 10455 7920 10598 7775 10645 7595 C 10658 7543 10660 7279 10660 5335 C 10660 3406 10658 3127 10645 3076 C 10592 2875 10420 2713 10222 2681 C 10173 2672 9173 2670 6600 2672 L 3045 2675 L 2945 2702 C 2833 2733 2693 2797 2598 2861 C 2516 2916 2376 3058 2322 3140 C 2235 3272 2181 3407 2155 3557 C 2142 3635 2140 3974 2142 6440 L 2145 9235 L 2172 9331 C 2201 9439 2258 9563 2322 9660 C 2375 9741 2516 9884 2595 9937 C 2734 10031 2911 10100 3060 10119 C 3096 10124 4484 10127 6145 10126 L 9165 10125 L 9230 10102 z" stroke-linecap="round" />
</g>
		<g transform="matrix(0.13 0 0 -0.13 319.67 142.19)"  >
<path style="stroke: none; stroke-width: 1; stroke-dasharray: none; stroke-linecap: butt; stroke-dashoffset: 0; stroke-linejoin: miter; stroke-miterlimit: 4; fill: rgb(203,153,126); fill-rule: nonzero; opacity: 1;" vector-effect="non-scaling-stroke"  transform=" translate(-8800, -5334.43)" d="M 8403 5856 C 8221 5812 8070 5665 8016 5481 C 8006 5448 8000 5390 8000 5336 C 8000 5173 8044 5065 8155 4955 C 8229 4881 8301 4839 8391 4815 C 8469 4794 9131 4794 9209 4815 C 9301 4839 9371 4881 9445 4955 C 9556 5065 9600 5174 9600 5336 C 9600 5488 9550 5610 9444 5717 C 9376 5784 9274 5840 9182 5859 C 9105 5875 8471 5872 8403 5856 z" stroke-linecap="round" />
</g>
</g>
</g>
<g transform="matrix(NaN NaN NaN NaN 0 0)"  >
<g style=""   >
</g>
</g>
</svg>