<?xml version="1.0" standalone="no"?>
<!DOCTYPE svg PUBLIC "-//W3C//DTD SVG 20010904//EN"
 "http://www.w3.org/TR/2001/REC-SVG-20010904/DTD/svg10.dtd">
<svg version="1.0" xmlns="http://www.w3.org/2000/svg"
 width="1280.000000pt" height="1280.000000pt" viewBox="0 0 1280.000000 1280.000000"
 preserveAspectRatio="xMidYMid meet">
<metadata>
Created by potrace 1.16, written by Peter Selinger 2001-2019
</metadata>
<g transform="translate(0.000000,1280.000000) scale(0.100000,-0.100000)"
fill="#000000" stroke="none">
<path d="M6680 12096 c-41 -8 -104 -21 -140 -31 -103 -27 -4424 -1662 -4537
-1717 -496 -240 -878 -709 -1013 -1245 -64 -254 -61 -68 -58 -3328 4 -3305 -3
-3005 73 -3301 184 -718 700 -1323 1377 -1613 250 -107 488 -166 768 -191 160
-14 6342 -13 6505 0 1031 89 1885 809 2140 1804 56 217 67 312 72 624 l5 283
47 26 c269 151 437 371 498 654 16 76 18 146 18 739 0 730 0 734 -70 907 -69
171 -230 362 -373 443 -34 19 -76 43 -92 52 l-30 18 0 284 c0 156 -5 330 -10
387 -45 463 -234 925 -526 1286 -377 465 -904 767 -1514 869 -91 15 -196 18
-802 21 l-697 4 -4 922 c-3 839 -5 929 -21 997 -68 290 -203 530 -409 727
-193 184 -414 303 -677 365 -111 26 -418 34 -530 14z m374 -812 c155 -40 326
-177 393 -314 70 -143 67 -93 71 -1042 l3 -858 -2154 0 c-1368 0 -2193 -4
-2258 -10 -461 -45 -933 -237 -1284 -524 l-80 -66 -3 121 c-10 428 210 806
588 1012 63 35 4336 1655 4435 1682 69 19 214 18 289 -1z m2601 -3035 c642
-78 1192 -561 1354 -1189 41 -162 51 -262 51 -527 l0 -231 -427 -5 c-456 -5
-488 -8 -678 -62 -120 -34 -350 -149 -455 -229 -112 -84 -269 -248 -347 -362
-118 -172 -198 -367 -240 -579 -26 -134 -23 -415 6 -552 75 -359 276 -671 576
-896 119 -90 348 -204 490 -245 207 -60 245 -64 679 -69 l398 -5 -4 -212 c-4
-163 -10 -235 -27 -319 -84 -413 -336 -789 -685 -1022 -228 -152 -455 -234
-731 -265 -124 -14 -6306 -14 -6430 0 -278 31 -502 112 -731 265 -349 232
-597 602 -686 1022 l-23 108 -3 1935 c-2 1391 0 1963 8 2035 64 563 439 1061
971 1289 115 50 295 100 410 114 111 14 6410 15 6524 1z m1901 -2785 c15 -11
37 -33 48 -48 21 -27 21 -37 21 -616 0 -579 0 -589 -21 -616 -11 -15 -33 -37
-48 -48 -27 -21 -37 -21 -624 -21 -587 0 -598 0 -674 22 -155 45 -270 112
-370 216 -73 75 -119 150 -154 252 -24 70 -28 95 -28 200 0 105 4 130 28 200
15 44 44 106 63 139 47 77 150 185 221 232 66 45 180 91 254 103 29 5 324 8
655 7 591 -1 602 -1 629 -22z"/>
<path d="M3620 6791 c-108 -34 -200 -114 -252 -219 -31 -62 -33 -73 -33 -172
0 -99 2 -110 33 -172 41 -84 102 -148 183 -190 l64 -33 1985 0 1985 0 59 30
c80 40 152 114 190 194 29 61 31 74 31 171 0 97 -2 110 -31 171 -38 80 -110
154 -190 194 l-59 30 -1970 2 c-1083 1 -1981 -2 -1995 -6z"/>
</g>
</svg>
