<?xml version="1.0" standalone="no"?>
<!DOCTYPE svg PUBLIC "-//W3C//DTD SVG 20010904//EN"
 "http://www.w3.org/TR/2001/REC-SVG-20010904/DTD/svg10.dtd">
<svg version="1.0" xmlns="http://www.w3.org/2000/svg"
 width="1280.000000pt" height="1280.000000pt" viewBox="0 0 1280.000000 1280.000000"
 preserveAspectRatio="xMidYMid meet">
<metadata>
Created by potrace 1.16, written by Peter Selinger 2001-2019
</metadata>
<g transform="translate(0.000000,1280.000000) scale(0.100000,-0.100000)"
fill="#000000" stroke="none">
<path d="M2905 11185 c-643 -95 -1188 -451 -1525 -994 -146 -235 -239 -487
-293 -791 l-22 -125 0 -2875 0 -2875 22 -125 c83 -468 276 -850 588 -1165 325
-328 699 -523 1175 -612 90 -17 287 -18 3805 -18 l3710 0 119 28 c151 36 250
73 387 143 153 78 267 162 394 289 268 268 425 597 465 977 14 133 13 4458 -1
4586 -64 586 -421 1077 -951 1308 l-106 47 -4 411 c-4 377 -6 420 -27 519 -66
319 -210 588 -440 818 -231 230 -471 363 -803 442 l-93 22 -3155 1 c-2580 2
-3171 0 -3245 -11z m6325 -1083 c167 -60 291 -189 345 -362 15 -45 19 -109 22
-362 l5 -308 -2965 0 c-2113 0 -2981 -3 -3019 -11 -187 -39 -346 -189 -402
-378 -20 -68 -21 -217 -1 -290 43 -164 171 -303 333 -365 l57 -21 3305 -5
c3051 -5 3309 -7 3359 -22 186 -58 329 -203 376 -383 13 -52 15 -316 15 -2260
0 -1929 -2 -2208 -15 -2259 -53 -201 -225 -363 -423 -395 -49 -9 -1049 -11
-3622 -9 l-3555 3 -100 27 c-112 31 -252 95 -347 159 -82 55 -222 197 -276
279 -87 132 -141 267 -167 417 -13 78 -15 417 -13 2883 l3 2795 27 96 c29 108
86 232 150 329 53 81 194 224 273 277 139 94 316 163 465 182 36 5 1424 8
3085 7 l3020 -1 65 -23z"/>
<path d="M8403 5856 c-182 -44 -333 -191 -387 -375 -10 -33 -16 -91 -16 -145
0 -163 44 -271 155 -381 74 -74 146 -116 236 -140 78 -21 740 -21 818 0 92 24
162 66 236 140 111 110 155 219 155 381 0 152 -50 274 -156 381 -68 67 -170
123 -262 142 -77 16 -711 13 -779 -3z"/>
</g>
</svg>
